{
.appVersion = "1290";
classes = (
{
automatic = 1;
code = "A A.ss01 B C C.ss01 D E F G H I J K L M M.ss01 N O P P.ss01 Q Q.ss01 Q.ss02 Q.ss03 R S S.ss01 T U V V.ss01 V.ss02 W X Y Z a a_hook a_macr b b_e b_e_macr b_o b_s c c_hook c_macr c_a c_a_macr c_e c_e_macr c_i c_o c_o_macr c_r c_t c_u c_u_macr d d.ss01 d_strok d_e d_o e e_hook e_macr e_c e_t f f_e f_f f_i f_o f_r f_r_a f_u g g.ss01 g.ss02 g.ss03 g_hook g_macr g_ra g_l_strok h h_strok h_e h_e_macr h_o i idotless idotless.ss01 i.ss01 i.ss02 i_hook i_macr i_j i_j_dotless i_j_macr i_m i_n i_u i_u_macr j k l l_strok l_l m m_macr m_i n n_hook n_macr n_i o o_macr o_ra o_r o_r_ra p p.ss01 p_bardes p_flour p_macr p_urrot p_e p_e_macr p_o p_o_macr p_p p_p_macr p_p_flour p_p_flour_hook p_p_hook q q_macr q_ra q_ring q_urrot q_etfin q_etfin_ring q_r q_strok q_strok_ra r r.ss01 r_hook r_macr r_ra r_a r_a_macr r_u r_u_macr s longs longs_strok longs_b_strok longs_etfin longs_longs_etfin longs_i longs_i_m longs_longs longs_t longs_u longs_u_macr t t_acute t_hook t_e t_e_macr t_i t_i_macr t_o t_u t_u_macr u u_hook u_macr u_i u_i_macr v v_hook v_e v_e.ss01 v_o v_o.ss01 w x x_ra y z z.ss01 con rum us";
name = AllLetters;
}
);
copyright = "Copyright (c) 2019 ANRT. All rights reserved.";
customParameters = (
{
name = glyphOrder;
value = (
.notdef,
emspace,
enspace,
threeperemspace,
fourperemspace,
space,
thinspace,
hairspace,
A,
A.ss01,
B,
C,
C.ss01,
D,
E,
F,
G,
H,
I,
J,
K,
L,
M,
M.ss01,
N,
O,
P,
P.ss01,
Q,
Q.ss01,
Q.ss02,
Q.ss03,
Q.ss04,
R,
S,
S.ss01,
T,
U,
V,
V.ss01,
V.ss02,
W,
X,
Y,
Z,
a,
a_hook,
a_macr,
b,
b_e,
b_e_macr,
b_o,
b_s,
c,
c_hook,
c_macr,
c_a,
c_a_macr,
c_e,
c_e_macr,
c_i,
c_o,
c_o_macr,
c_r,
c_t,
c_u,
c_u_macr,
d,
d.ss01,
d_strok,
d_e,
d_o,
e,
e_hook,
e_macr,
e_c,
e_t,
f,
f_e,
f_f,
f_i,
f_o,
f_r,
f_r_a,
f_u,
g,
g.ss01,
g.ss02,
g.ss03,
g_hook,
g_macr,
g_ra,
g_l_strok,
h,
h_strok,
h_e,
h_e_macr,
h_o,
i,
idotless,
idotless.ss01,
i.ss01,
i.ss02,
i_hook,
i_macr,
i_j,
i_j_dotless,
i_j_macr,
i_m,
i_n,
i_u,
i_u_macr,
j,

glyphs = (
{
color = 3;
glyphname = A;
lastChange = "2020-02-01 18:14:35 +0000";
layers = (
{
anchors = (
{
name = bottom;
position = "{343, 0}";
},
{
name = ogonek;
position = "{608, 10}";
},
{
name = top;
position = "{343, 700}";
}
);
layerId = "5FE47517-9953-4891-9518-AB2E2247E448";
paths = (
{
closed = 1;
nodes = (
"65 -40 LINE",
"94 45 OFFCURVE",
"136 150 OFFCURVE",
"168 225 CURVE",
"414 225 LINE",
"485 48 LINE SMOOTH",
"505 -2 OFFCURVE",
"547 -22 OFFCURVE",
"568 -22 CURVE SMOOTH",
"589 -22 OFFCURVE",
"627 27 OFFCURVE",
"670 81 CURVE",
"662 103 LINE",
"597 98 OFFCURVE",
"592 117 OFFCURVE",
"573 163 CURVE SMOOTH",
"358 699 LINE",
"359 700 LINE",
"310 700 LINE",
"5 -32 LINE",
"5 -40 LINE"
);
},
{
closed = 1;
nodes = (
"290 552 LINE",
"380 316 LINE",
"207 316 LINE"
);
}
);
userData = {
com.schriftgestaltung.Glyphs.lastChange = "2019-03-08 08:35:18 +0000";
};
width = 675;
}
);
unicode = 0041;
},
{
color = 3;
glyphname = A.ss01;
lastChange = "2020-02-04 05:21:59 +0000";
layers = (
{
anchors = (
{
name = bottom;
position = "{299, 0}";
},
{
name = ogonek;
position = "{540, 10}";
},
{
name = top;
position = "{299, 700}";
}
);
layerId = "5FE47517-9953-4891-9518-AB2E2247E448";
paths = (
{
closed = 1;
nodes = (
"493 578 LINE SMOOTH",
"493 651 OFFCURVE",
"407 717 OFFCURVE",
"334 717 CURVE SMOOTH",
"277 717 OFFCURVE",
"219 680 OFFCURVE",
"72 579 CURVE",
"92 552 LINE",
"163 599 OFFCURVE",
"206 634 OFFCURVE",
"261 634 CURVE SMOOTH",
"317 634 OFFCURVE",
"377 601 OFFCURVE",
"377 530 CURVE SMOOTH",
"377 497 LINE",
"124 270 LINE SMOOTH",
"73 225 OFFCURVE",
"40 164 OFFCURVE",
"40 98 CURVE SMOOTH",
"40 29 OFFCURVE",
"69 -20 OFFCURVE",
"143 -20 CURVE SMOOTH",
"203 -20 OFFCURVE",
"290 64 OFFCURVE",
"366 165 CURVE",
"371 102 OFFCURVE",
"412 29 OFFCURVE",
"447 -20 CURVE",
"464 -20 OFFCURVE",
"526 33 OFFCURVE",
"550 64 CURVE",
"550 86 LINE",
"518 95 OFFCURVE",
"491 116 OFFCURVE",
"491 183 CURVE SMOOTH"
);
},
{
closed = 1;
nodes = (
"153 108 OFFCURVE",
"137 127 OFFCURVE",
"137 165 CURVE SMOOTH",
"137 243 OFFCURVE",
"252 323 OFFCURVE",
"376 445 CURVE",
"375 373 OFFCURVE",
"373 277 OFFCURVE",
"370 225 CURVE",
"336 168 OFFCURVE",
"248 108 OFFCURVE",
"197 108 CURVE SMOOTH"
);
}
);
userData = {
com.schriftgestaltung.Glyphs.lastChange = "2019-04-13 09:59:42 +0000";
};
width = 580;
}
);
},
{
color = 3;
glyphname = B;
lastChange = "2020-02-01 18:15:24 +0000";
layers = (
{
anchors = (
{
name = bottom;
position = "{368, 0}";
},
{
name = top;
position = "{368, 700}";
}
);
layerId = "5FE47517-9953-4891-9518-AB2E2247E448";
paths = (
{
closed = 1;
nodes = (
"421 471 OFFCURVE",
"449 486 OFFCURVE",
"449 545 CURVE SMOOTH",
"449 620 OFFCURVE",
"374 689 OFFCURVE",
"318 720 CURVE",
"296 720 OFFCURVE",
"143 620 OFFCURVE",
"50 568 CURVE",
"59 543 LINE",
"86 549 OFFCURVE",
"106 553 OFFCURVE",
"105 489 CURVE SMOOTH",
"102 166 LINE SMOOTH",
"102 122 OFFCURVE",
"99 93 OFFCURVE",
"57 0 CURVE",
"76 -18 LINE",
"102 0 OFFCURVE",
"147 11 OFFCURVE",
"195 11 CURVE SMOOTH",
"247 11 OFFCURVE",
"334 -9 OFFCURVE",
"400 -21 CURVE",
"458 4 OFFCURVE",
"647 104 OFFCURVE",
"683 158 CURVE",
"745 363 OFFCURVE",
"606 479 OFFCURVE",
"402 435 CURVE"
);
},
{
closed = 1;
nodes = (
"282 608 OFFCURVE",
"345 565 OFFCURVE",
"342 486 CURVE SMOOTH",
"340 434 OFFCURVE",
"279 356 OFFCURVE",
"218 321 CURVE",
"216 458 LINE SMOOTH",
"215 502 OFFCURVE",
"208 602 OFFCURVE",
"253 632 CURVE"
);
},
{
closed = 1;
nodes = (
"559 110 OFFCURVE",
"506 82 OFFCURVE",
"444 82 CURVE SMOOTH",
"387 82 OFFCURVE",
"286 124 OFFCURVE",
"204 104 CURVE",
"204 162 OFFCURVE",
"207 231 OFFCURVE",
"216 256 CURVE",
"247 306 OFFCURVE",
"320 362 OFFCURVE",
"401 362 CURVE SMOOTH",
"530 362 OFFCURVE",
"633 272 OFFCURVE",
"595 147 CURVE"
);
}
);
userData = {
com.schriftgestaltung.Glyphs.lastChange = "2019-04-13 11:07:24 +0000";
};
width = 738;
}
);
unicode = 0042;
},
{
color = 3;
glyphname = C;
lastChange = "2020-02-01 18:16:13 +0000";
layers = (
{
anchors = (
{
name = bottom;
position = "{349, 0}";
},
{
name = top;
position = "{349, 700}";
}
);
layerId = "5FE47517-9953-4891-9518-AB2E2247E448";
paths = (
{
closed = 1;
nodes = (
"434 14 OFFCURVE",
"537 64 OFFCURVE",
"638 116 CURVE",
"622 147 LINE",
"546 111 OFFCURVE",
"462 89 OFFCURVE",
"422 89 CURVE SMOOTH",
"234 89 OFFCURVE",
"172 227 OFFCURVE",
"172 374 CURVE SMOOTH",
"172 516 OFFCURVE",
"234 572 OFFCURVE",
"307 614 CURVE",
"323 614 OFFCURVE",
"384 579 OFFCURVE",
"421 566 CURVE",
"458 595 OFFCURVE",
"521 633 OFFCURVE",
"626 687 CURVE",
"611 711 LINE",
"569 697 OFFCURVE",
"509 678 OFFCURVE",
"489 678 CURVE SMOOTH",
"458 678 OFFCURVE",
"435 707 OFFCURVE",
"394 721 CURVE",
"352 701 OFFCURVE",
"231 624 OFFCURVE",
"118 541 CURVE",
"77 490 OFFCURVE",
"40 411 OFFCURVE",
"40 307 CURVE SMOOTH",
"40 122 OFFCURVE",
"179 -19 OFFCURVE",
"347 -19 CURVE"
);
}
);
userData = {
com.schriftgestaltung.Glyphs.lastChange = "2019-04-13 10:00:00 +0000";
};
width = 658;
}
);
leftMetricsKey = O;
unicode = 0043;
},
{
color = 3;
glyphname = C.ss01;
lastChange = "2020-02-01 18:16:43 +0000";
layers = (
{
anchors = (
{
name = bottom;
position = "{360, 0}";
},
{
name = "new anchor";
position = "{-79, -60}";
},
{
name = top;
position = "{360, 700}";
}
);
layerId = "5FE47517-9953-4891-9518-AB2E2247E448";
paths = (
{
closed = 1;
nodes = (
"484 0 OFFCURVE",
"568 46 OFFCURVE",
"674 105 CURVE",
"660 135 LINE",
"587 103 OFFCURVE",
"539 79 OFFCURVE",
"451 79 CURVE SMOOTH",
"303 79 OFFCURVE",
"173 191 OFFCURVE",
"173 377 CURVE SMOOTH",
"173 496 OFFCURVE",
"211 593 OFFCURVE",
"345 650 CURVE",
"464 638 OFFCURVE",
"542 610 OFFCURVE",
"585 543 CURVE",
"601 539 LINE",
"672 602 LINE",
"673 671 OFFCURVE",
"616 706 OFFCURVE",
"568 720 CURVE",
"265 720 OFFCURVE",
"40 580 OFFCURVE",
"40 315 CURVE SMOOTH",
"40 125 OFFCURVE",
"195 -20 OFFCURVE",
"403 -20 CURVE"
);
}
);
userData = {
com.schriftgestaltung.Glyphs.lastChange = "2019-04-13 10:01:45 +0000";
};
width = 704;
}
);
leftMetricsKey = O;
},
{
color = 3;
glyphname = D;
lastChange = "2020-02-01 18:16:53 +0000";
layers = (
{
anchors = (
{
name = bottom;
position = "{293, 0}";
},
{
name = center;
position = "{293, 350}";
},
{
name = top;
position = "{293, 700}";
}
);
layerId = "5FE47517-9953-4891-9518-AB2E2247E448";
paths = (
{
closed = 1;
nodes = (
"414 542 OFFCURVE",
"371 617 OFFCURVE",
"351 654 CURVE SMOOTH",
"340 675 OFFCURVE",
"341 686 OFFCURVE",
"357 700 CURVE",
"339 721 LINE",
"47 520 LINE",
"62 496 LINE",
"82 514 OFFCURVE",
"114 524 OFFCURVE",
"116 486 CURVE SMOOTH",
"119 437 OFFCURVE",
"128 256 OFFCURVE",
"104 184 CURVE SMOOTH",
"86 130 OFFCURVE",
"57 59 OFFCURVE",
"15 -7 CURVE",
"36 -22 LINE",
"62 7 OFFCURVE",
"114 20 OFFCURVE",
"173 20 CURVE SMOOTH",
"259 20 OFFCURVE",
"319 0 OFFCURVE",
"393 -20 CURVE",
"442 30 OFFCURVE",
"575 149 OFFCURVE",
"575 195 CURVE SMOOTH",
"575 270 OFFCURVE",
"519 350 OFFCURVE",
"467 445 CURVE SMOOTH"
);
},
{
closed = 1;
nodes = (
"390 85 OFFCURVE",
"324 132 OFFCURVE",
"285 132 CURVE SMOOTH",
"248 132 OFFCURVE",
"194 126 OFFCURVE",
"140 105 CURVE",
"214 217 OFFCURVE",
"243 255 OFFCURVE",
"243 313 CURVE SMOOTH",
"243 377 OFFCURVE",
"222 459 OFFCURVE",
"222 509 CURVE SMOOTH",
"222 550 OFFCURVE",
"229 574 OFFCURVE",
"248 599 CURVE",
"272 566 OFFCURVE",
"319 489 OFFCURVE",
"375 383 CURVE SMOOTH",
"416 305 OFFCURVE",
"474 227 OFFCURVE",
"474 159 CURVE SMOOTH",
"474 114 OFFCURVE",
"454 85 OFFCURVE",
"426 85 CURVE SMOOTH"
);
}
);
userData = {
com.schriftgestaltung.Glyphs.lastChange = "2019-04-13 10:04:08 +0000";
};
width = 615;
}
);
unicode = 0044;
},
{
color = 3;
glyphname = E;
lastChange = "2020-02-01 18:17:06 +0000";
layers = (
{
anchors = (
{
name = bottom;
position = "{343, 0}";
},
{
name = ogonek;
position = "{614, 10}";
},
{
name = top;
position = "{343, 700}";
},
{
name = topleft;
position = "{23, 700}";
}
);
layerId = "5FE47517-9953-4891-9518-AB2E2247E448";
paths = (
{
closed = 1;
nodes = (
"350 273 OFFCURVE",
"418 252 OFFCURVE",
"458 244 CURVE",
"509 270 OFFCURVE",
"562 303 OFFCURVE",
"645 350 CURVE",
"631 372 LINE",
"602 359 OFFCURVE",
"582 349 OFFCURVE",
"549 349 CURVE SMOOTH",
"443 349 OFFCURVE",
"385 372 OFFCURVE",
"344 377 CURVE",
"319 363 OFFCURVE",
"263 322 OFFCURVE",
"185 266 CURVE",
"178 291 OFFCURVE",
"174 319 OFFCURVE",
"174 350 CURVE SMOOTH",
"174 490 OFFCURVE",
"267 597 OFFCURVE",
"300 617 CURVE",
"317 617 OFFCURVE",
"392 577 OFFCURVE",
"421 557 CURVE",
"474 577 OFFCURVE",
"556 629 OFFCURVE",
"662 694 CURVE",
"642 722 LINE",
"590 687 OFFCURVE",
"540 663 OFFCURVE",
"513 663 CURVE SMOOTH",
"463 663 OFFCURVE",
"442 694 OFFCURVE",
"416 720 CURVE",
"404 720 OFFCURVE",
"299 668 OFFCURVE",
"198 594 CURVE SMOOTH",
"97 520 OFFCURVE",
"40 420 OFFCURVE",
"40 288 CURVE SMOOTH",
"40 107 OFFCURVE",
"201 0 OFFCURVE",
"323 -20 CURVE",
"355 -20 OFFCURVE",
"530 44 OFFCURVE",
"641 90 CURVE",
"626 121 LINE",
"574 100 OFFCURVE",
"509 72 OFFCURVE",
"453 72 CURVE SMOOTH",
"362 72 OFFCURVE",
"245 120 OFFCURVE",
"197 232 CURVE",
"233 271 OFFCURVE",
"259 273 OFFCURVE",
"293 273 CURVE SMOOTH"
);
}
);
userData = {
com.schriftgestaltung.Glyphs.lastChange = "2019-04-13 10:04:38 +0000";
};
width = 682;
}
);
leftMetricsKey = O;
unicode = 0045;
},
{
color = 3;
glyphname = F;
lastChange = "2020-02-01 18:17:23 +0000";
layers = (
{
anchors = (
{
name = bottom;
position = "{260, 0}";
},
{
name = top;
position = "{260, 700}";
}
);
layerId = "5FE47517-9953-4891-9518-AB2E2247E448";
paths = (
{
closed = 1;
nodes = (
"125 -208 OFFCURVE",
"182 -142 OFFCURVE",
"220 -93 CURVE",
"214 100 OFFCURVE",
"212 337 OFFCURVE",
"219 530 CURVE SMOOTH",
"220 557 OFFCURVE",
"223 585 OFFCURVE",
"248 607 CURVE",
"262 586 OFFCURVE",
"268 563 OFFCURVE",
"268 526 CURVE SMOOTH",
"268 303 OFFCURVE",
"261 91 OFFCURVE",
"260 -132 CURVE",
"268 -135 LINE",
"303 -45 LINE",
"303 281 LINE",
"438 281 LINE",
"446 378 LINE",
"305 378 LINE",
"303 591 LINE",
"332 608 OFFCURVE",
"375 624 OFFCURVE",
"403 624 CURVE SMOOTH",
"416 624 OFFCURVE",
"457 601 OFFCURVE",
"457 550 CURVE SMOOTH",
"457 531 OFFCURVE",
"452 518 OFFCURVE",
"433 507 CURVE",
"436 492 LINE",
"486 513 OFFCURVE",
"509 576 OFFCURVE",
"509 649 CURVE SMOOTH",
"509 692 OFFCURVE",
"497 723 OFFCURVE",
"486 723 CURVE SMOOTH",
"472 723 OFFCURVE",
"361 688 OFFCURVE",
"261 651 CURVE SMOOTH",
"181 622 OFFCURVE",
"107 596 OFFCURVE",
"39 560 CURVE",
"39 555 LINE",
"93 512 OFFCURVE",
"107 473 OFFCURVE",
"116 408 CURVE",
"35 390 LINE",
"35 385 LINE",
"87 351 OFFCURVE",
"114 316 OFFCURVE",
"124 239 CURVE",
"47 209 LINE",
"47 204 LINE",
"61 199 OFFCURVE",
"86 180 OFFCURVE",
"97 133 CURVE SMOOTH",
"110 80 OFFCURVE",
"115 16 OFFCURVE",
"113 -58 CURVE SMOOTH",
"112 -105 OFFCURVE",
"104 -181 OFFCURVE",
"47 -226 CURVE",
"73 -241 LINE"
);
}
);
userData = {
com.schriftgestaltung.Glyphs.lastChange = "2019-04-13 10:05:23 +0000";
};
width = 519;
}
);
unicode = 0046;
},
{
color = 3;
glyphname = G;
lastChange = "2020-01-30 17:01:19 +0000";
layers = (
{
anchors = (
{
name = bottom;
position = "{432, 0}";
},
{
name = top;
position = "{432, 700}";
}
);
layerId = "5FE47517-9953-4891-9518-AB2E2247E448";
paths = (
{
closed = 1;
nodes = (
"462 533 OFFCURVE",
"389 474 OFFCURVE",
"342 410 CURVE",
"344 641 LINE",
"375 643 OFFCURVE",
"414 599 OFFCURVE",
"455 589 CURVE",
"495 621 OFFCURVE",
"550 666 OFFCURVE",
"595 697 CURVE",
"577 711 LINE",
"564 706 OFFCURVE",
"544 698 OFFCURVE",
"535 698 CURVE SMOOTH",
"514 698 OFFCURVE",
"487 720 OFFCURVE",
"432 720 CURVE SMOOTH",
"357 720 OFFCURVE",
"235 668 OFFCURVE",
"67 607 CURVE",
"67 603 LINE",
"107 565 OFFCURVE",
"127 531 OFFCURVE",
"138 470 CURVE",
"58 450 LINE",
"58 445 LINE",
"117 409 OFFCURVE",
"131 349 OFFCURVE",
"137 283 CURVE",
"67 253 LINE",
"67 249 LINE",
"98 221 OFFCURVE",
"124 193 OFFCURVE",
"126 162 CURVE SMOOTH",
"127 143 OFFCURVE",
"123 116 OFFCURVE",
"118 85 CURVE SMOOTH",
"115 68 OFFCURVE",
"57 26 OFFCURVE",
"30 1 CURVE",
"48 -23 LINE",
"108 15 OFFCURVE",
"153 40 OFFCURVE",
"194 40 CURVE SMOOTH",
"284 40 OFFCURVE",
"372 -10 OFFCURVE",
"395 -19 CURVE",
"415 -16 OFFCURVE",
"558 32 OFFCURVE",
"658 69 CURVE",
"763 128 OFFCURVE",
"825 198 OFFCURVE",
"828 314 CURVE SMOOTH",
"831 476 OFFCURVE",
"694 591 OFFCURVE",
"506 558 CURVE"
);
},
{
closed = 1;
nodes = (
"265 193 OFFCURVE",
"267 379 OFFCURVE",
"267 585 CURVE SMOOTH",
"267 604 OFFCURVE",
"268 628 OFFCURVE",
"273 643 CURVE",
"311 618 LINE",
"312 457 OFFCURVE",
"310 297 OFFCURVE",
"307 136 CURVE",
"297 136 OFFCURVE",
"287 136 OFFCURVE",
"276 135 CURVE"
);
},
{
closed = 1;
nodes = (
"503 76 OFFCURVE",
"433 124 OFFCURVE",
"339 134 CURVE",
"341 360 LINE",
"392 418 OFFCURVE",
"447 460 OFFCURVE",
"524 460 CURVE SMOOTH",
"636 460 OFFCURVE",
"710 392 OFFCURVE",
"710 282 CURVE SMOOTH",
"710 170 OFFCURVE",
"625 111 OFFCURVE",
"542 76 CURVE"
);
}
);
userData = {
com.schriftgestaltung.Glyphs.lastChange = "2019-04-13 12:36:56 +0000";
};
width = 863;
}
);
leftMetricsKey = H;
rightMetricsKey = H;
unicode = 0047;
},
{
color = 3;
glyphname = H;
lastChange = "2020-01-30 17:01:19 +0000";
layers = (
{
anchors = (
{
name = bottom;
position = "{418, 0}";
},
{
name = center;
position = "{418, 350}";
},
{
name = top;
position = "{418, 700}";
},
{
name = topleft;
position = "{25, 700}";
}
);
layerId = "5FE47517-9953-4891-9518-AB2E2247E448";
paths = (
{
closed = 1;
nodes = (
"434 570 OFFCURVE",
"332 473 OFFCURVE",
"273 386 CURVE",
"278 704 LINE",
"247 705 LINE",
"241 704 LINE",
"243 105 LINE",
"226 109 OFFCURVE",
"212 112 OFFCURVE",
"207 115 CURVE",
"205 706 LINE",
"201 709 LINE",
"30 664 LINE",
"30 659 LINE",
"81 604 OFFCURVE",
"110 526 OFFCURVE",
"110 480 CURVE",
"33 430 LINE",
"33 427 LINE",
"75 386 OFFCURVE",
"93 352 OFFCURVE",
"95 311 CURVE",
"33 273 LINE",
"33 269 LINE",
"84 225 OFFCURVE",
"106 171 OFFCURVE",
"93 127 CURVE SMOOTH",
"87 106 OFFCURVE",
"71 64 OFFCURVE",
"62 41 CURVE",
"62 41 OFFCURVE",
"197 -2 OFFCURVE",
"220 -21 CURVE",
"233 -21 OFFCURVE",
"354 73 OFFCURVE",
"426 125 CURVE",
"412 146 LINE",
"351 113 OFFCURVE",
"324 98 OFFCURVE",
"302 98 CURVE SMOOTH",
"293 98 OFFCURVE",
"281 99 OFFCURVE",
"269 101 CURVE",
"272 328 LINE",
"333 404 OFFCURVE",
"407 448 OFFCURVE",
"500 448 CURVE SMOOTH",
"628 448 OFFCURVE",
"699 366 OFFCURVE",
"699 257 CURVE SMOOTH",
"699 168 OFFCURVE",
"647 115 OFFCURVE",
"610 87 CURVE",
"590 75 OFFCURVE",
"561 114 OFFCURVE",
"553 146 CURVE",
"543 147 LINE",
"523 126 OFFCURVE",
"477 88 OFFCURVE",
"464 71 CURVE",
"464 37 OFFCURVE",
"490 -1 OFFCURVE",
"534 -11 CURVE",
"671 60 OFFCURVE",
"790 184 OFFCURVE",
"790 320 CURVE SMOOTH",
"790 459 OFFCURVE",
"693 570 OFFCURVE",
"549 570 CURVE SMOOTH"
);
}
);
userData = {
com.schriftgestaltung.Glyphs.lastChange = "2019-04-13 10:14:48 +0000";
};
width = 825;
}
);
unicode = 0048;
},
{
color = 6;
glyphname = I;
lastChange = "2020-01-30 17:01:19 +0000";
layers = (
{
anchors = (
{
name = bottom;
position = "{224, 0}";
},
{
name = ogonek;
position = "{423, 10}";
},
{
name = top;
position = "{224, 700}";
},
{
name = topleft;
position = "{-5, 700}";
}
);
layerId = "5FE47517-9953-4891-9518-AB2E2247E448";
paths = (
{
closed = 1;
nodes = (
"57 -10 OFFCURVE",
"85 0 OFFCURVE",
"101 0 CURVE SMOOTH",
"129 0 OFFCURVE",
"161 -1 OFFCURVE",
"209 -9 CURVE",
"294 60 OFFCURVE",
"383 144 OFFCURVE",
"383 201 CURVE SMOOTH",
"383 263 OFFCURVE",
"372 658 OFFCURVE",
"395 708 CURVE",
"380 721 LINE",
"322 716 OFFCURVE",
"182 716 OFFCURVE",
"124 720 CURVE",
"27 567 LINE",
"48 551 LINE",
"85 587 OFFCURVE",
"126 618 OFFCURVE",
"179 616 CURVE SMOOTH",
"275 613 LINE",
"270 576 OFFCURVE",
"266 501 OFFCURVE",
"264 445 CURVE",
"187 399 LINE",
"192 391 LINE",
"257 360 OFFCURVE",
"260 310 OFFCURVE",
"260 256 CURVE SMOOTH",
"260 223 OFFCURVE",
"268 148 OFFCURVE",
"245 92 CURVE",
"205 97 OFFCURVE",
"143 105 OFFCURVE",
"109 105 CURVE",
"10 -10 LINE",
"31 -31 LINE"
);
}
);
userData = {
com.schriftgestaltung.Glyphs.lastChange = "2019-04-24 15:12:59 +0000";
};
width = 445;
}
);
unicode = 0049;
},
{
color = 3;
glyphname = J;
lastChange = "2020-01-30 17:01:19 +0000";
layers = (
{
layerId = "5FE47517-9953-4891-9518-AB2E2247E448";
paths = (
{
closed = 1;
nodes = (
"369 -178 OFFCURVE",
"461 -123 OFFCURVE",
"461 -54 CURVE SMOOTH",
"461 11 OFFCURVE",
"447 652 OFFCURVE",
"473 708 CURVE",
"458 725 LINE",
"400 710 OFFCURVE",
"190 720 OFFCURVE",
"132 720 CURVE",
"5 547 LINE",
"34 531 LINE",
"71 567 OFFCURVE",
"104 608 OFFCURVE",
"157 606 CURVE SMOOTH",
"353 600 LINE",
"335 475 OFFCURVE",
"336 145 OFFCURVE",
"338 59 CURVE SMOOTH",
"342 -96 OFFCURVE",
"322 -147 OFFCURVE",
"276 -221 CURVE",
"298 -240 LINE"
);
}
);
userData = {
com.schriftgestaltung.Glyphs.lastChange = "2019-01-30 09:36:07 +0000";
};
width = 523;
}
);
unicode = 004A;
},
{
color = 3;
glyphname = K;
lastChange = "2020-02-01 18:18:02 +0000";
layers = (
{
layerId = "5FE47517-9953-4891-9518-AB2E2247E448";
paths = (
{
closed = 1;
nodes = (
"505 292 OFFCURVE",
"484 368 OFFCURVE",
"394 434 CURVE",
"459 473 OFFCURVE",
"503 512 OFFCURVE",
"503 552 CURVE SMOOTH",
"503 603 OFFCURVE",
"436 665 OFFCURVE",
"374 685 CURVE",
"339 668 OFFCURVE",
"271 624 OFFCURVE",
"209 591 CURVE",
"213 613 OFFCURVE",
"225 634 OFFCURVE",
"234 652 CURVE",
"146 723 LINE",
"38 642 LINE",
"51 619 LINE",
"84 630 OFFCURVE",
"102 607 OFFCURVE",
"102 580 CURVE SMOOTH",
"102 543 OFFCURVE",
"103 498 OFFCURVE",
"101 467 CURVE",
"31 427 LINE",
"31 421 LINE",
"74 373 OFFCURVE",
"97 334 OFFCURVE",
"95 290 CURVE",
"30 250 LINE",
"30 246 LINE",
"95 216 OFFCURVE",
"97 176 OFFCURVE",
"97 126 CURVE SMOOTH",
"97 96 OFFCURVE",
"93 79 OFFCURVE",
"76 48 CURVE",
"213 -22 LINE",
"345 99 LINE",
"325 119 LINE",
"309 107 OFFCURVE",
"296 92 OFFCURVE",
"272 92 CURVE SMOOTH",
"252 92 OFFCURVE",
"237 104 OFFCURVE",
"209 129 CURVE",
"209 302 LINE",
"308 361 LINE",
"457 281 OFFCURVE",
"365 87 OFFCURVE",
"472 -18 CURVE",
"583 81 LINE",
"583 95 LINE",
"560 109 OFFCURVE",
"533 151 OFFCURVE",
"523 202 CURVE SMOOTH"
);
},
{
closed = 1;
nodes = (
"235 576 OFFCURVE",
"262 589 OFFCURVE",
"290 590 CURVE SMOOTH",
"320 592 OFFCURVE",
"369 558 OFFCURVE",
"369 503 CURVE SMOOTH",
"369 450 OFFCURVE",
"278 389 OFFCURVE",
"209 340 CURVE",
"208 555 LINE"
);
}
);
userData = {
com.schriftgestaltung.Glyphs.lastChange = "2019-04-13 11:06:35 +0000";
};
width = 593;
}
);
leftMetricsKey = H;
unicode = 004B;
},
{
color = 3;
glyphname = L;
lastChange = "2020-02-01 18:18:25 +0000";
layers = (
{
anchors = (
{
name = bottom;
position = "{272, 0}";
},
{
name = center;
position = "{272, 350}";
},
{
name = top;
position = "{272, 700}";
},
{
name = topright;
position = "{526, 700}";
}
);
layerId = "5FE47517-9953-4891-9518-AB2E2247E448";
paths = (
{
closed = 1;
nodes = (
"502 101 OFFCURVE",
"475 77 OFFCURVE",
"443 77 CURVE SMOOTH",
"400 77 OFFCURVE",
"330 130 OFFCURVE",
"280 130 CURVE SMOOTH",
"254 130 OFFCURVE",
"203 109 OFFCURVE",
"141 84 CURVE",
"177 122 OFFCURVE",
"205 157 OFFCURVE",
"250 228 CURVE SMOOTH",
"310 322 OFFCURVE",
"356 440 OFFCURVE",
"356 564 CURVE SMOOTH",
"356 627 OFFCURVE",
"349 668 OFFCURVE",
"330 700 CURVE",
"269 700 LINE",
"269 694 LINE",
"309 669 OFFCURVE",
"319 610 OFFCURVE",
"319 554 CURVE SMOOTH",
"319 486 OFFCURVE",
"304 419 OFFCURVE",
"275 358 CURVE",
"273 358 LINE",
"283 402 OFFCURVE",
"289 431 OFFCURVE",
"289 492 CURVE SMOOTH",
"289 606 OFFCURVE",
"240 697 OFFCURVE",
"160 712 CURVE",
"142 712 OFFCURVE",
"51 700 OFFCURVE",
"35 694 CURVE",
"35 682 LINE",
"152 635 OFFCURVE",
"198 520 OFFCURVE",
"191 410 CURVE",
"167 435 OFFCURVE",
"120 475 OFFCURVE",
"64 481 CURVE",
"61 478 LINE",
"146 407 OFFCURVE",
"166 323 OFFCURVE",
"166 312 CURVE SMOOTH",
"166 296 OFFCURVE",
"147 262 OFFCURVE",
"141 255 CURVE",
"124 276 OFFCURVE",
"99 298 OFFCURVE",
"36 298 CURVE",
"35 293 LINE",
"60 275 OFFCURVE",
"106 236 OFFCURVE",
"115 201 CURVE",
"94 104 OFFCURVE",
"73 48 OFFCURVE",
"30 -9 CURVE",
"42 -23 LINE",
"88 7 OFFCURVE",
"138 30 OFFCURVE",
"189 30 CURVE SMOOTH",
"278 30 OFFCURVE",
"333 -1 OFFCURVE",
"374 -19 CURVE",
"419 -19 OFFCURVE",
"482 44 OFFCURVE",
"536 90 CURVE",
"523 109 LINE"
);
}
);
userData = {
com.schriftgestaltung.Glyphs.lastChange = "2019-04-23 08:06:16 +0000";
};
width = 541;
}
);
leftMetricsKey = H;
unicode = 004C;
},
{
color = 3;
glyphname = M;
lastChange = "2020-02-01 18:15:58 +0000";
layers = (
{
anchors = (
{
name = bottom;
position = "{480, 0}";
},
{
name = top;
position = "{480, 700}";
}
);
layerId = "5FE47517-9953-4891-9518-AB2E2247E448";
paths = (
{
closed = 1;
nodes = (
"904 82 OFFCURVE",
"900 88 OFFCURVE",
"887 126 CURVE SMOOTH",
"824 312 OFFCURVE",
"763 528 OFFCURVE",
"710 714 CURVE",
"696 720 LINE",
"688 720 OFFCURVE",
"611 657 OFFCURVE",
"592 632 CURVE",
"600 617 OFFCURVE",
"608 598 OFFCURVE",
"617 577 CURVE",
"585 485 OFFCURVE",
"536 341 OFFCURVE",
"500 230 CURVE",
"448 393 OFFCURVE",
"394 560 OFFCURVE",
"357 709 CURVE",
"321 714 OFFCURVE",
"269 699 OFFCURVE",
"242 688 CURVE",
"254 658 OFFCURVE",
"265 626 OFFCURVE",
"276 594 CURVE",
"122 115 LINE SMOOTH",
"113 87 OFFCURVE",
"113 87 OFFCURVE",
"39 118 CURVE",
"28 91 OFFCURVE",
"5 40 OFFCURVE",
"5 22 CURVE",
"28 4 OFFCURVE",
"82 -13 OFFCURVE",
"116 -5 CURVE",
"140 40 OFFCURVE",
"241 347 OFFCURVE",
"300 522 CURVE",
"349 368 OFFCURVE",
"395 195 OFFCURVE",
"441 40 CURVE SMOOTH",
"449 13 OFFCURVE",
"480 -20 OFFCURVE",
"504 -20 CURVE",
"545 10 OFFCURVE",
"601 57 OFFCURVE",
"644 89 CURVE",
"637 112 LINE",
"581 85 OFFCURVE",
"552 68 OFFCURVE",
"542 100 CURVE SMOOTH",
"535 123 OFFCURVE",
"527 147 OFFCURVE",
"519 170 CURVE",
"639 520 LINE",
"700 356 OFFCURVE",
"769 113 OFFCURVE",
"793 39 CURVE SMOOTH",
"803 8 OFFCURVE",
"847 -20 OFFCURVE",
"865 -20 CURVE",
"893 7 OFFCURVE",
"923 38 OFFCURVE",
"959 63 CURVE",
"957 89 LINE"
);
}
);
userData = {
com.schriftgestaltung.Glyphs.lastChange = "2019-04-23 08:06:43 +0000";
};
width = 964;
}
);
unicode = 004D;
},
{
color = 3;
glyphname = M.ss01;
lastChange = "2020-02-01 18:18:34 +0000";
layers = (
{
anchors = (
{
name = bottom;
position = "{456, 0}";
},
{
name = top;
position = "{456, 700}";
}
);
layerId = "5FE47517-9953-4891-9518-AB2E2247E448";
paths = (
{
closed = 1;
nodes = (
"579 681 OFFCURVE",
"511 597 OFFCURVE",
"465 555 CURVE",
"421 633 OFFCURVE",
"362 689 OFFCURVE",
"334 717 CURVE",
"314 717 OFFCURVE",
"121 582 OFFCURVE",
"108 563 CURVE SMOOTH",
"81 518 OFFCURVE",
"40 432 OFFCURVE",
"40 334 CURVE SMOOTH",
"40 146 OFFCURVE",
"147 42 OFFCURVE",
"228 -22 CURVE",
"308 25 OFFCURVE",
"396 93 OFFCURVE",
"431 126 CURVE",
"466 174 OFFCURVE",
"519 261 OFFCURVE",
"519 357 CURVE SMOOTH",
"519 416 OFFCURVE",
"505 469 OFFCURVE",
"484 516 CURVE",
"521 562 OFFCURVE",
"555 590 OFFCURVE",
"594 620 CURVE",
"672 548 OFFCURVE",
"719 452 OFFCURVE",
"719 314 CURVE SMOOTH",
"719 116 OFFCURVE",
"598 -34 OFFCURVE",
"557 -34 CURVE SMOOTH",
"536 -34 OFFCURVE",
"505 -15 OFFCURVE",
"492 -6 CURVE",
"475 -26 OFFCURVE",
"423 -76 OFFCURVE",
"376 -127 CURVE",
"383 -138 LINE",
"507 -138 OFFCURVE",
"583 -81 OFFCURVE",
"681 19 CURVE SMOOTH",
"784 124 OFFCURVE",
"838 213 OFFCURVE",
"838 335 CURVE SMOOTH",
"838 510 OFFCURVE",
"768 633 OFFCURVE",
"642 726 CURVE"
);
},
{
closed = 1;
nodes = (
"243 98 OFFCURVE",
"157 225 OFFCURVE",
"157 359 CURVE SMOOTH",
"157 491 OFFCURVE",
"219 576 OFFCURVE",
"264 613 CURVE",
"323 565 OFFCURVE",
"398 483 OFFCURVE",
"398 330 CURVE SMOOTH",
"398 222 OFFCURVE",
"335 122 OFFCURVE",
"292 75 CURVE"
);
}
);
userData = {
com.schriftgestaltung.Glyphs.lastChange = "2019-04-23 08:06:40 +0000";
};
width = 878;
}
);
leftMetricsKey = O;
rightMetricsKey = O;
},
{
color = 3;
glyphname = N;
lastChange = "2020-01-30 17:01:19 +0000";
layers = (
{
anchors = (
{
name = bottom;
position = "{377, 0}";
},
{
name = top;
position = "{377, 700}";
}
);
layerId = "5FE47517-9953-4891-9518-AB2E2247E448";
paths = (
{
closed = 1;
nodes = (
"688 95 OFFCURVE",
"651 86 OFFCURVE",
"630 86 CURVE SMOOTH",
"580 86 OFFCURVE",
"529 136 OFFCURVE",
"502 169 CURVE",
"565 269 OFFCURVE",
"701 394 OFFCURVE",
"701 512 CURVE SMOOTH",
"701 611 OFFCURVE",
"603 722 OFFCURVE",
"481 722 CURVE SMOOTH",
"452 722 OFFCURVE",
"252 620 OFFCURVE",
"61 575 CURVE",
"71 375 OFFCURVE",
"80 148 OFFCURVE",
"78 -22 CURVE SMOOTH",
"77 -100 OFFCURVE",
"71 -142 OFFCURVE",
"30 -224 CURVE",
"50 -239 LINE",
"102 -194 OFFCURVE",
"156 -114 OFFCURVE",
"180 -76 CURVE",
"195 66 OFFCURVE",
"196 308 OFFCURVE",
"196 543 CURVE",
"209 552 OFFCURVE",
"220 564 OFFCURVE",
"234 576 CURVE",
"241 416 OFFCURVE",
"246 148 OFFCURVE",
"214 -60 CURVE",
"222 -61 LINE",
"257 -19 LINE",
"285 189 OFFCURVE",
"277 451 OFFCURVE",
"278 610 CURVE",
"303 625 OFFCURVE",
"336 636 OFFCURVE",
"381 636 CURVE SMOOTH",
"472 636 OFFCURVE",
"572 580 OFFCURVE",
"572 453 CURVE SMOOTH",
"572 365 OFFCURVE",
"519 254 OFFCURVE",
"455 176 CURVE SMOOTH",
"437 153 OFFCURVE",
"409 135 OFFCURVE",
"378 109 CURVE",
"425 67 OFFCURVE",
"476 18 OFFCURVE",
"524 -21 CURVE",
"540 -21 OFFCURVE",
"665 47 OFFCURVE",
"723 89 CURVE",
"719 112 LINE"
);
}
);
userData = {
com.schriftgestaltung.Glyphs.lastChange = "2019-04-13 17:48:54 +0000";
};
width = 758;
}
);
leftMetricsKey = H;
rightMetricsKey = H;
unicode = 004E;
},
{
color = 3;
glyphname = O;
lastChange = "2020-02-01 18:15:45 +0000";
layers = (
{
anchors = (
{
name = bottom;
position = "{402, 0}";
},
{
name = center;
position = "{402, 350}";
},
{
name = ogonek;
position = "{723, 10}";
},
{
name = top;
position = "{402, 700}";
},
{
name = topleft;
position = "{21, 700}";
},
{
name = topright;
position = "{783, 700}";
}
);
layerId = "5FE47517-9953-4891-9518-AB2E2247E448";
paths = (
{
closed = 1;
nodes = (
"443 -9 OFFCURVE",
"778 151 OFFCURVE",
"778 390 CURVE SMOOTH",
"778 542 OFFCURVE",
"677 674 OFFCURVE",
"502 721 CURVE",
"343 700 OFFCURVE",
"205 622 OFFCURVE",
"125 567 CURVE",
"63 511 OFFCURVE",
"41 431 OFFCURVE",
"40 352 CURVE SMOOTH",
"37 146 OFFCURVE",
"178 8 OFFCURVE",
"378 -19 CURVE"
);
},
{
closed = 1;
nodes = (
"271 72 OFFCURVE",
"163 192 OFFCURVE",
"163 344 CURVE SMOOTH",
"163 488 OFFCURVE",
"247 643 OFFCURVE",
"414 643 CURVE SMOOTH",
"542 643 OFFCURVE",
"656 526 OFFCURVE",
"656 369 CURVE SMOOTH",
"656 190 OFFCURVE",
"542 72 OFFCURVE",
"412 72 CURVE SMOOTH"
);
}
);
userData = {
com.schriftgestaltung.Glyphs.lastChange = "2019-04-13 09:29:40 +0000";
};
width = 818;
}
);
unicode = 004F;
},
{
color = 3;
glyphname = P;
lastChange = "2020-02-01 18:18:52 +0000";
layers = (
{
anchors = (
{
name = bottom;
position = "{428, 0}";
},
{
name = top;
position = "{428, 700}";
}
);
layerId = "5FE47517-9953-4891-9518-AB2E2247E448";
paths = (
{
closed = 1;
nodes = (
"394 682 OFFCURVE",
"302 635 OFFCURVE",
"239 600 CURVE",
"241 634 OFFCURVE",
"248 676 OFFCURVE",
"250 715 CURVE",
"228 723 LINE",
"171 688 OFFCURVE",
"112 666 OFFCURVE",
"30 628 CURVE",
"37 603 LINE",
"93 601 OFFCURVE",
"103 551 OFFCURVE",
"104 496 CURVE SMOOTH",
"108 251 OFFCURVE",
"107 25 OFFCURVE",
"99 -221 CURVE",
"247 -221 LINE",
"244 -138 OFFCURVE",
"242 -45 OFFCURVE",
"241 51 CURVE",
"263 62 OFFCURVE",
"286 68 OFFCURVE",
"306 65 CURVE SMOOTH",
"359 60 OFFCURVE",
"401 18 OFFCURVE",
"434 -11 CURVE",
"525 23 OFFCURVE",
"653 84 OFFCURVE",
"731 118 CURVE",
"795 180 OFFCURVE",
"885 266 OFFCURVE",
"885 393 CURVE SMOOTH",
"885 616 OFFCURVE",
"688 723 OFFCURVE",
"467 723 CURVE"
);
},
{
closed = 1;
nodes = (
"502 94 OFFCURVE",
"418 141 OFFCURVE",
"369 141 CURVE SMOOTH",
"364 141 OFFCURVE",
"354 138 OFFCURVE",
"342 133 CURVE",
"344 276 OFFCURVE",
"349 475 OFFCURVE",
"351 607 CURVE",
"394 620 OFFCURVE",
"428 624 OFFCURVE",
"457 624 CURVE SMOOTH",
"588 624 OFFCURVE",
"761 544 OFFCURVE",
"761 353 CURVE SMOOTH",
"761 213 OFFCURVE",
"688 127 OFFCURVE",
"533 77 CURVE"
);
},
{
closed = 1;
nodes = (
"238 239 OFFCURVE",
"236 403 OFFCURVE",
"237 557 CURVE",
"262 571 OFFCURVE",
"286 582 OFFCURVE",
"307 591 CURVE",
"311 484 OFFCURVE",
"302 317 OFFCURVE",
"299 176 CURVE",
"324 125 LINE",
"299 114 OFFCURVE",
"268 98 OFFCURVE",
"240 85 CURVE"
);
}
);
userData = {
com.schriftgestaltung.Glyphs.lastChange = "2019-04-13 17:48:45 +0000";
};
width = 925;
}
);
leftMetricsKey = H;
rightMetricsKey = O;
unicode = 0050;
},
{
color = 3;
glyphname = P.ss01;
lastChange = "2020-02-01 18:19:10 +0000";
layers = (
{
anchors = (
{
name = bottom;
position = "{318, 0}";
},
{
name = top;
position = "{318, 700}";
}
);
layerId = "5FE47517-9953-4891-9518-AB2E2247E448";
paths = (
{
closed = 1;
nodes = (
"133 -209 OFFCURVE",
"211 -179 OFFCURVE",
"291 -155 CURVE",
"289 -122 LINE",
"275 -126 OFFCURVE",
"261 -127 OFFCURVE",
"243 -131 CURVE",
"243 22 LINE",
"302 42 OFFCURVE",
"396 -12 OFFCURVE",
"438 -12 CURVE SMOOTH",
"454 -12 OFFCURVE",
"624 145 OFFCURVE",
"624 211 CURVE SMOOTH",
"624 302 OFFCURVE",
"319 536 OFFCURVE",
"368 702 CURVE",
"348 708 LINE",
"267 633 OFFCURVE",
"140 536 OFFCURVE",
"20 459 CURVE",
"31 428 LINE",
"115 476 LINE",
"124 445 OFFCURVE",
"127 401 OFFCURVE",
"127 352 CURVE SMOOTH",
"128 61 LINE",
"116 45 OFFCURVE",
"92 16 OFFCURVE",
"71 -15 CURVE",
"76 -36 LINE",
"127 5 LINE",
"127 -42 OFFCURVE",
"122 -95 OFFCURVE",
"121 -121 CURVE SMOOTH",
"119 -173 OFFCURVE",
"124 -171 OFFCURVE",
"73 -210 CURVE",
"78 -241 LINE"
);
},
{
closed = 1;
nodes = (
"439 85 OFFCURVE",
"355 119 OFFCURVE",
"279 138 CURVE",
"267 138 OFFCURVE",
"255 132 OFFCURVE",
"247 129 CURVE",
"247 492 LINE SMOOTH",
"247 536 OFFCURVE",
"255 562 OFFCURVE",
"265 581 CURVE",
"302 503 OFFCURVE",
"361 400 OFFCURVE",
"411 330 CURVE SMOOTH",
"468 251 OFFCURVE",
"528 199 OFFCURVE",
"528 157 CURVE SMOOTH",
"528 122 OFFCURVE",
"507 99 OFFCURVE",
"494 91 CURVE"
);
}
);
userData = {
com.schriftgestaltung.Glyphs.lastChange = "2019-04-23 08:06:35 +0000";
};
width = 664;
}
);
rightMetricsKey = O;
},
{
color = 3;
glyphname = Q;
lastChange = "2020-02-01 18:19:41 +0000";
layers = (
{
anchors = (
{
name = bottom;
position = "{444, 0}";
},
{
name = top;
position = "{444, 700}";
}
);
layerId = "5FE47517-9953-4891-9518-AB2E2247E448";
paths = (
{
closed = 1;
nodes = (
"443 52 OFFCURVE",
"503 104 OFFCURVE",
"567 166 CURVE",
"545 184 LINE",
"482 129 OFFCURVE",
"427 102 OFFCURVE",
"379 102 CURVE SMOOTH",
"244 102 OFFCURVE",
"171 217 OFFCURVE",
"171 336 CURVE SMOOTH",
"171 513 OFFCURVE",
"316 630 OFFCURVE",
"416 630 CURVE SMOOTH",
"580 630 OFFCURVE",
"710 537 OFFCURVE",
"710 384 CURVE SMOOTH",
"710 228 OFFCURVE",
"628 150 OFFCURVE",
"574 74 CURVE",
"630 34 OFFCURVE",
"704 -20 OFFCURVE",
"715 -20 CURVE SMOOTH",
"724 -20 OFFCURVE",
"820 70 OFFCURVE",
"881 111 CURVE",
"866 135 LINE",
"839 121 OFFCURVE",
"785 94 OFFCURVE",
"778 94 CURVE SMOOTH",
"767 94 OFFCURVE",
"708 131 OFFCURVE",
"685 156 CURVE",
"708 191 OFFCURVE",
"842 284 OFFCURVE",
"847 430 CURVE SMOOTH",
"853 600 OFFCURVE",
"732 680 OFFCURVE",
"614 720 CURVE",
"314 720 OFFCURVE",
"40 553 OFFCURVE",
"40 300 CURVE SMOOTH",
"40 105 OFFCURVE",
"166 -20 OFFCURVE",
"369 -20 CURVE"
);
}
);
userData = {
com.schriftgestaltung.Glyphs.lastChange = "2019-04-23 08:06:32 +0000";
};
width = 896;
}
);
leftMetricsKey = O;
unicode = 0051;
},
{
color = 3;
glyphname = Q.ss01;
lastChange = "2020-02-01 18:19:59 +0000";
layers = (
{
anchors = (
{
name = bottom;
position = "{446, 0}";
},
{
name = top;
position = "{446, 700}";
}
);
layerId = "5FE47517-9953-4891-9518-AB2E2247E448";
paths = (
{
closed = 1;
nodes = (
"778 99 OFFCURVE",
"760 102 OFFCURVE",
"736 115 CURVE SMOOTH",
"642 165 LINE",
"672 204 OFFCURVE",
"784 309 OFFCURVE",
"789 430 CURVE SMOOTH",
"796 600 OFFCURVE",
"694 715 OFFCURVE",
"486 715 CURVE SMOOTH",
"338 715 OFFCURVE",
"40 546 OFFCURVE",
"40 290 CURVE SMOOTH",
"40 115 OFFCURVE",
"184 -8 OFFCURVE",
"341 -18 CURVE",
"398 13 OFFCURVE",
"473 69 OFFCURVE",
"517 110 CURVE",
"639 31 OFFCURVE",
"697 -20 OFFCURVE",
"705 -20 CURVE SMOOTH",
"714 -20 OFFCURVE",
"760 41 OFFCURVE",
"821 82 CURVE",
"806 106 LINE"
);
},
{
closed = 1;
nodes = (
"234 119 OFFCURVE",
"162 248 OFFCURVE",
"162 367 CURVE SMOOTH",
"162 544 OFFCURVE",
"297 617 OFFCURVE",
"407 617 CURVE SMOOTH",
"581 617 OFFCURVE",
"673 492 OFFCURVE",
"673 388 CURVE SMOOTH",
"673 302 OFFCURVE",
"643 234 OFFCURVE",
"605 185 CURVE",
"548 215 LINE",
"500 158 OFFCURVE",
"437 119 OFFCURVE",
"369 119 CURVE SMOOTH"
);
}
);
userData = {
com.schriftgestaltung.Glyphs.lastChange = "2019-04-23 08:06:29 +0000";
};
width = 846;
}
);
leftMetricsKey = O;
},
{
color = 3;
glyphname = Q.ss02;
lastChange = "2020-02-01 18:20:11 +0000";
layers = (
{
anchors = (
{
name = bottom;
position = "{359, 0}";
},
{
name = top;
position = "{359, 700}";
}
);
layerId = "5FE47517-9953-4891-9518-AB2E2247E448";
paths = (
{
closed = 1;
nodes = (
"617 26 OFFCURVE",
"651 67 OFFCURVE",
"687 122 CURVE",
"668 132 LINE",
"653 111 OFFCURVE",
"647 96 OFFCURVE",
"622 96 CURVE SMOOTH",
"573 96 OFFCURVE",
"571 182 OFFCURVE",
"544 244 CURVE SMOOTH",
"527 282 OFFCURVE",
"482 313 OFFCURVE",
"444 347 CURVE",
"470 383 OFFCURVE",
"496 409 OFFCURVE",
"523 459 CURVE",
"543 627 OFFCURVE",
"463 736 OFFCURVE",
"277 713 CURVE SMOOTH",
"243 709 OFFCURVE",
"102 600 OFFCURVE",
"60 546 CURVE",
"42 496 OFFCURVE",
"40 450 OFFCURVE",
"40 408 CURVE SMOOTH",
"40 266 OFFCURVE",
"148 176 OFFCURVE",
"255 153 CURVE",
"290 190 OFFCURVE",
"319 222 OFFCURVE",
"363 267 CURVE",
"409 237 OFFCURVE",
"434 207 OFFCURVE",
"446 171 CURVE SMOOTH",
"494 26 OFFCURVE",
"503 -10 OFFCURVE",
"589 -18 CURVE"
);
},
{
closed = 1;
nodes = (
"222 296 OFFCURVE",
"146 343 OFFCURVE",
"146 459 CURVE SMOOTH",
"146 530 OFFCURVE",
"166 604 OFFCURVE",
"242 640 CURVE",
"340 640 OFFCURVE",
"429 574 OFFCURVE",
"429 458 CURVE SMOOTH",
"429 353 OFFCURVE",
"357 291 OFFCURVE",
"311 273 CURVE"
);
}
);
userData = {
com.schriftgestaltung.Glyphs.lastChange = "2019-04-13 10:28:57 +0000";
};
width = 697;
}
);
},
{
color = 3;
glyphname = Q.ss03;
lastChange = "2020-02-01 18:20:24 +0000";
layers = (
{
anchors = (
{
name = bottom;
position = "{580, 0}";
},
{
name = top;
position = "{580, 700}";
}
);
layerId = "5FE47517-9953-4891-9518-AB2E2247E448";
paths = (
{
closed = 1;
nodes = (
"925 -20 OFFCURVE",
"1056 71 OFFCURVE",
"1143 138 CURVE",
"1125 160 LINE",
"1062 123 OFFCURVE",
"1030 106 OFFCURVE",
"994 106 CURVE SMOOTH",
"910 106 OFFCURVE",
"726 364 OFFCURVE",
"525 364 CURVE SMOOTH",
"464 364 OFFCURVE",
"420 361 OFFCURVE",
"390 357 CURVE",
"422 424 OFFCURVE",
"477 503 OFFCURVE",
"480 561 CURVE SMOOTH",
"485 651 OFFCURVE",
"408 714 OFFCURVE",
"332 714 CURVE SMOOTH",
"281 714 OFFCURVE",
"255 704 OFFCURVE",
"225 685 CURVE",
"72 542 LINE",
"51 517 OFFCURVE",
"40 482 OFFCURVE",
"40 440 CURVE SMOOTH",
"40 330 OFFCURVE",
"120 276 OFFCURVE",
"212 256 CURVE",
"234 267 OFFCURVE",
"297 344 OFFCURVE",
"328 378 CURVE",
"312 390 LINE",
"295 381 OFFCURVE",
"277 369 OFFCURVE",
"260 369 CURVE SMOOTH",
"170 369 OFFCURVE",
"144 441 OFFCURVE",
"144 498 CURVE SMOOTH",
"144 566 OFFCURVE",
"195 610 OFFCURVE",
"248 610 CURVE SMOOTH",
"336 610 OFFCURVE",
"380 542 OFFCURVE",
"380 468 CURVE SMOOTH",
"380 387 OFFCURVE",
"334 329 OFFCURVE",
"286 252 CURVE",
"294 237 LINE",
"328 245 OFFCURVE",
"381 255 OFFCURVE",
"449 255 CURVE SMOOTH",
"648 255 OFFCURVE",
"738 62 OFFCURVE",
"909 -20 CURVE"
);
}
);
userData = {
com.schriftgestaltung.Glyphs.lastChange = "2019-04-13 10:29:43 +0000";
};
width = 1153;
}
);
},
{
color = 3;
glyphname = R;
lastChange = "2020-02-01 18:20:38 +0000";
layers = (
{
anchors = (
{
name = bottom;
position = "{316, 0}";
},
{
name = top;
position = "{316, 700}";
}
);
layerId = "5FE47517-9953-4891-9518-AB2E2247E448";
paths = (
{
closed = 1;
nodes = (
"187 10 LINE",
"188 370 LINE SMOOTH",
"188 391 OFFCURVE",
"216 395 OFFCURVE",
"236 395 CURVE SMOOTH",
"365 395 OFFCURVE",
"432 184 OFFCURVE",
"443 -9 CURVE",
"456 -10 LINE",
"566 67 LINE",
"529 277 OFFCURVE",
"494 421 OFFCURVE",
"322 473 CURVE",
"413 537 OFFCURVE",
"457 546 OFFCURVE",
"457 612 CURVE SMOOTH",
"457 688 OFFCURVE",
"391 720 OFFCURVE",
"321 719 CURVE SMOOTH",
"247 718 OFFCURVE",
"166 670 OFFCURVE",
"81 601 CURVE",
"70 -10 LINE"
);
},
{
closed = 1;
nodes = (
"188 619 LINE",
"204 633 OFFCURVE",
"232 648 OFFCURVE",
"260 648 CURVE SMOOTH",
"304 648 OFFCURVE",
"334 622 OFFCURVE",
"334 580 CURVE SMOOTH",
"334 520 OFFCURVE",
"277 481 OFFCURVE",
"242 460 CURVE SMOOTH",
"187 426 LINE"
);
}
);
userData = {
com.schriftgestaltung.Glyphs.lastChange = "2019-04-24 15:12:59 +0000";
};
width = 596;
}
);
unicode = 0052;
},
{
color = 3;
glyphname = S;
lastChange = "2020-02-01 18:20:55 +0000";
layers = (
{
anchors = (
{
name = bottom;
position = "{514, 0}";
},
{
name = top;
position = "{514, 700}";
}
);
layerId = "5FE47517-9953-4891-9518-AB2E2247E448";
paths = (
{
closed = 1;
nodes = (
"646 461 OFFCURVE",
"616 459 OFFCURVE",
"589 457 CURVE",
"649 510 OFFCURVE",
"706 545 OFFCURVE",
"709 615 CURVE SMOOTH",
"710 640 OFFCURVE",
"696 701 OFFCURVE",
"653 721 CURVE",
"584 721 OFFCURVE",
"485 718 OFFCURVE",
"450 697 CURVE SMOOTH",
"369 649 OFFCURVE",
"294 579 OFFCURVE",
"294 484 CURVE SMOOTH",
"294 390 OFFCURVE",
"369 333 OFFCURVE",
"471 333 CURVE SMOOTH",
"534 333 OFFCURVE",
"615 335 OFFCURVE",
"672 335 CURVE SMOOTH",
"773 335 OFFCURVE",
"870 291 OFFCURVE",
"870 194 CURVE SMOOTH",
"870 134 OFFCURVE",
"832 86 OFFCURVE",
"777 65 CURVE",
"716 62 OFFCURVE",
"493 182 OFFCURVE",
"399 182 CURVE SMOOTH",
"312 182 OFFCURVE",
"143 54 OFFCURVE",
"10 -25 CURVE",
"30 -55 LINE",
"157 20 OFFCURVE",
"226 68 OFFCURVE",
"332 68 CURVE SMOOTH",
"477 68 OFFCURVE",
"621 -10 OFFCURVE",
"689 -20 CURVE",
"718 -10 OFFCURVE",
"957 83 OFFCURVE",
"957 227 CURVE SMOOTH",
"957 375 OFFCURVE",
"849 461 OFFCURVE",
"693 461 CURVE SMOOTH"
);
},
{
closed = 1;
nodes = (
"404 614 OFFCURVE",
"439 644 OFFCURVE",
"457 654 CURVE",
"548 664 OFFCURVE",
"595 624 OFFCURVE",
"595 565 CURVE SMOOTH",
"595 535 OFFCURVE",
"584 492 OFFCURVE",
"536 455 CURVE",
"525 455 LINE SMOOTH",
"441 455 OFFCURVE",
"400 501 OFFCURVE",
"402 559 CURVE SMOOTH"
);
}
);
userData = {
com.schriftgestaltung.Glyphs.lastChange = "2019-04-23 08:07:09 +0000";
};
width = 997;
}
);
unicode = 0053;
},
{
color = 3;
glyphname = S.ss01;
lastChange = "2020-02-01 18:21:04 +0000";
layers = (
{
anchors = (
{
name = bottom;
position = "{436, 0}";
},
{
name = top;
position = "{436, 700}";
}
);
layerId = "5FE47517-9953-4891-9518-AB2E2247E448";
paths = (
{
closed = 1;
nodes = (
"382 19 OFFCURVE",
"434 59 OFFCURVE",
"459 59 CURVE SMOOTH",
"489 59 OFFCURVE",
"527 38 OFFCURVE",
"567 -20 CURVE",
"651 33 OFFCURVE",
"706 60 OFFCURVE",
"773 100 CURVE SMOOTH",
"832 135 OFFCURVE",
"849 196 OFFCURVE",
"849 249 CURVE SMOOTH",
"849 384 OFFCURVE",
"726 472 OFFCURVE",
"605 472 CURVE SMOOTH",
"475 472 OFFCURVE",
"369 394 OFFCURVE",
"269 394 CURVE SMOOTH",
"167 394 OFFCURVE",
"93 491 OFFCURVE",
"143 576 CURVE",
"185 567 OFFCURVE",
"237 555 OFFCURVE",
"290 555 CURVE SMOOTH",
"330 555 OFFCURVE",
"397 639 OFFCURVE",
"449 698 CURVE",
"427 720 LINE",
"381 690 OFFCURVE",
"341 672 OFFCURVE",
"311 672 CURVE SMOOTH",
"266 672 OFFCURVE",
"233 711 OFFCURVE",
"217 721 CURVE",
"199 721 OFFCURVE",
"32 527 OFFCURVE",
"25 462 CURVE SMOOTH",
"19 410 OFFCURVE",
"66 276 OFFCURVE",
"250 276 CURVE SMOOTH",
"363 276 OFFCURVE",
"463 342 OFFCURVE",
"567 342 CURVE SMOOTH",
"668 342 OFFCURVE",
"734 281 OFFCURVE",
"734 208 CURVE SMOOTH",
"734 160 OFFCURVE",
"715 108 OFFCURVE",
"670 82 CURVE",
"635 126 OFFCURVE",
"600 179 OFFCURVE",
"550 179 CURVE SMOOTH",
"480 179 OFFCURVE",
"372 61 OFFCURVE",
"270 -31 CURVE",
"292 -57 LINE"
);
}
);
userData = {
com.schriftgestaltung.Glyphs.lastChange = "2019-04-23 08:07:06 +0000";
};
width = 874;
}
);
},
{
color = 3;
glyphname = T;
lastChange = "2020-02-01 18:21:12 +0000";
layers = (
{
anchors = (
{
name = bottom;
position = "{355, 0}";
},
{
name = center;
position = "{355, 350}";
},
{
name = top;
position = "{355, 700}";
}
);
layerId = "5FE47517-9953-4891-9518-AB2E2247E448";
paths = (
{
closed = 1;
nodes = (
"477 10 OFFCURVE",
"620 99 OFFCURVE",
"650 117 CURVE",
"633 141 LINE",
"588 124 OFFCURVE",
"540 102 OFFCURVE",
"480 102 CURVE SMOOTH",
"341 102 OFFCURVE",
"255 190 OFFCURVE",
"255 314 CURVE SMOOTH",
"255 463 OFFCURVE",
"417 599 OFFCURVE",
"536 596 CURVE SMOOTH",
"574 595 OFFCURVE",
"623 596 OFFCURVE",
"661 604 CURVE",
"704 705 LINE",
"688 716 LINE",
"675 702 OFFCURVE",
"585 702 OFFCURVE",
"524 702 CURVE SMOOTH",
"443 702 OFFCURVE",
"336 710 OFFCURVE",
"262 710 CURVE",
"178 681 OFFCURVE",
"109 633 OFFCURVE",
"40 564 CURVE",
"62 550 LINE",
"183 624 OFFCURVE",
"286 626 OFFCURVE",
"421 604 CURVE",
"306 556 OFFCURVE",
"106 449 OFFCURVE",
"106 267 CURVE SMOOTH",
"106 106 OFFCURVE",
"199 11 OFFCURVE",
"384 -20 CURVE"
);
}
);
userData = {
com.schriftgestaltung.Glyphs.lastChange = "2019-04-23 08:07:03 +0000";
};
width = 719;
}
);
unicode = 0054;
},
{
color = 6;
glyphname = U;
lastChange = "2020-02-01 18:21:32 +0000";
layers = (
{
layerId = "5FE47517-9953-4891-9518-AB2E2247E448";
paths = (
{
closed = 0;
nodes = (
"680 125 LINE"
);
},
{
closed = 1;
nodes = (
"794 127 LINE",
"716 109 OFFCURVE",
"677 164 OFFCURVE",
"675 252 CURVE SMOOTH",
"672 381 OFFCURVE",
"662 586 OFFCURVE",
"727 706 CURVE",
"716 728 LINE",
"560 659 LINE",
"561 163 LINE",
"548 155 OFFCURVE",
"532 146 OFFCURVE",
"514 136 CURVE",
"516 339 OFFCURVE",
"520 440 OFFCURVE",
"526 651 CURVE",
"478 633 LINE",
"476 115 LINE",
"433 93 OFFCURVE",
"389 73 OFFCURVE",
"365 73 CURVE SMOOTH",
"305 73 OFFCURVE",
"181 102 OFFCURVE",
"181 249 CURVE SMOOTH",
"181 337 OFFCURVE",
"264 480 OFFCURVE",
"305 532 CURVE SMOOTH",
"323 555 OFFCURVE",
"375 588 OFFCURVE",
"375 592 CURVE SMOOTH",
"375 601 OFFCURVE",
"233 723 OFFCURVE",
"223 723 CURVE SMOOTH",
"207 723 OFFCURVE",
"88 640 OFFCURVE",
"40 598 CURVE",
"54 578 LINE",
"54 578 OFFCURVE",
"112 604 OFFCURVE",
"133 604 CURVE SMOOTH",
"165 604 OFFCURVE",
"224 566 OFFCURVE",
"251 533 CURVE",
"148 413 OFFCURVE",
"44 288 OFFCURVE",
"44 190 CURVE SMOOTH",
"44 71 OFFCURVE",
"161 -20 OFFCURVE",
"283 -20 CURVE",
"568 123 LINE",
"662 -19 LINE",
"797 92 LINE"
);
}
);
userData = {
com.schriftgestaltung.Glyphs.lastChange = "2019-04-23 08:07:00 +0000";
};
width = 807;
}
);
unicode = 0055;
},
{
color = 3;
glyphname = V;
lastChange = "2020-02-01 18:21:40 +0000";
layers = (
{
anchors = (
{
name = bottom;
position = "{455, 0}";
},
{
name = top;
position = "{455, 700}";
}
);
layerId = "5FE47517-9953-4891-9518-AB2E2247E448";
paths = (
{
closed = 1;
nodes = (
"853 712 OFFCURVE",
"788 702 OFFCURVE",
"738 702 CURVE SMOOTH",
"676 702 OFFCURVE",
"627 711 OFFCURVE",
"582 720 CURVE",
"562 681 OFFCURVE",
"499 618 OFFCURVE",
"479 582 CURVE",
"491 572 OFFCURVE",
"524 538 OFFCURVE",
"566 538 CURVE",
"577 553 LINE",
"562 572 OFFCURVE",
"549 596 OFFCURVE",
"551 619 CURVE",
"594 639 OFFCURVE",
"642 585 OFFCURVE",
"696 585 CURVE SMOOTH",
"720 585 OFFCURVE",
"752 589 OFFCURVE",
"783 599 CURVE",
"742 506 OFFCURVE",
"679 331 OFFCURVE",
"608 107 CURVE",
"562 350 OFFCURVE",
"368 712 OFFCURVE",
"174 712 CURVE SMOOTH",
"144 712 OFFCURVE",
"115 706 OFFCURVE",
"110 697 CURVE SMOOTH",
"91 663 OFFCURVE",
"42 590 OFFCURVE",
"22 560 CURVE SMOOTH",
"-12 508 OFFCURVE",
"29 442 OFFCURVE",
"79 422 CURVE",
"95 457 OFFCURVE",
"105 478 OFFCURVE",
"136 516 CURVE",
"59 570 OFFCURVE",
"88 616 OFFCURVE",
"122 616 CURVE SMOOTH",
"278 616 OFFCURVE",
"468 263 OFFCURVE",
"515 0 CURVE",
"620 0 LINE",
"690 244 OFFCURVE",
"771 467 OFFCURVE",
"889 702 CURVE",
"876 719 LINE"
);
}
);
userData = {
com.schriftgestaltung.Glyphs.lastChange = "2019-04-23 08:06:11 +0000";
};
width = 899;
}
);
unicode = 0056;
},
{
color = 3;
glyphname = V.ss01;
lastChange = "2020-02-01 18:21:51 +0000";
layers = (
{
anchors = (
{
name = bottom;
position = "{611, 0}";
},
{
name = ogonek;
position = "{1102, 10}";
},
{
name = top;
position = "{611, 700}";
},
{
name = topright;
position = "{1205, 700}";
}
);
layerId = "5FE47517-9953-4891-9518-AB2E2247E448";
paths = (
{
closed = 1;
nodes = (
"878 685 OFFCURVE",
"835 671 OFFCURVE",
"797 653 CURVE",
"750 576 OFFCURVE",
"690 496 OFFCURVE",
"690 465 CURVE SMOOTH",
"690 405 OFFCURVE",
"731 374 OFFCURVE",
"763 350 CURVE",
"788 360 OFFCURVE",
"827 377 OFFCURVE",
"869 407 CURVE",
"869 413 LINE",
"793 452 OFFCURVE",
"779 495 OFFCURVE",
"779 562 CURVE",
"802 578 OFFCURVE",
"836 588 OFFCURVE",
"871 588 CURVE SMOOTH",
"1016 588 OFFCURVE",
"1085 487 OFFCURVE",
"1085 357 CURVE SMOOTH",
"1085 219 OFFCURVE",
"963 93 OFFCURVE",
"943 93 CURVE",
"878 111 OFFCURVE",
"775 151 OFFCURVE",
"693 151 CURVE SMOOTH",
"675 151 OFFCURVE",
"655 149 OFFCURVE",
"632 146 CURVE",
"634 352 OFFCURVE",
"638 560 OFFCURVE",
"644 766 CURVE",
"604 768 LINE",
"602 140 LINE",
"551 129 OFFCURVE",
"496 112 OFFCURVE",
"455 91 CURVE",
"511 150 OFFCURVE",
"566 199 OFFCURVE",
"567 287 CURVE SMOOTH",
"569 431 OFFCURVE",
"562 574 OFFCURVE",
"570 718 CURVE",
"557 722 LINE",
"496 685 OFFCURVE",
"442 674 OFFCURVE",
"368 674 CURVE SMOOTH",
"296 674 OFFCURVE",
"204 700 OFFCURVE",
"189 700 CURVE",
"151 672 OFFCURVE",
"101 586 OFFCURVE",
"36 538 CURVE",
"30 499 OFFCURVE",
"11 404 OFFCURVE",
"98 365 CURVE",
"131 383 OFFCURVE",
"166 419 OFFCURVE",
"180 454 CURVE",
"140 482 OFFCURVE",
"106 518 OFFCURVE",
"116 575 CURVE",
"254 547 OFFCURVE",
"390 543 OFFCURVE",
"460 577 CURVE",
"454 549 OFFCURVE",
"444 509 OFFCURVE",
"442 462 CURVE SMOOTH",
"438 380 OFFCURVE",
"447 274 OFFCURVE",
"444 202 CURVE SMOOTH",
"440 121 OFFCURVE",
"370 69 OFFCURVE",
"306 0 CURVE",
"322 -19 LINE",
"409 16 OFFCURVE",
"474 35 OFFCURVE",
"561 35 CURVE SMOOTH",
"639 35 OFFCURVE",
"797 5 OFFCURVE",
"888 -16 CURVE",
"922 10 OFFCURVE",
"1053 115 OFFCURVE",
"1143 178 CURVE",
"1200 252 OFFCURVE",
"1200 357 OFFCURVE",
"1200 388 CURVE SMOOTH",
"1200 546 OFFCURVE",
"1107 685 OFFCURVE",
"932 685 CURVE SMOOTH"
);
}
);
userData = {
com.schriftgestaltung.Glyphs.lastChange = "2019-04-23 08:06:57 +0000";
};
width = 1240;
}
);
leftMetricsKey = H;
rightMetricsKey = O;
},
{
color = 3;
glyphname = V.ss02;
lastChange = "2020-01-30 17:01:20 +0000";
layers = (
{
anchors = (
{
name = bottom;
position = "{427, 0}";
},
{
name = top;
position = "{427, 700}";
}
);
layerId = "5FE47517-9953-4891-9518-AB2E2247E448";
paths = (
{
closed = 1;
nodes = (
"655 463 OFFCURVE",
"637 454 OFFCURVE",
"629 447 CURVE SMOOTH",
"501 329 LINE",
"457 400 OFFCURVE",
"392 445 OFFCURVE",
"317 465 CURVE SMOOTH",
"218 492 OFFCURVE",
"148 510 OFFCURVE",
"147 581 CURVE SMOOTH",
"146 633 OFFCURVE",
"181 656 OFFCURVE",
"224 656 CURVE SMOOTH",
"281 656 OFFCURVE",
"297 616 OFFCURVE",
"295 583 CURVE",
"298 580 LINE",
"563 629 LINE",
"555 659 LINE",
"517 655 OFFCURVE",
"496 649 OFFCURVE",
"452 649 CURVE SMOOTH",
"401 649 OFFCURVE",
"391 694 OFFCURVE",
"364 723 CURVE",
"301 713 OFFCURVE",
"141 669 OFFCURVE",
"105 664 CURVE",
"48 645 OFFCURVE",
"10 608 OFFCURVE",
"10 562 CURVE SMOOTH",
"10 471 OFFCURVE",
"92 431 OFFCURVE",
"169 408 CURVE SMOOTH",
"377 347 OFFCURVE",
"468 275 OFFCURVE",
"468 -4 CURVE",
"493 -21 LINE",
"554 30 OFFCURVE",
"724 146 OFFCURVE",
"789 199 CURVE",
"815 227 OFFCURVE",
"834 257 OFFCURVE",
"834 305 CURVE SMOOTH",
"834 398 OFFCURVE",
"750 463 OFFCURVE",
"685 463 CURVE SMOOTH"
);
},
{
closed = 1;
nodes = (
"564 168 OFFCURVE",
"547 240 OFFCURVE",
"519 298 CURVE",
"537 312 OFFCURVE",
"589 347 OFFCURVE",
"630 347 CURVE SMOOTH",
"677 347 OFFCURVE",
"718 308 OFFCURVE",
"718 265 CURVE SMOOTH",
"718 196 OFFCURVE",
"659 151 OFFCURVE",
"565 81 CURVE"
);
}
);
userData = {
com.schriftgestaltung.Glyphs.lastChange = "2019-04-23 08:06:53 +0000";
};
width = 854;
}
);
},
{
color = 6;
glyphname = W;
lastChange = "2020-02-01 18:22:21 +0000";
layers = (
{
layerId = "5FE47517-9953-4891-9518-AB2E2247E448";
paths = (
{
closed = 1;
nodes = (
"1123 713 OFFCURVE",
"1068 702 OFFCURVE",
"1018 702 CURVE SMOOTH",
"966 702 OFFCURVE",
"898 733 OFFCURVE",
"872 720 CURVE",
"824 659 OFFCURVE",
"789 617 OFFCURVE",
"769 582 CURVE",
"789 542 OFFCURVE",
"814 538 OFFCURVE",
"856 538 CURVE",
"867 553 LINE",
"852 572 OFFCURVE",
"834 596 OFFCURVE",
"832 619 CURVE",
"873 642 OFFCURVE",
"932 585 OFFCURVE",
"986 585 CURVE SMOOTH",
"1010 585 OFFCURVE",
"1031 595 OFFCURVE",
"1062 605 CURVE",
"1024 525 OFFCURVE",
"953 343 OFFCURVE",
"875 107 CURVE",
"825 350 OFFCURVE",
"728 717 OFFCURVE",
"536 717 CURVE SMOOTH",
"506 717 OFFCURVE",
"487 711 OFFCURVE",
"472 702 CURVE",
"458 677 OFFCURVE",
"422 609 OFFCURVE",
"397 564 CURVE",
"328 652 OFFCURVE",
"249 712 OFFCURVE",
"170 712 CURVE SMOOTH",
"140 712 OFFCURVE",
"121 707 OFFCURVE",
"106 697 CURVE",
"87 663 OFFCURVE",
"32 580 OFFCURVE",
"12 550 CURVE",
"-10 499 OFFCURVE",
"25 422 OFFCURVE",
"75 422 CURVE",
"91 442 OFFCURVE",
"110 478 OFFCURVE",
"132 516 CURVE",
"55 570 OFFCURVE",
"84 616 OFFCURVE",
"118 616 CURVE SMOOTH",
"274 616 OFFCURVE",
"464 263 OFFCURVE",
"511 0 CURVE",
"616 0 LINE",
"650 125 OFFCURVE",
"678 205 OFFCURVE",
"715 296 CURVE",
"742 200 OFFCURVE",
"763 95 OFFCURVE",
"780 0 CURVE",
"890 0 LINE",
"960 244 OFFCURVE",
"1041 467 OFFCURVE",
"1159 702 CURVE",
"1136 720 LINE"
);
},
{
closed = 1;
nodes = (
"579 237 OFFCURVE",
"509 408 OFFCURVE",
"419 534 CURVE",
"441 568 OFFCURVE",
"465 603 OFFCURVE",
"502 603 CURVE SMOOTH",
"587 603 OFFCURVE",
"648 500 OFFCURVE",
"694 364 CURVE",
"669 293 OFFCURVE",
"617 145 OFFCURVE",
"604 104 CURVE"
);
}
);
userData = {
com.schriftgestaltung.Glyphs.lastChange = "2019-04-13 17:50:25 +0000";
};
width = 1164;
}
);
unicode = 0057;
},
{
color = 3;
glyphname = X;
lastChange = "2020-02-01 18:22:29 +0000";
layers = (
{
anchors = (
{
name = bottom;
position = "{485, 0}";
},
{
name = top;
position = "{485, 700}";
}
);
layerId = "5FE47517-9953-4891-9518-AB2E2247E448";
paths = (
{
closed = 1;
nodes = (
"660 77 OFFCURVE",
"506 136 OFFCURVE",
"506 309 CURVE SMOOTH",
"506 433 OFFCURVE",
"556 538 OFFCURVE",
"609 575 CURVE",
"638 555 OFFCURVE",
"670 527 OFFCURVE",
"727 512 CURVE",
"769 538 OFFCURVE",
"858 584 OFFCURVE",
"941 655 CURVE",
"921 687 LINE",
"883 660 OFFCURVE",
"843 630 OFFCURVE",
"798 630 CURVE SMOOTH",
"754 630 OFFCURVE",
"727 698 OFFCURVE",
"714 718 CURVE",
"696 718 OFFCURVE",
"487 543 OFFCURVE",
"443 474 CURVE",
"419 554 OFFCURVE",
"340 649 OFFCURVE",
"226 651 CURVE SMOOTH",
"147 652 OFFCURVE",
"67 600 OFFCURVE",
"20 538 CURVE",
"36 516 LINE",
"78 545 OFFCURVE",
"108 552 OFFCURVE",
"150 552 CURVE SMOOTH",
"277 552 OFFCURVE",
"344 404 OFFCURVE",
"344 257 CURVE SMOOTH",
"344 81 OFFCURVE",
"252 -62 OFFCURVE",
"128 -175 CURVE",
"145 -209 LINE",
"213 -147 OFFCURVE",
"359 -34 OFFCURVE",
"418 118 CURVE",
"456 39 OFFCURVE",
"567 -20 OFFCURVE",
"628 -20 CURVE",
"678 -2 OFFCURVE",
"872 55 OFFCURVE",
"920 81 CURVE",
"909 107 LINE",
"838 84 OFFCURVE",
"793 77 OFFCURVE",
"757 77 CURVE SMOOTH"
);
}
);
userData = {
com.schriftgestaltung.Glyphs.lastChange = "2019-04-23 08:06:50 +0000";
};
width = 951;
}
);
unicode = 0058;
},
{
color = 3;
glyphname = Y;
lastChange = "2020-02-01 18:22:41 +0000";
layers = (
{
anchors = (
{
name = bottom;
position = "{303, 0}";
},
{
name = top;
position = "{303, 700}";
},
{
name = topleft;
position = "{-29, 700}";
}
);
layerId = "5FE47517-9953-4891-9518-AB2E2247E448";
paths = (
{
closed = 1;
nodes = (
"478 721 OFFCURVE",
"456 713 OFFCURVE",
"435 702 CURVE",
"392 666 OFFCURVE",
"355 621 OFFCURVE",
"316 567 CURVE",
"304 659 OFFCURVE",
"253 721 OFFCURVE",
"150 721 CURVE",
"101 674 OFFCURVE",
"15 565 OFFCURVE",
"5 554 CURVE",
"28 536 LINE",
"45 557 OFFCURVE",
"78 591 OFFCURVE",
"120 591 CURVE SMOOTH",
"165 591 OFFCURVE",
"190 563 OFFCURVE",
"189 517 CURVE SMOOTH",
"183 -6 LINE SMOOTH",
"183 -36 OFFCURVE",
"155 -129 OFFCURVE",
"114 -209 CURVE",
"146 -230 LINE",
"330 33 OFFCURVE",
"506 311 OFFCURVE",
"602 453 CURVE SMOOTH",
"633 499 OFFCURVE",
"648 547 OFFCURVE",
"648 599 CURVE SMOOTH",
"648 669 OFFCURVE",
"592 718 OFFCURVE",
"523 720 CURVE SMOOTH"
);
},
{
closed = 1;
nodes = (
"319 517 LINE",
"319 528 LINE",
"354 571 OFFCURVE",
"393 591 OFFCURVE",
"433 591 CURVE SMOOTH",
"485 591 OFFCURVE",
"528 546 OFFCURVE",
"528 487 CURVE SMOOTH",
"528 388 OFFCURVE",
"393 212 OFFCURVE",
"316 90 CURVE"
);
}
);
userData = {
com.schriftgestaltung.Glyphs.lastChange = "2019-04-23 08:06:48 +0000";
};
width = 663;
}
);
unicode = 0059;
},
{
color = 3;
glyphname = Z;
lastChange = "2020-02-01 18:22:50 +0000";
layers = (
{
anchors = (
{
name = bottom;
position = "{331, 0}";
},
{
name = top;
position = "{331, 700}";
}
);
layerId = "5FE47517-9953-4891-9518-AB2E2247E448";
paths = (
{
closed = 1;
nodes = (
"467 484 OFFCURVE",
"564 600 OFFCURVE",
"663 676 CURVE",
"641 704 LINE",
"531 685 OFFCURVE",
"466 676 OFFCURVE",
"413 676 CURVE SMOOTH",
"304 676 OFFCURVE",
"196 716 OFFCURVE",
"145 716 CURVE",
"147 715 OFFCURVE",
"63 659 OFFCURVE",
"20 598 CURVE",
"41 577 LINE",
"77 605 OFFCURVE",
"112 612 OFFCURVE",
"141 612 CURVE SMOOTH",
"198 612 OFFCURVE",
"279 586 OFFCURVE",
"354 586 CURVE SMOOTH",
"398 586 OFFCURVE",
"448 591 OFFCURVE",
"499 600 CURVE",
"387 459 OFFCURVE",
"275 370 OFFCURVE",
"66 273 CURVE",
"85 232 LINE",
"131 253 OFFCURVE",
"230 304 OFFCURVE",
"236 304 CURVE SMOOTH",
"364 304 OFFCURVE",
"518 262 OFFCURVE",
"518 140 CURVE SMOOTH",
"518 71 OFFCURVE",
"478 3 OFFCURVE",
"424 -43 CURVE SMOOTH",
"373 -86 OFFCURVE",
"279 -134 OFFCURVE",
"264 -134 CURVE SMOOTH",
"246 -134 OFFCURVE",
"179 -56 OFFCURVE",
"173 -56 CURVE",
"144 -75 OFFCURVE",
"86 -127 OFFCURVE",
"66 -142 CURVE",
"76 -163 OFFCURVE",
"131 -218 OFFCURVE",
"178 -240 CURVE",
"236 -214 OFFCURVE",
"294 -182 OFFCURVE",
"393 -117 CURVE SMOOTH",
"505 -43 OFFCURVE",
"666 58 OFFCURVE",
"666 192 CURVE SMOOTH",
"666 326 OFFCURVE",
"488 394 OFFCURVE",
"371 401 CURVE"
);
}
);
userData = {
com.schriftgestaltung.Glyphs.lastChange = "2019-04-23 08:06:45 +0000";
};
width = 701;
}
);
unicode = 005A;
},
{
color = 4;
glyphname = a;
lastChange = "2020-02-01 18:24:36 +0000";
layers = (
{
anchors = (
{
name = bottom;
position = "{212, 0}";
},
{
name = ogonek;
position = "{376, 2}";
},
{
name = top;
position = "{212, 430}";
}
);
layerId = "5FE47517-9953-4891-9518-AB2E2247E448";
paths = (
{
closed = 1;
nodes = (
"397 61 LINE",
"376 74 OFFCURVE",
"362 89 OFFCURVE",
"362 124 CURVE SMOOTH",
"362 154 OFFCURVE",
"368 298 OFFCURVE",
"368 328 CURVE SMOOTH",
"368 391 OFFCURVE",
"309 451 OFFCURVE",
"241 451 CURVE",
"194 440 OFFCURVE",
"102 394 OFFCURVE",
"31 350 CURVE",
"47 320 LINE",
"92 349 OFFCURVE",
"137 378 OFFCURVE",
"180 378 CURVE SMOOTH",
"236 378 OFFCURVE",
"259 343 OFFCURVE",
"259 319 CURVE SMOOTH",
"259 304 LINE",
"180 245 OFFCURVE",
"56 144 OFFCURVE",
"5 94 CURVE",
"36 65 OFFCURVE",
"64 17 OFFCURVE",
"91 -20 CURVE",
"136 4 OFFCURVE",
"210 45 OFFCURVE",
"258 69 CURVE",
"258 41 OFFCURVE",
"270 9 OFFCURVE",
"291 -21 CURVE",
"328 -8 OFFCURVE",
"376 24 OFFCURVE",
"398 42 CURVE"
);
},
{
closed = 1;
nodes = (
"131 165 OFFCURVE",
"182 211 OFFCURVE",
"259 256 CURVE",
"259 208 OFFCURVE",
"258 146 OFFCURVE",
"258 105 CURVE",
"240 90 OFFCURVE",
"219 78 OFFCURVE",
"199 78 CURVE SMOOTH",
"160 78 OFFCURVE",
"131 103 OFFCURVE",
"131 136 CURVE SMOOTH"
);
}
);
userData = {
com.schriftgestaltung.Glyphs.lastChange = "2019-04-24 15:12:59 +0000";
};
width = 423;
}
);
unicode = 0061;
},
{
color = 4;
glyphname = a_hook;
lastChange = "2020-01-30 17:02:12 +0000";
layers = (
{
anchors = (
{
name = bottom;
position = "{212, 0}";
},
{
name = ogonek;
position = "{381, 10}";
},
{
name = top;
position = "{212, 430}";
}
);
layerId = "5FE47517-9953-4891-9518-AB2E2247E448";
paths = (
{
closed = 1;
nodes = (
"297 534 OFFCURVE",
"328 553 OFFCURVE",
"348 567 CURVE",
"386 632 OFFCURVE",
"356 700 OFFCURVE",
"293 721 CURVE",
"287 721 LINE",
"189 661 LINE",
"189 642 LINE",
"224 634 OFFCURVE",
"246 619 OFFCURVE",
"246 580 CURVE SMOOTH",
"246 544 OFFCURVE",
"228 516 OFFCURVE",
"198 487 CURVE",
"218 470 LINE"
);
},
{
closed = 1;
nodes = (
"397 61 LINE",
"376 74 OFFCURVE",
"362 89 OFFCURVE",
"362 124 CURVE SMOOTH",
"362 154 OFFCURVE",
"368 298 OFFCURVE",
"368 328 CURVE SMOOTH",
"368 391 OFFCURVE",
"309 451 OFFCURVE",
"241 451 CURVE",
"194 440 OFFCURVE",
"102 394 OFFCURVE",
"31 350 CURVE",
"47 320 LINE",
"92 349 OFFCURVE",
"137 378 OFFCURVE",
"180 378 CURVE SMOOTH",
"236 378 OFFCURVE",
"259 343 OFFCURVE",
"259 319 CURVE SMOOTH",
"259 304 LINE",
"180 245 OFFCURVE",
"56 144 OFFCURVE",
"5 94 CURVE",
"36 65 OFFCURVE",
"64 17 OFFCURVE",
"91 -20 CURVE",
"136 4 OFFCURVE",
"210 45 OFFCURVE",
"258 69 CURVE",
"258 41 OFFCURVE",
"270 9 OFFCURVE",
"291 -21 CURVE",
"328 -8 OFFCURVE",
"376 24 OFFCURVE",
"398 42 CURVE"
);
},
{
closed = 1;
nodes = (
"131 165 OFFCURVE",
"182 211 OFFCURVE",
"259 256 CURVE",
"259 208 OFFCURVE",
"258 146 OFFCURVE",
"258 105 CURVE",
"240 90 OFFCURVE",
"219 78 OFFCURVE",
"199 78 CURVE SMOOTH",
"160 78 OFFCURVE",
"131 103 OFFCURVE",
"131 136 CURVE SMOOTH"
);
}
);
userData = {
com.schriftgestaltung.Glyphs.ComponentInfo = (
{
alignment = -1;
index = 0;
name = a;
}
);
com.schriftgestaltung.Glyphs.lastChange = "2019-04-13 11:12:37 +0000";
};
width = 423;
}
);
leftMetricsKey = a;
rightMetricsKey = a;
unicode = 1EA3;
},
{
color = 4;
glyphname = a_macr;
lastChange = "2020-01-30 17:01:20 +0000";
layers = (
{
anchors = (
{
name = bottom;
position = "{212, 0}";
},
{
name = ogonek;
position = "{381, 10}";
},
{
name = top;
position = "{212, 430}";
}
);
layerId = "5FE47517-9953-4891-9518-AB2E2247E448";
paths = (
{
closed = 1;
nodes = (
"329 578 OFFCURVE",
"341 602 OFFCURVE",
"366 634 CURVE",
"344 645 LINE",
"330 639 OFFCURVE",
"317 637 OFFCURVE",
"295 637 CURVE SMOOTH",
"272 637 OFFCURVE",
"216 641 OFFCURVE",
"192 641 CURVE",
"168 604 OFFCURVE",
"103 536 OFFCURVE",
"97 514 CURVE",
"116 506 LINE",
"147 580 OFFCURVE",
"181 553 OFFCURVE",
"304 553 CURVE"
);
},
{
closed = 1;
nodes = (
"397 61 LINE",
"376 74 OFFCURVE",
"362 89 OFFCURVE",
"362 124 CURVE SMOOTH",
"362 154 OFFCURVE",
"368 298 OFFCURVE",
"368 328 CURVE SMOOTH",
"368 391 OFFCURVE",
"309 451 OFFCURVE",
"241 451 CURVE",
"194 440 OFFCURVE",
"102 394 OFFCURVE",
"31 350 CURVE",
"47 320 LINE",
"92 349 OFFCURVE",
"137 378 OFFCURVE",
"180 378 CURVE SMOOTH",
"236 378 OFFCURVE",
"259 343 OFFCURVE",
"259 319 CURVE SMOOTH",
"259 304 LINE",
"180 245 OFFCURVE",
"56 144 OFFCURVE",
"5 94 CURVE",
"36 65 OFFCURVE",
"64 17 OFFCURVE",
"91 -20 CURVE",
"136 4 OFFCURVE",
"210 45 OFFCURVE",
"258 69 CURVE",
"258 41 OFFCURVE",
"270 9 OFFCURVE",
"291 -21 CURVE",
"328 -8 OFFCURVE",
"376 24 OFFCURVE",
"398 42 CURVE"
);
},
{
closed = 1;
nodes = (
"131 165 OFFCURVE",
"182 211 OFFCURVE",
"259 256 CURVE",
"259 208 OFFCURVE",
"258 146 OFFCURVE",
"258 105 CURVE",
"240 90 OFFCURVE",
"219 78 OFFCURVE",
"199 78 CURVE SMOOTH",
"160 78 OFFCURVE",
"131 103 OFFCURVE",
"131 136 CURVE SMOOTH"
);
}
);
userData = {
com.schriftgestaltung.Glyphs.ComponentInfo = (
{
alignment = -1;
index = 0;
name = a;
}
);
com.schriftgestaltung.Glyphs.lastChange = "2019-04-23 12:32:18 +0000";
};
width = 423;
}
);
leftMetricsKey = a;
rightMetricsKey = a;
unicode = 0101;
},
{
color = 4;
glyphname = b;
lastChange = "2020-02-01 18:24:47 +0000";
layers = (
{
anchors = (
{
name = bottom;
position = "{247, 0}";
},
{
name = top;
position = "{247, 430}";
}
);
layerId = "5FE47517-9953-4891-9518-AB2E2247E448";
paths = (
{
closed = 1;
nodes = (
"173 348 LINE",
"182 718 LINE",
"174 722 LINE",
"58 670 LINE",
"58 424 LINE SMOOTH",
"59 400 OFFCURVE",
"33 370 OFFCURVE",
"10 336 CURVE",
"10 328 LINE",
"33 320 OFFCURVE",
"58 304 OFFCURVE",
"58 270 CURVE SMOOTH",
"58 69 LINE",
"87 45 OFFCURVE",
"133 17 OFFCURVE",
"190 -20 CURVE",
"275 5 OFFCURVE",
"366 55 OFFCURVE",
"413 85 CURVE",
"435 109 OFFCURVE",
"473 150 OFFCURVE",
"473 230 CURVE SMOOTH",
"473 341 OFFCURVE",
"419 450 OFFCURVE",
"305 450 CURVE"
);
},
{
closed = 1;
nodes = (
"228 79 OFFCURVE",
"173 107 OFFCURVE",
"173 175 CURVE SMOOTH",
"173 218 OFFCURVE",
"169 278 OFFCURVE",
"181 322 CURVE",
"199 331 OFFCURVE",
"220 341 OFFCURVE",
"245 341 CURVE SMOOTH",
"311 341 OFFCURVE",
"359 294 OFFCURVE",
"359 213 CURVE SMOOTH",
"359 141 OFFCURVE",
"332 79 OFFCURVE",
"275 79 CURVE SMOOTH"
);
}
);
userData = {
com.schriftgestaltung.Glyphs.lastChange = "2019-04-13 12:36:56 +0000";
};
width = 498;
}
);
rightMetricsKey = o;
unicode = 0062;
},
{
color = 4;
glyphname = b_e;
lastChange = "2020-02-04 05:22:53 +0000";
layers = (
{
anchors = (
{
name = bottom;
position = "{247, 0}";
},
{
name = bottom_1;
position = "{182, 0}";
},
{
name = bottom_2;
position = "{545, 0}";
},
{
name = caret_1;
position = "{363, 0}";
},
{
name = ogonek;
position = "{707, 10}";
},
{
name = top;
position = "{247, 430}";
},
{
name = top_1;
position = "{182, 430}";
},
{
name = top_2;
position = "{545, 430}";
}
);
layerId = "5FE47517-9953-4891-9518-AB2E2247E448";
paths = (
{
closed = 1;
nodes = (
"740 346 OFFCURVE",
"661 450 OFFCURVE",
"630 450 CURVE SMOOTH",
"607 450 OFFCURVE",
"493 398 OFFCURVE",
"440 368 CURVE",
"413 417 OFFCURVE",
"368 450 OFFCURVE",
"305 450 CURVE",
"173 348 LINE",
"182 718 LINE",
"174 722 LINE",
"58 670 LINE",
"58 424 LINE SMOOTH",
"59 400 OFFCURVE",
"33 370 OFFCURVE",
"10 336 CURVE",
"10 328 LINE",
"33 320 OFFCURVE",
"58 304 OFFCURVE",
"58 270 CURVE SMOOTH",
"58 69 LINE",
"87 45 OFFCURVE",
"133 17 OFFCURVE",
"190 -20 CURVE",
"270 3 OFFCURVE",
"355 49 OFFCURVE",
"404 79 CURVE",
"435 20 OFFCURVE",
"491 -20 OFFCURVE",
"556 -20 CURVE SMOOTH",
"592 -20 OFFCURVE",
"669 26 OFFCURVE",
"720 52 CURVE",
"717 82 LINE",
"697 78 OFFCURVE",
"644 73 OFFCURVE",
"625 74 CURVE SMOOTH",
"570 77 OFFCURVE",
"539 99 OFFCURVE",
"521 130 CURVE",
"603 196 OFFCURVE",
"740 314 OFFCURVE",
"740 326 CURVE SMOOTH"
);
},
{
closed = 1;
nodes = (
"500 192 OFFCURVE",
"498 222 OFFCURVE",
"498 253 CURVE SMOOTH",
"498 296 OFFCURVE",
"503 367 OFFCURVE",
"540 367 CURVE SMOOTH",
"586 367 OFFCURVE",
"610 316 OFFCURVE",
"610 292 CURVE SMOOTH",
"610 246 OFFCURVE",
"557 197 OFFCURVE",
"507 165 CURVE"
);
},
{
closed = 1;
nodes = (
"228 79 OFFCURVE",
"173 107 OFFCURVE",
"173 175 CURVE SMOOTH",
"173 218 OFFCURVE",
"169 278 OFFCURVE",
"181 322 CURVE",
"199 331 OFFCURVE",
"220 341 OFFCURVE",
"245 341 CURVE SMOOTH",
"311 341 OFFCURVE",
"359 294 OFFCURVE",
"359 213 CURVE SMOOTH",
"359 141 OFFCURVE",
"332 79 OFFCURVE",
"275 79 CURVE SMOOTH"
);
}
);
userData = {
com.schriftgestaltung.Glyphs.ComponentInfo = (
{
alignment = -1;
index = 0;
name = b;
}
);
com.schriftgestaltung.Glyphs.lastChange = "2019-01-14 09:18:15 +0000";
};
width = 750;
}
);
leftMetricsKey = b;
rightMetricsKey = e;
},
{
color = 4;
glyphname = b_e_macr;
lastChange = "2020-01-30 17:01:20 +0000";
layers = (
{
anchors = (
{
name = bottom;
position = "{247, 0}";
},
{
name = bottom_1;
position = "{121, 0}";
},
{
name = bottom_2;
position = "{363, 0}";
},
{
name = bottom_3;
position = "{605, 0}";
},
{
name = caret_1;
position = "{242, 0}";
},
{
name = caret_2;
position = "{484, 0}";
},
{
name = ogonek;
position = "{707, 10}";
},
{
name = top;
position = "{247, 430}";
},
{
name = top_1;
position = "{121, 430}";
},
{
name = top_2;
position = "{363, 430}";
},
{
name = top_3;
position = "{605, 430}";
}
);
layerId = "5FE47517-9953-4891-9518-AB2E2247E448";
paths = (
{
closed = 1;
nodes = (
"740 346 OFFCURVE",
"661 450 OFFCURVE",
"630 450 CURVE SMOOTH",
"607 450 OFFCURVE",
"493 398 OFFCURVE",
"440 368 CURVE",
"413 417 OFFCURVE",
"368 450 OFFCURVE",
"305 450 CURVE",
"173 348 LINE",
"182 718 LINE",
"174 722 LINE",
"58 670 LINE",
"58 424 LINE SMOOTH",
"59 400 OFFCURVE",
"33 370 OFFCURVE",
"10 336 CURVE",
"10 328 LINE",
"33 320 OFFCURVE",
"58 304 OFFCURVE",
"58 270 CURVE SMOOTH",
"58 69 LINE",
"87 45 OFFCURVE",
"133 17 OFFCURVE",
"190 -20 CURVE",
"270 3 OFFCURVE",
"355 49 OFFCURVE",
"404 79 CURVE",
"435 20 OFFCURVE",
"491 -20 OFFCURVE",
"556 -20 CURVE SMOOTH",
"592 -20 OFFCURVE",
"669 26 OFFCURVE",
"720 52 CURVE",
"717 82 LINE",
"697 78 OFFCURVE",
"644 73 OFFCURVE",
"625 74 CURVE SMOOTH",
"570 77 OFFCURVE",
"539 99 OFFCURVE",
"521 130 CURVE",
"603 196 OFFCURVE",
"740 314 OFFCURVE",
"740 326 CURVE SMOOTH"
);
},
{
closed = 1;
nodes = (
"659 604 OFFCURVE",
"681 647 OFFCURVE",
"704 681 CURVE",
"670 688 LINE",
"654 681 OFFCURVE",
"639 678 OFFCURVE",
"613 676 CURVE SMOOTH",
"586 674 OFFCURVE",
"509 674 OFFCURVE",
"481 672 CURVE",
"464 651 OFFCURVE",
"442 604 OFFCURVE",
"414 570 CURVE",
"444 561 LINE",
"488 592 OFFCURVE",
"536 579 OFFCURVE",
"642 583 CURVE"
);
},
{
closed = 1;
nodes = (
"500 192 OFFCURVE",
"498 222 OFFCURVE",
"498 253 CURVE SMOOTH",
"498 296 OFFCURVE",
"503 367 OFFCURVE",
"540 367 CURVE SMOOTH",
"586 367 OFFCURVE",
"610 316 OFFCURVE",
"610 292 CURVE SMOOTH",
"610 246 OFFCURVE",
"557 197 OFFCURVE",
"507 165 CURVE"
);
},
{
closed = 1;
nodes = (
"228 79 OFFCURVE",
"173 107 OFFCURVE",
"173 175 CURVE SMOOTH",
"173 218 OFFCURVE",
"169 278 OFFCURVE",
"181 322 CURVE",
"199 331 OFFCURVE",
"220 341 OFFCURVE",
"245 341 CURVE SMOOTH",
"311 341 OFFCURVE",
"359 294 OFFCURVE",
"359 213 CURVE SMOOTH",
"359 141 OFFCURVE",
"332 79 OFFCURVE",
"275 79 CURVE SMOOTH"
);
}
);
userData = {
com.schriftgestaltung.Glyphs.ComponentInfo = (
{
alignment = -1;
index = 0;
name = b;
}
);
com.schriftgestaltung.Glyphs.lastChange = "2019-04-23 12:33:08 +0000";
};
width = 750;
}
);
leftMetricsKey = b;
rightMetricsKey = e;
},
{
color = 4;
glyphname = b_o;
lastChange = "2020-02-04 05:22:45 +0000";
layers = (
{
anchors = (
{
name = bottom_1;
position = "{192, 0}";
},
{
name = bottom_2;
position = "{595, 0}";
},
{
name = caret_1;
position = "{393, 0}";
},
{
name = top_1;
position = "{192, 430}";
},
{
name = top_2;
position = "{595, 430}";
}
);
layerId = "5FE47517-9953-4891-9518-AB2E2247E448";
paths = (
{
closed = 1;
nodes = (
"580 450 OFFCURVE",
"491 376 OFFCURVE",
"441 335 CURVE",
"410 393 OFFCURVE",
"355 450 OFFCURVE",
"305 450 CURVE SMOOTH",
"295 450 OFFCURVE",
"213 385 OFFCURVE",
"163 348 CURVE",
"172 718 LINE",
"164 722 LINE",
"48 670 LINE",
"48 464 LINE SMOOTH",
"48 426 OFFCURVE",
"23 370 OFFCURVE",
"10 336 CURVE",
"10 328 LINE",
"23 320 OFFCURVE",
"48 304 OFFCURVE",
"48 270 CURVE SMOOTH",
"48 69 LINE SMOOTH",
"48 52 OFFCURVE",
"169 -20 OFFCURVE",
"180 -20 CURVE SMOOTH",
"198 -20 OFFCURVE",
"337 44 OFFCURVE",
"399 82 CURVE",
"438 25 OFFCURVE",
"501 -15 OFFCURVE",
"548 -21 CURVE",
"615 9 OFFCURVE",
"700 54 OFFCURVE",
"735 90 CURVE SMOOTH",
"765 121 OFFCURVE",
"776 204 OFFCURVE",
"776 240 CURVE SMOOTH",
"776 391 OFFCURVE",
"657 440 OFFCURVE",
"594 450 CURVE"
);
},
{
closed = 1;
nodes = (
"549 70 OFFCURVE",
"476 118 OFFCURVE",
"476 228 CURVE SMOOTH",
"476 272 OFFCURVE",
"485 313 OFFCURVE",
"508 341 CURVE",
"568 351 OFFCURVE",
"677 311 OFFCURVE",
"677 202 CURVE SMOOTH",
"677 142 OFFCURVE",
"658 103 OFFCURVE",
"633 71 CURVE"
);
},
{
closed = 1;
nodes = (
"211 69 OFFCURVE",
"168 105 OFFCURVE",
"158 131 CURVE",
"158 174 OFFCURVE",
"159 272 OFFCURVE",
"171 321 CURVE",
"188 328 OFFCURVE",
"210 333 OFFCURVE",
"235 333 CURVE SMOOTH",
"301 333 OFFCURVE",
"359 294 OFFCURVE",
"359 213 CURVE SMOOTH",
"359 141 OFFCURVE",
"315 69 OFFCURVE",
"258 69 CURVE SMOOTH"
);
}
);
userData = {
com.schriftgestaltung.Glyphs.lastChange = "2019-04-13 12:36:56 +0000";
};
width = 801;
}
);
leftMetricsKey = b;
rightMetricsKey = o;
},
{
color = 4;
glyphname = b_s;
lastChange = "2020-02-01 19:43:14 +0000";
layers = (
{
anchors = (
{
name = bottom;
position = "{247, 0}";
},
{
name = top;
position = "{247, 430}";
}
);
layerId = "5FE47517-9953-4891-9518-AB2E2247E448";
paths = (
{
closed = 1;
nodes = (
"455 337 LINE",
"430 402 OFFCURVE",
"381 450 OFFCURVE",
"305 450 CURVE",
"173 348 LINE",
"182 718 LINE",
"174 722 LINE",
"58 670 LINE",
"58 424 LINE SMOOTH",
"59 400 OFFCURVE",
"33 370 OFFCURVE",
"10 336 CURVE",
"10 328 LINE",
"33 320 OFFCURVE",
"58 304 OFFCURVE",
"58 270 CURVE SMOOTH",
"58 69 LINE",
"87 45 OFFCURVE",
"133 17 OFFCURVE",
"190 -20 CURVE",
"275 5 OFFCURVE",
"366 55 OFFCURVE",
"413 85 CURVE",
"435 109 OFFCURVE",
"473 150 OFFCURVE",
"473 230 CURVE SMOOTH",
"473 256 OFFCURVE",
"470 281 OFFCURVE",
"464 305 CURVE",
"495 321 OFFCURVE",
"538 331 OFFCURVE",
"571 331 CURVE SMOOTH",
"636 331 OFFCURVE",
"696 283 OFFCURVE",
"696 208 CURVE SMOOTH",
"696 143 OFFCURVE",
"666 114 OFFCURVE",
"630 89 CURVE",
"482 99 LINE",
"440 9 LINE",
"445 0 LINE",
"497 2 OFFCURVE",
"548 -2 OFFCURVE",
"600 -10 CURVE",
"605 -10 LINE",
"700 56 OFFCURVE",
"783 196 OFFCURVE",
"783 246 CURVE SMOOTH",
"783 361 OFFCURVE",
"694 451 OFFCURVE",
"589 451 CURVE"
);
},
{
closed = 1;
nodes = (
"228 79 OFFCURVE",
"173 107 OFFCURVE",
"173 175 CURVE SMOOTH",
"173 218 OFFCURVE",
"169 278 OFFCURVE",
"181 322 CURVE",
"199 331 OFFCURVE",
"220 341 OFFCURVE",
"245 341 CURVE SMOOTH",
"311 341 OFFCURVE",
"359 294 OFFCURVE",
"359 213 CURVE SMOOTH",
"359 141 OFFCURVE",
"332 79 OFFCURVE",
"275 79 CURVE SMOOTH"
);
}
);
userData = {
com.schriftgestaltung.Glyphs.lastChange = "2019-04-13 12:36:56 +0000";
};
width = 808;
}
);
leftMetricsKey = b;
rightMetricsKey = o;
},
{
color = 4;
glyphname = c;
lastChange = "2020-01-30 17:01:20 +0000";
layers = (
{
anchors = (
{
name = bottom;
position = "{186, 0}";
},
{
name = top;
position = "{186, 430}";
}
);
layerId = "5FE47517-9953-4891-9518-AB2E2247E448";
paths = (
{
closed = 1;
nodes = (
"195 -20 OFFCURVE",
"287 38 OFFCURVE",
"346 78 CURVE",
"346 103 LINE",
"312 97 OFFCURVE",
"249 82 OFFCURVE",
"213 97 CURVE SMOOTH",
"174 113 OFFCURVE",
"160 172 OFFCURVE",
"160 272 CURVE SMOOTH",
"160 299 OFFCURVE",
"165 340 OFFCURVE",
"169 360 CURVE",
"214 354 OFFCURVE",
"239 317 OFFCURVE",
"245 317 CURVE SMOOTH",
"250 317 OFFCURVE",
"316 360 OFFCURVE",
"352 381 CURVE",
"352 396 LINE",
"277 410 OFFCURVE",
"269 451 OFFCURVE",
"253 451 CURVE SMOOTH",
"231 451 OFFCURVE",
"84 356 OFFCURVE",
"65 341 CURVE SMOOTH",
"52 330 OFFCURVE",
"35 224 OFFCURVE",
"35 125 CURVE SMOOTH",
"35 91 OFFCURVE",
"119 -20 OFFCURVE",
"170 -20 CURVE SMOOTH"
);
}
);
userData = {
com.schriftgestaltung.Glyphs.lastChange = "2019-01-14 09:27:42 +0000";
};
width = 367;
}
);
unicode = 0063;
},
{
color = 4;
glyphname = c_hook;
lastChange = "2020-01-30 17:01:20 +0000";
layers = (
{
anchors = (
{
name = bottom;
position = "{171, 0}";
},
{
name = top;
position = "{171, 430}";
}
);
layerId = "5FE47517-9953-4891-9518-AB2E2247E448";
paths = (
{
closed = 1;
nodes = (
"276 550 OFFCURVE",
"368 629 OFFCURVE",
"368 643 CURVE SMOOTH",
"368 685 OFFCURVE",
"344 717 OFFCURVE",
"286 725 CURVE",
"280 725 LINE",
"197 668 LINE",
"197 663 LINE",
"231 646 OFFCURVE",
"262 636 OFFCURVE",
"262 599 CURVE SMOOTH",
"262 565 OFFCURVE",
"216 528 OFFCURVE",
"188 500 CURVE",
"210 480 LINE"
);
},
{
closed = 1;
nodes = (
"195 -20 OFFCURVE",
"287 38 OFFCURVE",
"346 78 CURVE",
"346 103 LINE",
"312 97 OFFCURVE",
"249 82 OFFCURVE",
"213 97 CURVE SMOOTH",
"174 113 OFFCURVE",
"160 172 OFFCURVE",
"160 272 CURVE SMOOTH",
"160 299 OFFCURVE",
"165 340 OFFCURVE",
"169 360 CURVE",
"214 354 OFFCURVE",
"239 317 OFFCURVE",
"245 317 CURVE SMOOTH",
"250 317 OFFCURVE",
"316 360 OFFCURVE",
"352 381 CURVE",
"352 396 LINE",
"277 410 OFFCURVE",
"269 451 OFFCURVE",
"253 451 CURVE SMOOTH",
"231 451 OFFCURVE",
"84 356 OFFCURVE",
"65 341 CURVE SMOOTH",
"52 330 OFFCURVE",
"35 224 OFFCURVE",
"35 125 CURVE SMOOTH",
"35 91 OFFCURVE",
"119 -20 OFFCURVE",
"170 -20 CURVE SMOOTH"
);
}
);
userData = {
com.schriftgestaltung.Glyphs.ComponentInfo = (
{
alignment = -1;
index = 0;
name = c;
}
);
com.schriftgestaltung.Glyphs.lastChange = "2019-04-23 12:31:58 +0000";
};
width = 383;
}
);
rightMetricsKey = c;
},
{
color = 4;
glyphname = c_macr;
lastChange = "2020-02-04 05:23:16 +0000";
layers = (
{
anchors = (
{
name = bottom;
position = "{189, 0}";
},
{
name = top;
position = "{189, 430}";
}
);
layerId = "5FE47517-9953-4891-9518-AB2E2247E448";
paths = (
{
closed = 1;
nodes = (
"114 581 OFFCURVE",
"150 597 OFFCURVE",
"176 598 CURVE SMOOTH",
"203 599 OFFCURVE",
"273 598 OFFCURVE",
"302 600 CURVE",
"317 611 OFFCURVE",
"354 664 OFFCURVE",
"381 698 CURVE",
"347 705 LINE",
"331 698 OFFCURVE",
"316 695 OFFCURVE",
"290 693 CURVE SMOOTH",
"263 691 OFFCURVE",
"196 691 OFFCURVE",
"168 689 CURVE",
"154 678 OFFCURVE",
"94 611 OFFCURVE",
"66 577 CURVE",
"96 568 LINE"
);
},
{
closed = 1;
nodes = (
"195 -20 OFFCURVE",
"287 38 OFFCURVE",
"346 78 CURVE",
"346 103 LINE",
"312 97 OFFCURVE",
"249 82 OFFCURVE",
"213 97 CURVE SMOOTH",
"174 113 OFFCURVE",
"160 172 OFFCURVE",
"160 272 CURVE SMOOTH",
"160 299 OFFCURVE",
"165 340 OFFCURVE",
"169 360 CURVE",
"214 354 OFFCURVE",
"239 317 OFFCURVE",
"245 317 CURVE SMOOTH",
"250 317 OFFCURVE",
"316 360 OFFCURVE",
"352 381 CURVE",
"352 396 LINE",
"277 410 OFFCURVE",
"269 451 OFFCURVE",
"253 451 CURVE SMOOTH",
"231 451 OFFCURVE",
"84 356 OFFCURVE",
"65 341 CURVE SMOOTH",
"52 330 OFFCURVE",
"35 224 OFFCURVE",
"35 125 CURVE SMOOTH",
"35 91 OFFCURVE",
"119 -20 OFFCURVE",
"170 -20 CURVE SMOOTH"
);
}
);
userData = {
com.schriftgestaltung.Glyphs.ComponentInfo = (
{
alignment = -1;
index = 0;
name = c;
}
);
com.schriftgestaltung.Glyphs.lastChange = "2019-04-23 12:31:53 +0000";
};
width = 386;
}
);
leftMetricsKey = c;
},
{
color = 4;
glyphname = c_a;
lastChange = "2020-01-30 17:01:20 +0000";
layers = (
{
anchors = (
{
name = bottom_1;
position = "{186, 0}";
},
{
name = bottom_2;
position = "{529, 0}";
},
{
name = caret_1;
position = "{358, 0}";
},
{
name = top_1;
position = "{186, 430}";
},
{
name = top_2;
position = "{529, 430}";
}
);
layerId = "5FE47517-9953-4891-9518-AB2E2247E448";
paths = (
{
closed = 1;
nodes = (
"653 65 OFFCURVE",
"639 89 OFFCURVE",
"639 124 CURVE SMOOTH",
"639 154 OFFCURVE",
"644 298 OFFCURVE",
"644 328 CURVE SMOOTH",
"644 391 OFFCURVE",
"586 451 OFFCURVE",
"518 451 CURVE SMOOTH",
"487 451 OFFCURVE",
"418 427 OFFCURVE",
"358 399 CURVE",
"296 415 OFFCURVE",
"288 451 OFFCURVE",
"273 451 CURVE SMOOTH",
"251 451 OFFCURVE",
"83 357 OFFCURVE",
"65 341 CURVE SMOOTH",
"52 330 OFFCURVE",
"35 224 OFFCURVE",
"35 125 CURVE SMOOTH",
"35 91 OFFCURVE",
"119 -20 OFFCURVE",
"170 -20 CURVE SMOOTH",
"187 -20 OFFCURVE",
"244 25 OFFCURVE",
"297 67 CURVE",
"317 32 OFFCURVE",
"364 -20 OFFCURVE",
"388 -20 CURVE SMOOTH",
"420 -20 OFFCURVE",
"472 31 OFFCURVE",
"513 64 CURVE",
"535 56 LINE",
"535 41 LINE SMOOTH",
"535 13 OFFCURVE",
"558 -21 OFFCURVE",
"593 -21 CURVE SMOOTH",
"610 -21 OFFCURVE",
"653 12 OFFCURVE",
"685 33 CURVE",
"684 52 LINE"
);
},
{
closed = 1;
nodes = (
"332 144 OFFCURVE",
"283 94 OFFCURVE",
"245 94 CURVE SMOOTH",
"173 94 OFFCURVE",
"154 165 OFFCURVE",
"154 225 CURVE SMOOTH",
"154 292 OFFCURVE",
"165 340 OFFCURVE",
"169 360 CURVE",
"234 354 OFFCURVE",
"259 317 OFFCURVE",
"265 317 CURVE SMOOTH",
"268 317 OFFCURVE",
"295 334 OFFCURVE",
"323 351 CURVE SMOOTH",
"370 377 OFFCURVE",
"419 387 OFFCURVE",
"455 387 CURVE SMOOTH",
"511 387 OFFCURVE",
"536 343 OFFCURVE",
"536 309 CURVE SMOOTH",
"536 306 LINE",
"487 264 OFFCURVE",
"419 212 OFFCURVE",
"366 170 CURVE SMOOTH"
);
},
{
closed = 1;
nodes = (
"448 65 OFFCURVE",
"404 122 OFFCURVE",
"404 145 CURVE SMOOTH",
"404 158 OFFCURVE",
"470 209 OFFCURVE",
"536 253 CURVE",
"536 209 OFFCURVE",
"535 151 OFFCURVE",
"535 105 CURVE",
"508 86 OFFCURVE",
"478 65 OFFCURVE",
"470 65 CURVE SMOOTH"
);
}
);
userData = {
com.schriftgestaltung.Glyphs.lastChange = "2019-04-23 12:32:06 +0000";
};
width = 710;
}
);
leftMetricsKey = c;
rightMetricsKey = a;
},
{
color = 4;
glyphname = c_a_macr;
lastChange = "2020-01-30 17:01:20 +0000";
layers = (
{
anchors = (
{
name = bottom_1;
position = "{114, 0}";
},
{
name = bottom_2;
position = "{343, 0}";
},
{
name = bottom_3;
position = "{571, 0}";
},
{
name = caret_1;
position = "{228.333, 0}";
},
{
name = caret_2;
position = "{456.667, 0}";
},
{
name = top_1;
position = "{114, 430}";
},
{
name = top_2;
position = "{343, 430}";
},
{
name = top_3;
position = "{571, 430}";
}
);
layerId = "5FE47517-9953-4891-9518-AB2E2247E448";
paths = (
{
closed = 1;
nodes = (
"579 621 OFFCURVE",
"601 664 OFFCURVE",
"624 698 CURVE",
"590 705 LINE",
"574 698 OFFCURVE",
"559 695 OFFCURVE",
"533 693 CURVE SMOOTH",
"506 691 OFFCURVE",
"449 691 OFFCURVE",
"421 689 CURVE",
"404 668 OFFCURVE",
"382 621 OFFCURVE",
"354 587 CURVE",
"384 578 LINE",
"428 609 OFFCURVE",
"456 596 OFFCURVE",
"562 600 CURVE"
);
},
{
closed = 1;
nodes = (
"653 65 OFFCURVE",
"639 89 OFFCURVE",
"639 124 CURVE SMOOTH",
"639 154 OFFCURVE",
"644 298 OFFCURVE",
"644 328 CURVE SMOOTH",
"644 391 OFFCURVE",
"586 451 OFFCURVE",
"518 451 CURVE SMOOTH",
"487 451 OFFCURVE",
"418 427 OFFCURVE",
"358 399 CURVE",
"296 415 OFFCURVE",
"288 451 OFFCURVE",
"273 451 CURVE SMOOTH",
"251 451 OFFCURVE",
"83 357 OFFCURVE",
"65 341 CURVE SMOOTH",
"52 330 OFFCURVE",
"35 224 OFFCURVE",
"35 125 CURVE SMOOTH",
"35 91 OFFCURVE",
"119 -20 OFFCURVE",
"170 -20 CURVE SMOOTH",
"187 -20 OFFCURVE",
"244 25 OFFCURVE",
"297 67 CURVE",
"317 32 OFFCURVE",
"364 -20 OFFCURVE",
"388 -20 CURVE SMOOTH",
"420 -20 OFFCURVE",
"472 31 OFFCURVE",
"513 64 CURVE",
"535 56 LINE",
"535 41 LINE SMOOTH",
"535 13 OFFCURVE",
"558 -21 OFFCURVE",
"593 -21 CURVE SMOOTH",
"610 -21 OFFCURVE",
"653 12 OFFCURVE",
"685 33 CURVE",
"684 52 LINE"
);
},
{
closed = 1;
nodes = (
"332 144 OFFCURVE",
"283 94 OFFCURVE",
"245 94 CURVE SMOOTH",
"173 94 OFFCURVE",
"154 165 OFFCURVE",
"154 225 CURVE SMOOTH",
"154 292 OFFCURVE",
"165 340 OFFCURVE",
"169 360 CURVE",
"234 354 OFFCURVE",
"259 317 OFFCURVE",
"265 317 CURVE SMOOTH",
"268 317 OFFCURVE",
"295 334 OFFCURVE",
"323 351 CURVE SMOOTH",
"370 377 OFFCURVE",
"419 387 OFFCURVE",
"455 387 CURVE SMOOTH",
"511 387 OFFCURVE",
"536 343 OFFCURVE",
"536 309 CURVE SMOOTH",
"536 306 LINE",
"487 264 OFFCURVE",
"419 212 OFFCURVE",
"366 170 CURVE SMOOTH"
);
},
{
closed = 1;
nodes = (
"448 65 OFFCURVE",
"404 122 OFFCURVE",
"404 145 CURVE SMOOTH",
"404 158 OFFCURVE",
"470 209 OFFCURVE",
"536 253 CURVE",
"536 209 OFFCURVE",
"535 151 OFFCURVE",
"535 105 CURVE",
"508 86 OFFCURVE",
"478 65 OFFCURVE",
"470 65 CURVE SMOOTH"
);
}
);
userData = {
com.schriftgestaltung.Glyphs.ComponentInfo = (
{
alignment = -1;
index = 0;
name = c_a;
}
);
com.schriftgestaltung.Glyphs.lastChange = "2019-04-23 12:29:34 +0000";
};
width = 710;
}
);
leftMetricsKey = c;
rightMetricsKey = a;
},
{
color = 4;
glyphname = c_e;
lastChange = "2020-02-04 05:23:28 +0000";
layers = (
{
anchors = (
{
name = bottom_1;
position = "{190, 0}";
},
{
name = bottom_2;
position = "{539, 0}";
},
{
name = caret_1;
position = "{365, 0}";
},
{
name = top_1;
position = "{190, 430}";
},
{
name = top_2;
position = "{539, 430}";
}
);
layerId = "5FE47517-9953-4891-9518-AB2E2247E448";
paths = (
{
closed = 1;
nodes = (
"709 346 OFFCURVE",
"630 450 OFFCURVE",
"599 450 CURVE SMOOTH",
"574 450 OFFCURVE",
"435 402 OFFCURVE",
"394 378 CURVE",
"328 398 OFFCURVE",
"288 451 OFFCURVE",
"273 451 CURVE SMOOTH",
"251 451 OFFCURVE",
"93 357 OFFCURVE",
"75 341 CURVE SMOOTH",
"62 330 OFFCURVE",
"35 238 OFFCURVE",
"35 125 CURVE SMOOTH",
"35 91 OFFCURVE",
"119 -20 OFFCURVE",
"170 -20 CURVE SMOOTH",
"195 -20 OFFCURVE",
"305 42 OFFCURVE",
"364 82 CURVE",
"389 23 OFFCURVE",
"438 -20 OFFCURVE",
"505 -20 CURVE SMOOTH",
"541 -20 OFFCURVE",
"638 26 OFFCURVE",
"689 52 CURVE",
"686 82 LINE",
"666 78 OFFCURVE",
"613 73 OFFCURVE",
"594 74 CURVE SMOOTH",
"539 77 OFFCURVE",
"508 99 OFFCURVE",
"490 130 CURVE",
"572 196 OFFCURVE",
"709 314 OFFCURVE",
"709 326 CURVE SMOOTH"
);
},
{
closed = 1;
nodes = (
"469 192 OFFCURVE",
"467 222 OFFCURVE",
"467 253 CURVE SMOOTH",
"467 296 OFFCURVE",
"472 367 OFFCURVE",
"509 367 CURVE SMOOTH",
"555 367 OFFCURVE",
"579 316 OFFCURVE",
"579 292 CURVE SMOOTH",
"579 246 OFFCURVE",
"526 197 OFFCURVE",
"476 165 CURVE"
);
},
{
closed = 1;
nodes = (
"173 74 OFFCURVE",
"154 165 OFFCURVE",
"154 225 CURVE SMOOTH",
"154 292 OFFCURVE",
"178 340 OFFCURVE",
"189 360 CURVE",
"244 354 OFFCURVE",
"269 307 OFFCURVE",
"275 307 CURVE SMOOTH",
"279 307 OFFCURVE",
"331 327 OFFCURVE",
"371 345 CURVE",
"358 310 OFFCURVE",
"347 246 OFFCURVE",
"347 172 CURVE SMOOTH",
"347 150 OFFCURVE",
"350 128 OFFCURVE",
"356 108 CURVE",
"326 92 OFFCURVE",
"297 74 OFFCURVE",
"245 74 CURVE SMOOTH"
);
}
);
userData = {
com.schriftgestaltung.Glyphs.lastChange = "2019-01-14 10:49:22 +0000";
};
width = 719;
}
);
leftMetricsKey = c;
rightMetricsKey = e;
},
{
color = 4;
glyphname = c_e_macr;
lastChange = "2020-01-30 17:01:20 +0000";
layers = (
{
anchors = (
{
name = bottom_1;
position = "{120, 0}";
},
{
name = bottom_2;
position = "{360, 0}";
},
{
name = bottom_3;
position = "{599, 0}";
},
{
name = caret_1;
position = "{239.667, 0}";
},
{
name = caret_2;
position = "{479.333, 0}";
},
{
name = top_1;
position = "{120, 430}";
},
{
name = top_2;
position = "{360, 430}";
},
{
name = top_3;
position = "{599, 430}";
}
);
layerId = "5FE47517-9953-4891-9518-AB2E2247E448";
paths = (
{
closed = 1;
nodes = (
"639 604 OFFCURVE",
"661 647 OFFCURVE",
"684 681 CURVE",
"650 688 LINE",
"634 681 OFFCURVE",
"619 678 OFFCURVE",
"593 676 CURVE SMOOTH",
"566 674 OFFCURVE",
"489 674 OFFCURVE",
"461 672 CURVE",
"444 651 OFFCURVE",
"422 604 OFFCURVE",
"394 570 CURVE",
"424 561 LINE",
"468 592 OFFCURVE",
"516 579 OFFCURVE",
"622 583 CURVE"
);
},
{
closed = 1;
nodes = (
"709 346 OFFCURVE",
"630 450 OFFCURVE",
"599 450 CURVE SMOOTH",
"574 450 OFFCURVE",
"435 402 OFFCURVE",
"394 378 CURVE",
"328 398 OFFCURVE",
"288 451 OFFCURVE",
"273 451 CURVE SMOOTH",
"251 451 OFFCURVE",
"93 357 OFFCURVE",
"75 341 CURVE SMOOTH",
"62 330 OFFCURVE",
"35 238 OFFCURVE",
"35 125 CURVE SMOOTH",
"35 91 OFFCURVE",
"119 -20 OFFCURVE",
"170 -20 CURVE SMOOTH",
"195 -20 OFFCURVE",
"305 42 OFFCURVE",
"364 82 CURVE",
"389 23 OFFCURVE",
"438 -20 OFFCURVE",
"505 -20 CURVE SMOOTH",
"541 -20 OFFCURVE",
"638 26 OFFCURVE",
"689 52 CURVE",
"686 82 LINE",
"666 78 OFFCURVE",
"613 73 OFFCURVE",
"594 74 CURVE SMOOTH",
"539 77 OFFCURVE",
"508 99 OFFCURVE",
"490 130 CURVE",
"572 196 OFFCURVE",
"709 314 OFFCURVE",
"709 326 CURVE SMOOTH"
);
},
{
closed = 1;
nodes = (
"469 192 OFFCURVE",
"467 222 OFFCURVE",
"467 253 CURVE SMOOTH",
"467 296 OFFCURVE",
"472 367 OFFCURVE",
"509 367 CURVE SMOOTH",
"555 367 OFFCURVE",
"579 316 OFFCURVE",
"579 292 CURVE SMOOTH",
"579 246 OFFCURVE",
"526 197 OFFCURVE",
"476 165 CURVE"
);
},
{
closed = 1;
nodes = (
"173 74 OFFCURVE",
"154 165 OFFCURVE",
"154 225 CURVE SMOOTH",
"154 292 OFFCURVE",
"178 340 OFFCURVE",
"189 360 CURVE",
"244 354 OFFCURVE",
"269 307 OFFCURVE",
"275 307 CURVE SMOOTH",
"279 307 OFFCURVE",
"331 327 OFFCURVE",
"371 345 CURVE",
"358 310 OFFCURVE",
"347 246 OFFCURVE",
"347 172 CURVE SMOOTH",
"347 150 OFFCURVE",
"350 128 OFFCURVE",
"356 108 CURVE",
"326 92 OFFCURVE",
"297 74 OFFCURVE",
"245 74 CURVE SMOOTH"
);
}
);
userData = {
com.schriftgestaltung.Glyphs.ComponentInfo = (
{
alignment = -1;
index = 0;
name = c_e;
}
);
com.schriftgestaltung.Glyphs.lastChange = "2019-04-23 12:30:30 +0000";
};
width = 719;
}
);
leftMetricsKey = c;
rightMetricsKey = e;
},
{
color = 4;
glyphname = c_i;
lastChange = "2020-01-30 17:01:20 +0000";
layers = (
{
anchors = (
{
name = bottom_1;
position = "{148, 0}";
},
{
name = bottom_2;
position = "{415, 0}";
},
{
name = caret_1;
position = "{282, 0}";
},
{
name = top_1;
position = "{148, 430}";
},
{
name = top_2;
position = "{415, 430}";
}
);
layerId = "5FE47517-9953-4891-9518-AB2E2247E448";
paths = (
{
closed = 1;
nodes = (
"487 732 LINE",
"441 588 LINE",
"448 550 LINE",
"451 550 LINE",
"528 714 LINE",
"528 717 LINE",
"490 733 LINE"
);
},
{
closed = 1;
nodes = (
"477 178 OFFCURVE",
"477 243 OFFCURVE",
"478 312 CURVE SMOOTH",
"479 370 OFFCURVE",
"482 413 OFFCURVE",
"487 442 CURVE",
"471 452 LINE",
"437 431 OFFCURVE",
"402 412 OFFCURVE",
"372 396 CURVE",
"297 410 OFFCURVE",
"289 451 OFFCURVE",
"273 451 CURVE SMOOTH",
"251 451 OFFCURVE",
"83 357 OFFCURVE",
"65 341 CURVE SMOOTH",
"52 330 OFFCURVE",
"35 224 OFFCURVE",
"35 125 CURVE SMOOTH",
"35 91 OFFCURVE",
"119 -20 OFFCURVE",
"170 -20 CURVE SMOOTH",
"192 -20 OFFCURVE",
"299 30 OFFCURVE",
"364 69 CURVE",
"369 -1 OFFCURVE",
"410 -20 OFFCURVE",
"432 -20 CURVE SMOOTH",
"445 -20 OFFCURVE",
"485 16 OFFCURVE",
"513 35 CURVE",
"513 54 LINE",
"482 68 OFFCURVE",
"479 80 OFFCURVE",
"478 97 CURVE SMOOTH"
);
},
{
closed = 1;
nodes = (
"154 292 OFFCURVE",
"165 340 OFFCURVE",
"169 360 CURVE",
"234 354 OFFCURVE",
"259 317 OFFCURVE",
"265 317 CURVE SMOOTH",
"269 317 OFFCURVE",
"323 352 OFFCURVE",
"360 374 CURVE",
"369 305 OFFCURVE",
"365 156 OFFCURVE",
"363 103 CURVE",
"332 89 OFFCURVE",
"291 74 OFFCURVE",
"245 74 CURVE SMOOTH",
"173 74 OFFCURVE",
"154 165 OFFCURVE",
"154 225 CURVE SMOOTH"
);
}
);
userData = {
com.schriftgestaltung.Glyphs.lastChange = "2019-03-28 15:56:55 +0000";
};
width = 543;
}
);
leftMetricsKey = c;
},
{
color = 4;
glyphname = c_o;
lastChange = "2020-02-01 19:43:14 +0000";
layers = (
{
anchors = (
{
name = bottom_1;
position = "{200, 0}";
},
{
name = bottom_2;
position = "{569, 0}";
},
{
name = caret_1;
position = "{384, 0}";
},
{
name = top_1;
position = "{200, 430}";
},
{
name = top_2;
position = "{569, 430}";
}
);
layerId = "5FE47517-9953-4891-9518-AB2E2247E448";
paths = (
{
closed = 1;
nodes = (
"536 450 OFFCURVE",
"473 411 OFFCURVE",
"425 378 CURVE",
"338 392 OFFCURVE",
"288 451 OFFCURVE",
"273 451 CURVE SMOOTH",
"251 451 OFFCURVE",
"93 357 OFFCURVE",
"75 341 CURVE SMOOTH",
"62 330 OFFCURVE",
"35 238 OFFCURVE",
"35 125 CURVE SMOOTH",
"35 91 OFFCURVE",
"119 -20 OFFCURVE",
"170 -20 CURVE SMOOTH",
"193 -20 OFFCURVE",
"291 34 OFFCURVE",
"352 74 CURVE",
"384 17 OFFCURVE",
"438 -21 OFFCURVE",
"495 -21 CURVE SMOOTH",
"534 -21 OFFCURVE",
"657 64 OFFCURVE",
"692 100 CURVE SMOOTH",
"722 131 OFFCURVE",
"733 194 OFFCURVE",
"733 230 CURVE SMOOTH",
"733 361 OFFCURVE",
"625 450 OFFCURVE",
"561 450 CURVE SMOOTH"
);
},
{
closed = 1;
nodes = (
"173 74 OFFCURVE",
"154 165 OFFCURVE",
"154 225 CURVE SMOOTH",
"154 292 OFFCURVE",
"178 340 OFFCURVE",
"189 360 CURVE",
"244 354 OFFCURVE",
"289 307 OFFCURVE",
"295 307 CURVE SMOOTH",
"298 307 OFFCURVE",
"327 318 OFFCURVE",
"362 331 CURVE",
"339 303 OFFCURVE",
"320 246 OFFCURVE",
"320 195 CURVE SMOOTH",
"320 161 OFFCURVE",
"327 129 OFFCURVE",
"339 99 CURVE",
"315 86 OFFCURVE",
"288 74 OFFCURVE",
"245 74 CURVE SMOOTH"
);
},
{
closed = 1;
nodes = (
"554 60 OFFCURVE",
"422 90 OFFCURVE",
"422 247 CURVE SMOOTH",
"422 311 OFFCURVE",
"455 351 OFFCURVE",
"478 355 CURVE SMOOTH",
"524 362 OFFCURVE",
"622 318 OFFCURVE",
"622 183 CURVE SMOOTH",
"622 124 OFFCURVE",
"599 76 OFFCURVE",
"577 68 CURVE SMOOTH"
);
}
);
userData = {
com.schriftgestaltung.Glyphs.lastChange = "2019-04-13 12:36:56 +0000";
};
width = 758;
}
);
leftMetricsKey = c;
rightMetricsKey = o;
},
{
color = 4;
glyphname = c_o_macr;
lastChange = "2020-02-01 19:43:14 +0000";
layers = (
{
anchors = (
{
name = bottom_1;
position = "{123, 0}";
},
{
name = bottom_2;
position = "{369, 0}";
},
{
name = bottom_3;
position = "{615, 0}";
},
{
name = caret_1;
position = "{246, 0}";
},
{
name = caret_2;
position = "{492, 0}";
},
{
name = top_1;
position = "{123, 430}";
},
{
name = top_2;
position = "{369, 430}";
},
{
name = top_3;
position = "{615, 430}";
}
);
layerId = "5FE47517-9953-4891-9518-AB2E2247E448";
paths = (
{
closed = 1;
nodes = (
"639 621 OFFCURVE",
"661 664 OFFCURVE",
"684 698 CURVE",
"650 705 LINE",
"634 698 OFFCURVE",
"619 695 OFFCURVE",
"593 693 CURVE SMOOTH",
"566 691 OFFCURVE",
"489 691 OFFCURVE",
"461 689 CURVE",
"444 668 OFFCURVE",
"422 621 OFFCURVE",
"394 587 CURVE",
"424 578 LINE",
"468 609 OFFCURVE",
"516 596 OFFCURVE",
"622 600 CURVE"
);
},
{
closed = 1;
nodes = (
"536 450 OFFCURVE",
"473 411 OFFCURVE",
"425 378 CURVE",
"338 392 OFFCURVE",
"288 451 OFFCURVE",
"273 451 CURVE SMOOTH",
"251 451 OFFCURVE",
"93 357 OFFCURVE",
"75 341 CURVE SMOOTH",
"62 330 OFFCURVE",
"35 238 OFFCURVE",
"35 125 CURVE SMOOTH",
"35 91 OFFCURVE",
"119 -20 OFFCURVE",
"170 -20 CURVE SMOOTH",
"193 -20 OFFCURVE",
"291 34 OFFCURVE",
"352 74 CURVE",
"384 17 OFFCURVE",
"438 -21 OFFCURVE",
"495 -21 CURVE SMOOTH",
"534 -21 OFFCURVE",
"657 64 OFFCURVE",
"692 100 CURVE SMOOTH",
"722 131 OFFCURVE",
"733 194 OFFCURVE",
"733 230 CURVE SMOOTH",
"733 361 OFFCURVE",
"625 450 OFFCURVE",
"561 450 CURVE SMOOTH"
);
},
{
closed = 1;
nodes = (
"173 74 OFFCURVE",
"154 165 OFFCURVE",
"154 225 CURVE SMOOTH",
"154 292 OFFCURVE",
"178 340 OFFCURVE",
"189 360 CURVE",
"244 354 OFFCURVE",
"289 307 OFFCURVE",
"295 307 CURVE SMOOTH",
"298 307 OFFCURVE",
"327 318 OFFCURVE",
"362 331 CURVE",
"339 303 OFFCURVE",
"320 246 OFFCURVE",
"320 195 CURVE SMOOTH",
"320 161 OFFCURVE",
"327 129 OFFCURVE",
"339 99 CURVE",
"315 86 OFFCURVE",
"288 74 OFFCURVE",
"245 74 CURVE SMOOTH"
);
},
{
closed = 1;
nodes = (
"554 60 OFFCURVE",
"422 90 OFFCURVE",
"422 247 CURVE SMOOTH",
"422 311 OFFCURVE",
"455 351 OFFCURVE",
"478 355 CURVE SMOOTH",
"524 362 OFFCURVE",
"622 318 OFFCURVE",
"622 183 CURVE SMOOTH",
"622 124 OFFCURVE",
"599 76 OFFCURVE",
"577 68 CURVE SMOOTH"
);
}
);
userData = {
com.schriftgestaltung.Glyphs.ComponentInfo = (
{
alignment = -1;
index = 0;
name = c_o;
}
);
com.schriftgestaltung.Glyphs.lastChange = "2019-04-23 12:30:03 +0000";
};
width = 758;
}
);
rightMetricsKey = o;
},
{
color = 4;
glyphname = c_r;
lastChange = "2020-02-04 05:23:35 +0000";
layers = (
{
anchors = (
{
name = bottom;
position = "{186, 0}";
},
{
name = bottom_1;
position = "{156, 0}";
},
{
name = bottom_2;
position = "{468, 0}";
},
{
name = caret_1;
position = "{312, 0}";
},
{
name = top;
position = "{186, 430}";
},
{
name = top_1;
position = "{156, 430}";
},
{
name = top_2;
position = "{468, 430}";
}
);
layerId = "5FE47517-9953-4891-9518-AB2E2247E448";
paths = (
{
closed = 1;
nodes = (
"544 428 OFFCURVE",
"510 392 OFFCURVE",
"485 369 CURVE",
"471 402 OFFCURVE",
"426 434 OFFCURVE",
"382 450 CURVE SMOOTH",
"377 452 OFFCURVE",
"349 429 OFFCURVE",
"321 404 CURVE",
"274 422 OFFCURVE",
"266 451 OFFCURVE",
"253 451 CURVE SMOOTH",
"231 451 OFFCURVE",
"84 356 OFFCURVE",
"65 341 CURVE SMOOTH",
"52 330 OFFCURVE",
"35 224 OFFCURVE",
"35 125 CURVE SMOOTH",
"35 91 OFFCURVE",
"119 -20 OFFCURVE",
"170 -20 CURVE SMOOTH",
"195 -20 OFFCURVE",
"287 38 OFFCURVE",
"346 78 CURVE",
"346 103 LINE",
"312 97 OFFCURVE",
"249 82 OFFCURVE",
"213 97 CURVE SMOOTH",
"174 113 OFFCURVE",
"160 172 OFFCURVE",
"160 272 CURVE SMOOTH",
"160 299 OFFCURVE",
"165 340 OFFCURVE",
"169 360 CURVE",
"214 354 OFFCURVE",
"239 317 OFFCURVE",
"245 317 CURVE SMOOTH",
"248 317 OFFCURVE",
"281 338 OFFCURVE",
"313 357 CURVE",
"343 351 OFFCURVE",
"375 327 OFFCURVE",
"375 278 CURVE SMOOTH",
"375 -5 LINE",
"379 -7 LINE",
"494 0 LINE",
"490 102 OFFCURVE",
"489 200 OFFCURVE",
"490 302 CURVE SMOOTH",
"490 328 LINE",
"495 332 OFFCURVE",
"507 339 OFFCURVE",
"510 339 CURVE SMOOTH",
"512 339 OFFCURVE",
"548 305 OFFCURVE",
"552 305 CURVE SMOOTH",
"558 305 OFFCURVE",
"644 376 OFFCURVE",
"644 380 CURVE SMOOTH",
"644 389 OFFCURVE",
"576 455 OFFCURVE",
"570 450 CURVE SMOOTH"
);
}
);
userData = {
com.schriftgestaltung.Glyphs.ComponentInfo = (
{
alignment = -1;
index = 0;
name = c;
}
);
com.schriftgestaltung.Glyphs.lastChange = "2019-03-28 15:56:55 +0000";
};
width = 644;
}
);
leftMetricsKey = c;
rightMetricsKey = r;
},
{
color = 4;
glyphname = c_t;
lastChange = "2020-02-01 19:43:14 +0000";
layers = (
{
anchors = (
{
name = bottom_1;
position = "{135, 0}";
},
{
name = bottom_2;
position = "{454, 0}";
},
{
name = caret_1;
position = "{294, 0}";
},
{
name = top_1;
position = "{135, 430}";
},
{
name = top_2;
position = "{454, 430}";
}
);
layerId = "5FE47517-9953-4891-9518-AB2E2247E448";
paths = (
{
closed = 1;
nodes = (
"168 -20 OFFCURVE",
"279 11 OFFCURVE",
"363 65 CURVE",
"368 30 OFFCURVE",
"434 -20 OFFCURVE",
"463 -20 CURVE SMOOTH",
"499 -20 OFFCURVE",
"543 35 OFFCURVE",
"585 70 CURVE",
"584 93 LINE",
"530 84 OFFCURVE",
"488 93 OFFCURVE",
"484 131 CURVE SMOOTH",
"477 201 OFFCURVE",
"477 272 OFFCURVE",
"482 342 CURVE",
"613 341 LINE",
"613 430 LINE",
"483 430 LINE",
"481 549 LINE SMOOTH",
"480 609 OFFCURVE",
"453 660 OFFCURVE",
"389 660 CURVE SMOOTH",
"332 660 OFFCURVE",
"201 605 OFFCURVE",
"97 538 CURVE",
"104 510 LINE",
"174 559 OFFCURVE",
"238 577 OFFCURVE",
"288 577 CURVE SMOOTH",
"336 577 OFFCURVE",
"372 551 OFFCURVE",
"371 497 CURVE SMOOTH",
"370 404 LINE SMOOTH",
"370 391 OFFCURVE",
"350 372 OFFCURVE",
"336 372 CURVE SMOOTH",
"279 372 OFFCURVE",
"259 451 OFFCURVE",
"243 451 CURVE SMOOTH",
"221 451 OFFCURVE",
"74 356 OFFCURVE",
"55 341 CURVE SMOOTH",
"42 330 OFFCURVE",
"25 224 OFFCURVE",
"25 125 CURVE SMOOTH",
"25 91 OFFCURVE",
"109 -20 OFFCURVE",
"160 -20 CURVE SMOOTH"
);
},
{
closed = 1;
nodes = (
"164 113 OFFCURVE",
"150 165 OFFCURVE",
"150 265 CURVE SMOOTH",
"150 292 OFFCURVE",
"155 333 OFFCURVE",
"159 353 CURVE",
"204 347 OFFCURVE",
"223 299 OFFCURVE",
"229 299 CURVE SMOOTH",
"237 299 OFFCURVE",
"337 347 OFFCURVE",
"350 347 CURVE SMOOTH",
"363 347 OFFCURVE",
"368 340 OFFCURVE",
"369 330 CURVE SMOOTH",
"372 274 OFFCURVE",
"371 193 OFFCURVE",
"365 97 CURVE",
"292 82 OFFCURVE",
"233 84 OFFCURVE",
"203 97 CURVE SMOOTH"
);
}
);
userData = {
com.schriftgestaltung.Glyphs.lastChange = "2019-04-13 12:36:56 +0000";
};
width = 613;
}
);
leftMetricsKey = o;
rightMetricsKey = t;
unicode = EEC5;
},
{
color = 4;
glyphname = c_u;
lastChange = "2020-01-30 17:01:20 +0000";
layers = (
{
anchors = (
{
name = bottom_1;
position = "{202, 0}";
},
{
name = bottom_2;
position = "{576, 0}";
},
{
name = caret_1;
position = "{389, 0}";
},
{
name = top_1;
position = "{202, 430}";
},
{
name = top_2;
position = "{576, 430}";
}
);
layerId = "5FE47517-9953-4891-9518-AB2E2247E448";
paths = (
{
closed = 1;
nodes = (
"726 80 OFFCURVE",
"696 88 OFFCURVE",
"695 124 CURVE SMOOTH",
"692 220 OFFCURVE",
"693 343 OFFCURVE",
"699 450 CURVE",
"693 452 LINE",
"574 396 LINE",
"583 313 OFFCURVE",
"580 187 OFFCURVE",
"580 104 CURVE",
"564 90 OFFCURVE",
"543 73 OFFCURVE",
"518 73 CURVE SMOOTH",
"484 73 OFFCURVE",
"471 103 OFFCURVE",
"471 134 CURVE SMOOTH",
"471 239 OFFCURVE",
"467 345 OFFCURVE",
"471 450 CURVE",
"465 452 LINE",
"352 401 LINE",
"295 418 OFFCURVE",
"287 451 OFFCURVE",
"273 451 CURVE SMOOTH",
"251 451 OFFCURVE",
"83 357 OFFCURVE",
"65 341 CURVE SMOOTH",
"52 330 OFFCURVE",
"35 224 OFFCURVE",
"35 125 CURVE SMOOTH",
"35 91 OFFCURVE",
"119 -20 OFFCURVE",
"170 -20 CURVE SMOOTH",
"192 -20 OFFCURVE",
"294 27 OFFCURVE",
"359 66 CURVE",
"359 65 LINE SMOOTH",
"359 28 OFFCURVE",
"374 -24 OFFCURVE",
"425 -24 CURVE SMOOTH",
"471 -24 OFFCURVE",
"542 43 OFFCURVE",
"585 62 CURVE",
"588 49 LINE SMOOTH",
"596 16 OFFCURVE",
"621 -20 OFFCURVE",
"660 -20 CURVE SMOOTH",
"681 -20 OFFCURVE",
"743 41 OFFCURVE",
"758 58 CURVE",
"756 81 LINE"
);
},
{
closed = 1;
nodes = (
"173 74 OFFCURVE",
"154 165 OFFCURVE",
"154 225 CURVE SMOOTH",
"154 292 OFFCURVE",
"165 340 OFFCURVE",
"169 360 CURVE",
"234 354 OFFCURVE",
"259 317 OFFCURVE",
"265 317 CURVE SMOOTH",
"269 317 OFFCURVE",
"311 344 OFFCURVE",
"346 366 CURVE",
"365 280 OFFCURVE",
"361 187 OFFCURVE",
"359 101 CURVE",
"328 87 OFFCURVE",
"289 74 OFFCURVE",
"245 74 CURVE SMOOTH"
);
}
);
userData = {
com.schriftgestaltung.Glyphs.lastChange = "2019-01-14 10:49:22 +0000";
};
width = 763;
}
);
leftMetricsKey = c;
rightMetricsKey = u;
},
{
color = 4;
glyphname = c_u_macr;
lastChange = "2020-01-30 17:01:20 +0000";
layers = (
{
anchors = (
{
name = bottom_1;
position = "{125, 0}";
},
{
name = bottom_2;
position = "{374, 0}";
},
{
name = bottom_3;
position = "{623, 0}";
},
{
name = caret_1;
position = "{249.333, 0}";
},
{
name = caret_2;
position = "{498.667, 0}";
},
{
name = top_1;
position = "{125, 430}";
},
{
name = top_2;
position = "{374, 430}";
},
{
name = top_3;
position = "{623, 430}";
}
);
layerId = "5FE47517-9953-4891-9518-AB2E2247E448";
paths = (
{
closed = 1;
nodes = (
"639 621 OFFCURVE",
"661 664 OFFCURVE",
"684 698 CURVE",
"650 705 LINE",
"634 698 OFFCURVE",
"619 695 OFFCURVE",
"593 693 CURVE SMOOTH",
"566 691 OFFCURVE",
"472 691 OFFCURVE",
"444 689 CURVE",
"427 668 OFFCURVE",
"405 621 OFFCURVE",
"377 587 CURVE",
"407 578 LINE",
"451 609 OFFCURVE",
"499 596 OFFCURVE",
"622 600 CURVE"
);
},
{
closed = 1;
nodes = (
"726 80 OFFCURVE",
"696 88 OFFCURVE",
"695 124 CURVE SMOOTH",
"692 220 OFFCURVE",
"693 343 OFFCURVE",
"699 450 CURVE",
"693 452 LINE",
"574 396 LINE",
"583 313 OFFCURVE",
"580 187 OFFCURVE",
"580 104 CURVE",
"564 90 OFFCURVE",
"543 73 OFFCURVE",
"518 73 CURVE SMOOTH",
"484 73 OFFCURVE",
"471 103 OFFCURVE",
"471 134 CURVE SMOOTH",
"471 239 OFFCURVE",
"467 345 OFFCURVE",
"471 450 CURVE",
"465 452 LINE",
"352 401 LINE",
"295 418 OFFCURVE",
"287 451 OFFCURVE",
"273 451 CURVE SMOOTH",
"251 451 OFFCURVE",
"83 357 OFFCURVE",
"65 341 CURVE SMOOTH",
"52 330 OFFCURVE",
"35 224 OFFCURVE",
"35 125 CURVE SMOOTH",
"35 91 OFFCURVE",
"119 -20 OFFCURVE",
"170 -20 CURVE SMOOTH",
"192 -20 OFFCURVE",
"294 27 OFFCURVE",
"359 66 CURVE",
"359 65 LINE SMOOTH",
"359 28 OFFCURVE",
"374 -24 OFFCURVE",
"425 -24 CURVE SMOOTH",
"471 -24 OFFCURVE",
"542 43 OFFCURVE",
"585 62 CURVE",
"588 49 LINE SMOOTH",
"596 16 OFFCURVE",
"621 -20 OFFCURVE",
"660 -20 CURVE SMOOTH",
"681 -20 OFFCURVE",
"743 41 OFFCURVE",
"758 58 CURVE",
"756 81 LINE"
);
},
{
closed = 1;
nodes = (
"173 74 OFFCURVE",
"154 165 OFFCURVE",
"154 225 CURVE SMOOTH",
"154 292 OFFCURVE",
"165 340 OFFCURVE",
"169 360 CURVE",
"234 354 OFFCURVE",
"259 317 OFFCURVE",
"265 317 CURVE SMOOTH",
"269 317 OFFCURVE",
"311 344 OFFCURVE",
"346 366 CURVE",
"365 280 OFFCURVE",
"361 187 OFFCURVE",
"359 101 CURVE",
"328 87 OFFCURVE",
"289 74 OFFCURVE",
"245 74 CURVE SMOOTH"
);
}
);
userData = {
com.schriftgestaltung.Glyphs.ComponentInfo = (
{
alignment = -1;
index = 0;
name = c_u;
}
);
com.schriftgestaltung.Glyphs.lastChange = "2019-04-23 12:31:13 +0000";
};
width = 748;
}
);
},
{
color = 4;
glyphname = d;
lastChange = "2020-02-01 19:43:14 +0000";
layers = (
{
anchors = (
{
name = bottom;
position = "{258, 0}";
},
{
name = center;
position = "{258, 215}";
},
{
name = top;
position = "{258, 430}";
},
{
name = topright;
position = "{485, 430}";
}
);
layerId = "5FE47517-9953-4891-9518-AB2E2247E448";
paths = (
{
closed = 0;
nodes = (
"460 719 LINE"
);
},
{
closed = 1;
nodes = (
"456 342 OFFCURVE",
"459 592 OFFCURVE",
"466 714 CURVE",
"460 719 LINE",
"288 640 LINE",
"297 619 LINE",
"316 627 LINE",
"352 603 OFFCURVE",
"353 559 OFFCURVE",
"357 447 CURVE SMOOTH",
"357 443 LINE",
"99 312 LINE SMOOTH",
"56 290 OFFCURVE",
"25 252 OFFCURVE",
"25 168 CURVE SMOOTH",
"25 73 OFFCURVE",
"81 -10 OFFCURVE",
"202 -20 CURVE",
"252 9 OFFCURVE",
"306 46 OFFCURVE",
"354 75 CURVE",
"354 69 LINE SMOOTH",
"353 24 OFFCURVE",
"376 -19 OFFCURVE",
"422 -19 CURVE SMOOTH",
"437 -19 OFFCURVE",
"473 31 OFFCURVE",
"500 53 CURVE",
"500 70 LINE",
"466 75 OFFCURVE",
"456 92 OFFCURVE",
"456 127 CURVE SMOOTH"
);
},
{
closed = 1;
nodes = (
"199 76 OFFCURVE",
"142 118 OFFCURVE",
"142 198 CURVE SMOOTH",
"142 277 OFFCURVE",
"192 332 OFFCURVE",
"254 332 CURVE SMOOTH",
"286 332 OFFCURVE",
"351 319 OFFCURVE",
"356 231 CURVE SMOOTH",
"356 209 OFFCURVE",
"355 185 OFFCURVE",
"355 160 CURVE",
"333 104 OFFCURVE",
"294 76 OFFCURVE",
"253 76 CURVE SMOOTH"
);
}
);
userData = {
com.schriftgestaltung.Glyphs.lastChange = "2019-04-13 12:36:56 +0000";
};
width = 515;
}
);
leftMetricsKey = o;
unicode = 0064;
},
{
color = 4;
glyphname = d.ss01;
lastChange = "2020-01-30 17:01:20 +0000";
layers = (
{
anchors = (
{
name = bottom;
position = "{256, 0}";
},
{
name = center;
position = "{256, 215}";
},
{
name = top;
position = "{256, 430}";
},
{
name = topright;
position = "{491, 430}";
}
);
layerId = "5FE47517-9953-4891-9518-AB2E2247E448";
paths = (
{
closed = 1;
nodes = (
"457 444 OFFCURVE",
"281 473 OFFCURVE",
"178 496 CURVE SMOOTH",
"133 506 OFFCURVE",
"145 538 OFFCURVE",
"179 571 CURVE",
"164 585 LINE",
"121 554 OFFCURVE",
"20 499 OFFCURVE",
"20 460 CURVE SMOOTH",
"20 417 OFFCURVE",
"90 394 OFFCURVE",
"167 376 CURVE",
"93 334 OFFCURVE",
"42 267 OFFCURVE",
"42 231 CURVE SMOOTH",
"42 96 OFFCURVE",
"145 -19 OFFCURVE",
"205 -19 CURVE SMOOTH",
"264 -19 OFFCURVE",
"426 80 OFFCURVE",
"461 130 CURVE SMOOTH",
"486 166 OFFCURVE",
"502 339 OFFCURVE",
"482 386 CURVE SMOOTH"
);
},
{
closed = 1;
nodes = (
"301 68 OFFCURVE",
"271 69 OFFCURVE",
"255 75 CURVE SMOOTH",
"209 92 OFFCURVE",
"168 167 OFFCURVE",
"168 240 CURVE SMOOTH",
"168 304 OFFCURVE",
"185 340 OFFCURVE",
"208 367 CURVE",
"279 352 OFFCURVE",
"348 339 OFFCURVE",
"364 316 CURVE SMOOTH",
"379 295 OFFCURVE",
"355 107 OFFCURVE",
"308 73 CURVE SMOOTH"
);
}
);
userData = {
com.schriftgestaltung.Glyphs.lastChange = "2019-01-07 10:00:03 +0000";
};
width = 511;
}
);
},
{
color = 4;
glyphname = d_strok;
lastChange = "2020-01-30 17:01:20 +0000";
layers = (
{
anchors = (
{
name = bottom;
position = "{256, 0}";
},
{
name = center;
position = "{256, 215}";
},
{
name = top;
position = "{256, 430}";
},
{
name = topright;
position = "{491, 430}";
}
);
layerId = "5FE47517-9953-4891-9518-AB2E2247E448";
paths = (
{
closed = 1;
nodes = (
"466 422 OFFCURVE",
"392 447 OFFCURVE",
"313 466 CURVE",
"382 528 OFFCURVE",
"453 605 OFFCURVE",
"453 617 CURVE SMOOTH",
"453 681 OFFCURVE",
"418 720 OFFCURVE",
"369 720 CURVE SMOOTH",
"345 720 OFFCURVE",
"284 672 OFFCURVE",
"236 643 CURVE",
"244 626 LINE",
"256 629 OFFCURVE",
"281 636 OFFCURVE",
"299 636 CURVE SMOOTH",
"322 636 OFFCURVE",
"341 619 OFFCURVE",
"341 589 CURVE SMOOTH",
"341 551 OFFCURVE",
"302 507 OFFCURVE",
"271 476 CURVE",
"178 496 LINE SMOOTH",
"133 506 OFFCURVE",
"145 538 OFFCURVE",
"179 571 CURVE",
"164 585 LINE",
"121 554 OFFCURVE",
"20 499 OFFCURVE",
"20 460 CURVE SMOOTH",
"20 417 OFFCURVE",
"90 394 OFFCURVE",
"167 376 CURVE",
"93 334 OFFCURVE",
"42 267 OFFCURVE",
"42 231 CURVE SMOOTH",
"42 96 OFFCURVE",
"145 -19 OFFCURVE",
"205 -19 CURVE SMOOTH",
"264 -19 OFFCURVE",
"426 80 OFFCURVE",
"461 130 CURVE SMOOTH",
"486 166 OFFCURVE",
"502 339 OFFCURVE",
"482 386 CURVE SMOOTH"
);
},
{
closed = 1;
nodes = (
"301 68 OFFCURVE",
"271 69 OFFCURVE",
"255 75 CURVE SMOOTH",
"209 92 OFFCURVE",
"168 167 OFFCURVE",
"168 240 CURVE SMOOTH",
"168 304 OFFCURVE",
"185 340 OFFCURVE",
"208 367 CURVE",
"279 352 OFFCURVE",
"348 339 OFFCURVE",
"364 316 CURVE SMOOTH",
"379 295 OFFCURVE",
"355 107 OFFCURVE",
"308 73 CURVE SMOOTH"
);
}
);
userData = {
com.schriftgestaltung.Glyphs.lastChange = "2019-03-28 15:56:55 +0000";
};
width = 511;
}
);
leftMetricsKey = d.ss01;
rightMetricsKey = d.ss01;
unicode = 0111;
},
{
color = 4;
glyphname = d_e;
lastChange = "2020-02-04 05:23:45 +0000";
layers = (
{
anchors = (
{
name = bottom;
position = "{571, 0}";
},
{
name = bottom_1;
position = "{185, 0}";
},
{
name = bottom_2;
position = "{555, 0}";
},
{
name = caret_1;
position = "{370, 0}";
},
{
name = center_1;
position = "{0, 0}";
},
{
name = center_2;
position = "{0, 0}";
},
{
name = ogonek;
position = "{721, 10}";
},
{
name = top;
position = "{571, 430}";
},
{
name = top_1;
position = "{185, 430}";
},
{
name = top_2;
position = "{555, 430}";
},
{
name = topright_1;
position = "{0, 0}";
},
{
name = topright_2;
position = "{0, 0}";
}
);
layerId = "5FE47517-9953-4891-9518-AB2E2247E448";
paths = (
{
closed = 1;
nodes = (
"754 346 OFFCURVE",
"675 450 OFFCURVE",
"644 450 CURVE SMOOTH",
"625 450 OFFCURVE",
"539 412 OFFCURVE",
"482 383 CURVE",
"479 386 LINE SMOOTH",
"454 406 OFFCURVE",
"148 496 OFFCURVE",
"148 546 CURVE SMOOTH",
"148 553 OFFCURVE",
"148 562 OFFCURVE",
"202 597 CURVE",
"185 615 LINE",
"122 582 OFFCURVE",
"20 549 OFFCURVE",
"20 510 CURVE SMOOTH",
"20 453 OFFCURVE",
"110 416 OFFCURVE",
"198 385 CURVE",
"130 334 OFFCURVE",
"42 282 OFFCURVE",
"42 261 CURVE SMOOTH",
"42 96 OFFCURVE",
"125 -19 OFFCURVE",
"255 -19 CURVE SMOOTH",
"269 -19 OFFCURVE",
"357 36 OFFCURVE",
"415 84 CURVE",
"445 23 OFFCURVE",
"503 -20 OFFCURVE",
"570 -20 CURVE SMOOTH",
"606 -20 OFFCURVE",
"683 26 OFFCURVE",
"734 52 CURVE",
"731 82 LINE",
"711 78 OFFCURVE",
"658 73 OFFCURVE",
"639 74 CURVE SMOOTH",
"584 77 OFFCURVE",
"553 99 OFFCURVE",
"535 130 CURVE",
"617 196 OFFCURVE",
"754 314 OFFCURVE",
"754 326 CURVE SMOOTH"
);
},
{
closed = 1;
nodes = (
"218 83 OFFCURVE",
"178 154 OFFCURVE",
"178 240 CURVE SMOOTH",
"178 307 OFFCURVE",
"205 343 OFFCURVE",
"240 371 CURVE",
"299 351 OFFCURVE",
"351 334 OFFCURVE",
"364 316 CURVE SMOOTH",
"394 275 OFFCURVE",
"366 83 OFFCURVE",
"308 83 CURVE SMOOTH"
);
},
{
closed = 1;
nodes = (
"514 192 OFFCURVE",
"512 222 OFFCURVE",
"512 253 CURVE SMOOTH",
"512 296 OFFCURVE",
"517 367 OFFCURVE",
"554 367 CURVE SMOOTH",
"600 367 OFFCURVE",
"624 316 OFFCURVE",
"624 292 CURVE SMOOTH",
"624 246 OFFCURVE",
"571 197 OFFCURVE",
"521 165 CURVE"
);
}
);
userData = {
com.schriftgestaltung.Glyphs.lastChange = "2019-01-14 09:18:15 +0000";
};
width = 764;
}
);
leftMetricsKey = d.ss01;
rightMetricsKey = e;
},
{
color = 4;
glyphname = d_o;
lastChange = "2020-02-04 05:23:49 +0000";
layers = (
{
anchors = (
{
name = bottom;
position = "{598, 0}";
},
{
name = bottom_1;
position = "{206, 0}";
},
{
name = bottom_2;
position = "{618, 0}";
},
{
name = caret_1;
position = "{412, 0}";
},
{
name = center;
position = "{598, 215}";
},
{
name = center_1;
position = "{0, 0}";
},
{
name = center_2;
position = "{0, 0}";
},
{
name = ogonek;
position = "{779, 10}";
},
{
name = top;
position = "{598, 430}";
},
{
name = top_1;
position = "{206, 430}";
},
{
name = top_2;
position = "{618, 430}";
},
{
name = topright;
position = "{804, 430}";
},
{
name = topright_1;
position = "{0, 0}";
},
{
name = topright_2;
position = "{0, 0}";
}
);
layerId = "5FE47517-9953-4891-9518-AB2E2247E448";
paths = (
{
closed = 1;
nodes = (
"610 444 OFFCURVE",
"559 411 OFFCURVE",
"514 380 CURVE",
"513 381 LINE SMOOTH",
"489 402 OFFCURVE",
"148 496 OFFCURVE",
"148 546 CURVE SMOOTH",
"148 553 OFFCURVE",
"148 562 OFFCURVE",
"202 597 CURVE",
"185 615 LINE",
"122 582 OFFCURVE",
"20 549 OFFCURVE",
"20 510 CURVE SMOOTH",
"20 453 OFFCURVE",
"110 416 OFFCURVE",
"198 385 CURVE",
"130 334 OFFCURVE",
"42 282 OFFCURVE",
"42 261 CURVE SMOOTH",
"42 96 OFFCURVE",
"125 -19 OFFCURVE",
"255 -19 CURVE SMOOTH",
"269 -19 OFFCURVE",
"356 35 OFFCURVE",
"414 84 CURVE",
"448 25 OFFCURVE",
"506 -15 OFFCURVE",
"566 -21 CURVE",
"605 -21 OFFCURVE",
"718 64 OFFCURVE",
"763 100 CURVE",
"793 132 OFFCURVE",
"809 198 OFFCURVE",
"809 234 CURVE SMOOTH",
"809 365 OFFCURVE",
"706 441 OFFCURVE",
"632 450 CURVE"
);
},
{
closed = 1;
nodes = (
"218 83 OFFCURVE",
"178 154 OFFCURVE",
"178 240 CURVE SMOOTH",
"178 307 OFFCURVE",
"205 343 OFFCURVE",
"240 371 CURVE",
"299 351 OFFCURVE",
"351 334 OFFCURVE",
"364 316 CURVE SMOOTH",
"394 275 OFFCURVE",
"366 83 OFFCURVE",
"308 83 CURVE SMOOTH"
);
},
{
closed = 1;
nodes = (
"625 60 OFFCURVE",
"493 90 OFFCURVE",
"493 247 CURVE SMOOTH",
"493 311 OFFCURVE",
"526 351 OFFCURVE",
"549 355 CURVE SMOOTH",
"595 362 OFFCURVE",
"693 318 OFFCURVE",
"693 183 CURVE SMOOTH",
"693 124 OFFCURVE",
"670 76 OFFCURVE",
"648 68 CURVE SMOOTH"
);
}
);
userData = {
com.schriftgestaltung.Glyphs.lastChange = "2019-01-14 08:57:00 +0000";
};
width = 834;
}
);
leftMetricsKey = d.ss01;
rightMetricsKey = o;
},
{
color = 4;
glyphname = e;
lastChange = "2020-01-30 17:01:20 +0000";
layers = (
{
anchors = (
{
name = bottom;
position = "{208, 0}";
},
{
name = ogonek;
position = "{358, 10}";
},
{
name = top;
position = "{208, 430}";
}
);
layerId = "5FE47517-9953-4891-9518-AB2E2247E448";
paths = (
{
closed = 1;
nodes = (
"391 346 OFFCURVE",
"312 450 OFFCURVE",
"281 450 CURVE SMOOTH",
"253 450 OFFCURVE",
"88 372 OFFCURVE",
"67 352 CURVE SMOOTH",
"50 336 OFFCURVE",
"30 284 OFFCURVE",
"30 182 CURVE SMOOTH",
"30 73 OFFCURVE",
"108 -20 OFFCURVE",
"207 -20 CURVE SMOOTH",
"243 -20 OFFCURVE",
"320 26 OFFCURVE",
"371 52 CURVE",
"368 82 LINE",
"348 78 OFFCURVE",
"295 73 OFFCURVE",
"276 74 CURVE SMOOTH",
"221 77 OFFCURVE",
"190 99 OFFCURVE",
"172 130 CURVE",
"254 196 OFFCURVE",
"391 314 OFFCURVE",
"391 326 CURVE SMOOTH"
);
},
{
closed = 1;
nodes = (
"151 192 OFFCURVE",
"149 222 OFFCURVE",
"149 253 CURVE SMOOTH",
"149 296 OFFCURVE",
"154 367 OFFCURVE",
"191 367 CURVE SMOOTH",
"237 367 OFFCURVE",
"261 316 OFFCURVE",
"261 292 CURVE SMOOTH",
"261 246 OFFCURVE",
"208 197 OFFCURVE",
"158 165 CURVE"
);
}
);
userData = {
com.schriftgestaltung.Glyphs.lastChange = "2019-01-14 09:07:19 +0000";
};
width = 401;
}
);
unicode = 0065;
},
{
color = 4;
glyphname = e_hook;
lastChange = "2020-02-01 18:25:27 +0000";
layers = (
{
anchors = (
{
name = bottom;
position = "{189, 0}";
},
{
name = ogonek;
position = "{339, 10}";
},
{
name = top;
position = "{189, 430}";
}
);
layerId = "5FE47517-9953-4891-9518-AB2E2247E448";
paths = (
{
closed = 1;
nodes = (
"194 491 LINE",
"303 555 OFFCURVE",
"390 599 OFFCURVE",
"390 664 CURVE SMOOTH",
"390 701 OFFCURVE",
"360 734 OFFCURVE",
"305 751 CURVE",
"299 751 LINE",
"191 711 LINE",
"191 706 LINE",
"245 689 OFFCURVE",
"268 659 OFFCURVE",
"268 620 CURVE SMOOTH",
"268 584 OFFCURVE",
"230 542 OFFCURVE",
"170 513 CURVE"
);
},
{
closed = 1;
nodes = (
"391 346 OFFCURVE",
"312 450 OFFCURVE",
"281 450 CURVE SMOOTH",
"253 450 OFFCURVE",
"88 372 OFFCURVE",
"67 352 CURVE SMOOTH",
"50 336 OFFCURVE",
"30 284 OFFCURVE",
"30 182 CURVE SMOOTH",
"30 73 OFFCURVE",
"108 -20 OFFCURVE",
"207 -20 CURVE SMOOTH",
"243 -20 OFFCURVE",
"320 26 OFFCURVE",
"371 52 CURVE",
"368 82 LINE",
"348 78 OFFCURVE",
"295 73 OFFCURVE",
"276 74 CURVE SMOOTH",
"221 77 OFFCURVE",
"190 99 OFFCURVE",
"172 130 CURVE",
"254 196 OFFCURVE",
"391 314 OFFCURVE",
"391 326 CURVE SMOOTH"
);
},
{
closed = 1;
nodes = (
"151 192 OFFCURVE",
"149 222 OFFCURVE",
"149 253 CURVE SMOOTH",
"149 296 OFFCURVE",
"154 367 OFFCURVE",
"191 367 CURVE SMOOTH",
"237 367 OFFCURVE",
"261 316 OFFCURVE",
"261 292 CURVE SMOOTH",
"261 246 OFFCURVE",
"208 197 OFFCURVE",
"158 165 CURVE"
);
}
);
userData = {
com.schriftgestaltung.Glyphs.ComponentInfo = (
{
alignment = -1;
index = 0;
name = e;
}
);
com.schriftgestaltung.Glyphs.lastChange = "2019-04-13 11:17:08 +0000";
};
width = 401;
}
);
leftMetricsKey = e;
rightMetricsKey = e;
},
{
color = 4;
glyphname = e_macr;
lastChange = "2020-02-01 18:25:38 +0000";
layers = (
{
anchors = (
{
name = bottom;
position = "{189, 0}";
},
{
name = ogonek;
position = "{339, 10}";
},
{
name = top;
position = "{189, 430}";
}
);
layerId = "5FE47517-9953-4891-9518-AB2E2247E448";
paths = (
{
closed = 1;
nodes = (
"208 550 OFFCURVE",
"276 543 OFFCURVE",
"304 543 CURVE SMOOTH",
"319 543 OFFCURVE",
"360 604 OFFCURVE",
"389 636 CURVE",
"356 645 LINE",
"340 639 OFFCURVE",
"325 637 OFFCURVE",
"300 637 CURVE SMOOTH",
"273 637 OFFCURVE",
"208 641 OFFCURVE",
"180 641 CURVE SMOOTH",
"166 641 OFFCURVE",
"103 568 OFFCURVE",
"72 536 CURVE",
"101 525 LINE",
"120 537 OFFCURVE",
"156 550 OFFCURVE",
"181 550 CURVE SMOOTH"
);
},
{
closed = 1;
nodes = (
"391 346 OFFCURVE",
"312 450 OFFCURVE",
"281 450 CURVE SMOOTH",
"253 450 OFFCURVE",
"88 372 OFFCURVE",
"67 352 CURVE SMOOTH",
"50 336 OFFCURVE",
"30 284 OFFCURVE",
"30 182 CURVE SMOOTH",
"30 73 OFFCURVE",
"108 -20 OFFCURVE",
"207 -20 CURVE SMOOTH",
"243 -20 OFFCURVE",
"320 26 OFFCURVE",
"371 52 CURVE",
"368 82 LINE",
"348 78 OFFCURVE",
"295 73 OFFCURVE",
"276 74 CURVE SMOOTH",
"221 77 OFFCURVE",
"190 99 OFFCURVE",
"172 130 CURVE",
"254 196 OFFCURVE",
"391 314 OFFCURVE",
"391 326 CURVE SMOOTH"
);
},
{
closed = 1;
nodes = (
"151 192 OFFCURVE",
"149 222 OFFCURVE",
"149 253 CURVE SMOOTH",
"149 296 OFFCURVE",
"154 367 OFFCURVE",
"191 367 CURVE SMOOTH",
"237 367 OFFCURVE",
"261 316 OFFCURVE",
"261 292 CURVE SMOOTH",
"261 246 OFFCURVE",
"208 197 OFFCURVE",
"158 165 CURVE"
);
}
);
userData = {
com.schriftgestaltung.Glyphs.ComponentInfo = (
{
alignment = -1;
index = 0;
name = e;
}
);
com.schriftgestaltung.Glyphs.lastChange = "2019-04-23 08:56:55 +0000";
};
width = 401;
}
);
leftMetricsKey = e;
rightMetricsKey = e;
unicode = 0113;
},
{
color = 4;
glyphname = e_c;
lastChange = "2020-01-30 17:01:20 +0000";
layers = (
{
anchors = (
{
name = bottom_1;
position = "{188, 0}";
},
{
name = bottom_2;
position = "{523, 0}";
},
{
name = caret_1;
position = "{355, 0}";
},
{
name = ogonek_1;
position = "{20, 0}";
},
{
name = ogonek_2;
position = "{20, 0}";
},
{
name = top_1;
position = "{188, 430}";
},
{
name = top_2;
position = "{523, 430}";
}
);
layerId = "5FE47517-9953-4891-9518-AB2E2247E448";
paths = (
{
closed = 1;
nodes = (
"583 317 OFFCURVE",
"649 360 OFFCURVE",
"685 381 CURVE",
"685 396 LINE",
"610 410 OFFCURVE",
"602 451 OFFCURVE",
"586 451 CURVE SMOOTH",
"564 451 OFFCURVE",
"417 356 OFFCURVE",
"398 341 CURVE SMOOTH",
"385 330 OFFCURVE",
"369 197 OFFCURVE",
"368 98 CURVE",
"341 86 OFFCURVE",
"308 73 OFFCURVE",
"277 74 CURVE SMOOTH",
"221 75 OFFCURVE",
"190 98 OFFCURVE",
"172 130 CURVE",
"249 196 OFFCURVE",
"364 314 OFFCURVE",
"364 326 CURVE SMOOTH",
"364 346 OFFCURVE",
"293 450 OFFCURVE",
"262 450 CURVE SMOOTH",
"234 450 OFFCURVE",
"89 372 OFFCURVE",
"68 352 CURVE SMOOTH",
"51 336 OFFCURVE",
"30 274 OFFCURVE",
"30 172 CURVE SMOOTH",
"30 73 OFFCURVE",
"89 -20 OFFCURVE",
"188 -20 CURVE SMOOTH",
"219 -20 OFFCURVE",
"317 37 OFFCURVE",
"376 69 CURVE",
"397 32 OFFCURVE",
"461 -20 OFFCURVE",
"503 -20 CURVE SMOOTH",
"528 -20 OFFCURVE",
"620 38 OFFCURVE",
"679 78 CURVE",
"679 103 LINE",
"645 97 OFFCURVE",
"582 82 OFFCURVE",
"546 97 CURVE SMOOTH",
"507 113 OFFCURVE",
"493 172 OFFCURVE",
"493 272 CURVE SMOOTH",
"493 299 OFFCURVE",
"498 340 OFFCURVE",
"502 360 CURVE",
"547 354 OFFCURVE",
"572 317 OFFCURVE",
"578 317 CURVE SMOOTH"
);
},
{
closed = 1;
nodes = (
"228 367 OFFCURVE",
"252 306 OFFCURVE",
"252 282 CURVE SMOOTH",
"252 236 OFFCURVE",
"207 195 OFFCURVE",
"159 165 CURVE",
"152 192 OFFCURVE",
"150 222 OFFCURVE",
"150 253 CURVE SMOOTH",
"150 296 OFFCURVE",
"155 367 OFFCURVE",
"182 367 CURVE SMOOTH"
);
}
);
userData = {
com.schriftgestaltung.Glyphs.lastChange = "2019-01-14 09:18:15 +0000";
};
width = 700;
}
);
leftMetricsKey = e;
rightMetricsKey = c;
},
{
color = 4;
glyphname = e_t;
lastChange = "2020-01-30 17:01:20 +0000";
layers = (
{
anchors = (
{
name = bottom;
position = "{466, -6}";
},
{
name = bottom_1;
position = "{169, 0}";
},
{
name = bottom_2;
position = "{466, 0}";
},
{
name = caret_1;
position = "{317, 0}";
},
{
name = center;
position = "{466, 209}";
},
{
name = ogonek_1;
position = "{20, 0}";
},
{
name = ogonek_2;
position = "{20, 0}";
},
{
name = top;
position = "{466, 424}";
},
{
name = top_1;
position = "{169, 430}";
},
{
name = top_2;
position = "{466, 430}";
},
{
name = topright;
position = "{594, 424}";
}
);
layerId = "5FE47517-9953-4891-9518-AB2E2247E448";
paths = (
{
closed = 1;
nodes = (
"614 424 LINE",
"484 424 LINE",
"484 523 LINE",
"470 524 LINE",
"433 474 OFFCURVE",
"396 433 OFFCURVE",
"344 384 CURVE",
"317 416 OFFCURVE",
"281 450 OFFCURVE",
"262 450 CURVE SMOOTH",
"234 450 OFFCURVE",
"89 372 OFFCURVE",
"68 352 CURVE SMOOTH",
"51 336 OFFCURVE",
"30 274 OFFCURVE",
"30 172 CURVE SMOOTH",
"30 73 OFFCURVE",
"89 -20 OFFCURVE",
"188 -20 CURVE SMOOTH",
"218 -20 OFFCURVE",
"311 33 OFFCURVE",
"370 66 CURVE",
"370 60 LINE SMOOTH",
"369 25 OFFCURVE",
"434 -26 OFFCURVE",
"464 -26 CURVE SMOOTH",
"500 -26 OFFCURVE",
"544 26 OFFCURVE",
"586 61 CURVE",
"585 78 LINE",
"562 74 OFFCURVE",
"539 74 OFFCURVE",
"533 75 CURVE SMOOTH",
"512 78 OFFCURVE",
"486 99 OFFCURVE",
"485 116 CURVE SMOOTH",
"480 189 OFFCURVE",
"480 263 OFFCURVE",
"483 336 CURVE",
"614 335 LINE"
);
},
{
closed = 1;
nodes = (
"228 367 OFFCURVE",
"252 306 OFFCURVE",
"252 282 CURVE SMOOTH",
"252 236 OFFCURVE",
"207 195 OFFCURVE",
"159 165 CURVE",
"152 192 OFFCURVE",
"150 222 OFFCURVE",
"150 253 CURVE SMOOTH",
"150 296 OFFCURVE",
"155 367 OFFCURVE",
"182 367 CURVE SMOOTH"
);
},
{
closed = 1;
nodes = (
"221 75 OFFCURVE",
"190 98 OFFCURVE",
"172 130 CURVE",
"241 190 OFFCURVE",
"345 295 OFFCURVE",
"369 327 CURVE",
"370 325 OFFCURVE",
"370 322 OFFCURVE",
"370 319 CURVE SMOOTH",
"372 246 OFFCURVE",
"372 173 OFFCURVE",
"371 100 CURVE",
"343 87 OFFCURVE",
"309 73 OFFCURVE",
"277 74 CURVE SMOOTH"
);
}
);
userData = {
com.schriftgestaltung.Glyphs.lastChange = "2019-01-14 09:18:15 +0000";
};
width = 614;
}
);
leftMetricsKey = e;
rightMetricsKey = t;
},
{
color = 4;
glyphname = f;
lastChange = "2020-01-30 17:01:20 +0000";
layers = (
{
anchors = (
{
name = bottom;
position = "{166, 0}";
},
{
name = top;
position = "{166, 430}";
}
);
layerId = "5FE47517-9953-4891-9518-AB2E2247E448";
paths = (
{
closed = 1;
nodes = (
"178 9 LINE",
"178 321 LINE",
"304 321 LINE",
"304 408 LINE",
"178 408 LINE",
"178 600 LINE",
"192 610 OFFCURVE",
"207 612 OFFCURVE",
"221 612 CURVE SMOOTH",
"248 612 OFFCURVE",
"281 590 OFFCURVE",
"307 561 CURVE",
"315 562 LINE",
"394 640 LINE",
"394 646 LINE",
"352 681 OFFCURVE",
"287 699 OFFCURVE",
"251 699 CURVE SMOOTH",
"242 699 OFFCURVE",
"107 610 OFFCURVE",
"77 589 CURVE SMOOTH",
"63 579 OFFCURVE",
"62 578 OFFCURVE",
"64 562 CURVE SMOOTH",
"72 482 OFFCURVE",
"53 421 OFFCURVE",
"20 357 CURVE",
"20 350 LINE",
"43 333 OFFCURVE",
"66 323 OFFCURVE",
"66 279 CURVE SMOOTH",
"66 -17 LINE",
"72 -20 LINE"
);
}
);
userData = {
com.schriftgestaltung.Glyphs.lastChange = "2019-03-28 15:56:55 +0000";
};
width = 304;
}
);
unicode = 0066;
},
{
color = 4;
glyphname = f_e;
lastChange = "2020-01-30 17:01:20 +0000";
layers = (
{
anchors = (
{
name = bottom;
position = "{446, 0}";
},
{
name = bottom_1;
position = "{169, 0}";
},
{
name = bottom_2;
position = "{466, 0}";
},
{
name = caret_1;
position = "{318, 0}";
},
{
name = ogonek;
position = "{596, 10}";
},
{
name = top;
position = "{446, 430}";
},
{
name = top_1;
position = "{169, 430}";
},
{
name = top_2;
position = "{466, 430}";
}
);
layerId = "5FE47517-9953-4891-9518-AB2E2247E448";
paths = (
{
closed = 1;
nodes = (
"629 346 OFFCURVE",
"550 450 OFFCURVE",
"519 450 CURVE SMOOTH",
"505 450 OFFCURVE",
"456 430 OFFCURVE",
"408 408 CURVE",
"178 408 LINE",
"178 600 LINE",
"192 610 OFFCURVE",
"207 612 OFFCURVE",
"221 612 CURVE SMOOTH",
"248 612 OFFCURVE",
"281 590 OFFCURVE",
"307 561 CURVE",
"315 562 LINE",
"394 640 LINE",
"394 646 LINE",
"352 681 OFFCURVE",
"287 699 OFFCURVE",
"251 699 CURVE SMOOTH",
"242 699 OFFCURVE",
"107 610 OFFCURVE",
"77 589 CURVE SMOOTH",
"63 579 OFFCURVE",
"62 578 OFFCURVE",
"64 562 CURVE SMOOTH",
"74 482 OFFCURVE",
"53 421 OFFCURVE",
"20 357 CURVE",
"20 350 LINE",
"43 333 OFFCURVE",
"66 323 OFFCURVE",
"66 279 CURVE SMOOTH",
"66 -17 LINE",
"72 -20 LINE",
"178 9 LINE",
"178 321 LINE",
"287 321 LINE",
"276 293 OFFCURVE",
"268 248 OFFCURVE",
"268 182 CURVE SMOOTH",
"268 73 OFFCURVE",
"346 -20 OFFCURVE",
"445 -20 CURVE SMOOTH",
"481 -20 OFFCURVE",
"558 26 OFFCURVE",
"609 52 CURVE",
"606 82 LINE",
"586 78 OFFCURVE",
"533 73 OFFCURVE",
"514 74 CURVE SMOOTH",
"459 77 OFFCURVE",
"428 99 OFFCURVE",
"410 130 CURVE",
"492 196 OFFCURVE",
"629 314 OFFCURVE",
"629 326 CURVE SMOOTH"
);
},
{
closed = 1;
nodes = (
"389 192 OFFCURVE",
"387 222 OFFCURVE",
"387 253 CURVE SMOOTH",
"387 296 OFFCURVE",
"392 367 OFFCURVE",
"429 367 CURVE SMOOTH",
"475 367 OFFCURVE",
"499 316 OFFCURVE",
"499 292 CURVE SMOOTH",
"499 246 OFFCURVE",
"446 197 OFFCURVE",
"396 165 CURVE"
);
}
);
userData = {
com.schriftgestaltung.Glyphs.lastChange = "2019-03-28 15:56:55 +0000";
};
width = 639;
}
);
leftMetricsKey = f;
rightMetricsKey = e;
},
{
color = 4;
glyphname = f_f;
lastChange = "2020-02-01 18:25:55 +0000";
layers = (
{
anchors = (
{
name = caret_1;
position = "{309, 0}";
}
);
layerId = "5FE47517-9953-4891-9518-AB2E2247E448";
paths = (
{
closed = 1;
nodes = (
"508 699 OFFCURVE",
"460 673 OFFCURVE",
"416 646 CURVE",
"374 681 OFFCURVE",
"287 699 OFFCURVE",
"251 699 CURVE SMOOTH",
"242 699 OFFCURVE",
"107 610 OFFCURVE",
"77 589 CURVE SMOOTH",
"63 579 OFFCURVE",
"62 578 OFFCURVE",
"64 562 CURVE SMOOTH",
"74 482 OFFCURVE",
"53 421 OFFCURVE",
"20 357 CURVE",
"20 350 LINE",
"43 333 OFFCURVE",
"66 323 OFFCURVE",
"66 279 CURVE SMOOTH",
"66 -17 LINE",
"72 -20 LINE",
"178 9 LINE",
"178 321 LINE",
"328 321 LINE",
"328 -17 LINE",
"334 -20 LINE",
"440 9 LINE",
"440 321 LINE",
"566 321 LINE",
"566 408 LINE",
"440 408 LINE",
"440 600 LINE",
"454 610 OFFCURVE",
"469 612 OFFCURVE",
"483 612 CURVE SMOOTH",
"510 612 OFFCURVE",
"543 590 OFFCURVE",
"569 561 CURVE",
"577 562 LINE",
"656 640 LINE",
"656 646 LINE",
"614 681 OFFCURVE",
"549 699 OFFCURVE",
"513 699 CURVE SMOOTH"
);
},
{
closed = 1;
nodes = (
"178 600 LINE",
"192 610 OFFCURVE",
"207 612 OFFCURVE",
"221 612 CURVE SMOOTH",
"248 612 OFFCURVE",
"300 595 OFFCURVE",
"326 566 CURVE",
"326 524 OFFCURVE",
"327 463 OFFCURVE",
"327 408 CURVE",
"178 408 LINE"
);
}
);
userData = {
com.schriftgestaltung.Glyphs.lastChange = "2019-03-28 15:56:55 +0000";
};
width = 566;
}
);
leftMetricsKey = f;
rightMetricsKey = f;
unicode = FB00;
},
{
color = 4;
glyphname = f_i;
lastChange = "2020-01-30 17:01:20 +0000";
layers = (
{
anchors = (
{
name = bottom;
position = "{166, 0}";
},
{
name = bottom_1;
position = "{112, 0}";
},
{
name = bottom_2;
position = "{336, 0}";
},
{
name = caret_1;
position = "{224, 0}";
},
{
name = top;
position = "{166, 430}";
},
{
name = top_1;
position = "{112, 430}";
},
{
name = top_2;
position = "{336, 430}";
}
);
layerId = "5FE47517-9953-4891-9518-AB2E2247E448";
paths = (
{
closed = 1;
nodes = (
"392 178 OFFCURVE",
"392 243 OFFCURVE",
"393 312 CURVE SMOOTH",
"394 370 OFFCURVE",
"397 413 OFFCURVE",
"402 442 CURVE",
"386 452 LINE",
"349 433 OFFCURVE",
"312 414 OFFCURVE",
"275 408 CURVE",
"178 408 LINE",
"178 600 LINE",
"192 610 OFFCURVE",
"207 612 OFFCURVE",
"221 612 CURVE SMOOTH",
"248 612 OFFCURVE",
"281 590 OFFCURVE",
"307 561 CURVE",
"315 562 LINE",
"394 640 LINE",
"394 646 LINE",
"352 681 OFFCURVE",
"287 699 OFFCURVE",
"251 699 CURVE SMOOTH",
"242 699 OFFCURVE",
"107 610 OFFCURVE",
"77 589 CURVE SMOOTH",
"63 579 OFFCURVE",
"62 578 OFFCURVE",
"64 562 CURVE SMOOTH",
"72 482 OFFCURVE",
"53 421 OFFCURVE",
"20 357 CURVE",
"20 350 LINE",
"43 333 OFFCURVE",
"66 323 OFFCURVE",
"66 279 CURVE SMOOTH",
"66 -17 LINE",
"72 -20 LINE",
"178 9 LINE",
"178 321 LINE",
"259 321 LINE",
"271 316 OFFCURVE",
"276 301 OFFCURVE",
"277 279 CURVE SMOOTH",
"278 240 OFFCURVE",
"278 108 OFFCURVE",
"278 85 CURVE SMOOTH",
"278 2 OFFCURVE",
"323 -20 OFFCURVE",
"347 -20 CURVE SMOOTH",
"360 -20 OFFCURVE",
"400 16 OFFCURVE",
"428 35 CURVE",
"428 54 LINE",
"397 68 OFFCURVE",
"394 80 OFFCURVE",
"393 97 CURVE SMOOTH"
);
}
);
userData = {
com.schriftgestaltung.Glyphs.ComponentInfo = (
{
alignment = -1;
index = 0;
name = f;
}
);
com.schriftgestaltung.Glyphs.lastChange = "2019-03-28 15:56:55 +0000";
};
width = 473;
}
);
leftMetricsKey = f;
rightMetricsKey = i;
unicode = FB01;
},
{
color = 4;
glyphname = f_o;
lastChange = "2020-02-01 19:43:14 +0000";
layers = (
{
anchors = (
{
name = bottom;
position = "{464, 0}";
},
{
name = bottom_1;
position = "{180, 0}";
},
{
name = bottom_2;
position = "{520, 0}";
},
{
name = caret_1;
position = "{350, 0}";
},
{
name = center;
position = "{464, 215}";
},
{
name = ogonek;
position = "{645, 10}";
},
{
name = top;
position = "{464, 430}";
},
{
name = top_1;
position = "{180, 430}";
},
{
name = top_2;
position = "{520, 430}";
},
{
name = topright;
position = "{670, 430}";
}
);
layerId = "5FE47517-9953-4891-9518-AB2E2247E448";
paths = (
{
closed = 1;
nodes = (
"483 446 OFFCURVE",
"453 429 OFFCURVE",
"422 408 CURVE",
"161 408 LINE",
"161 600 LINE",
"175 610 OFFCURVE",
"190 612 OFFCURVE",
"204 612 CURVE SMOOTH",
"231 612 OFFCURVE",
"264 590 OFFCURVE",
"290 561 CURVE",
"298 562 LINE",
"377 640 LINE",
"377 646 LINE",
"335 681 OFFCURVE",
"270 699 OFFCURVE",
"234 699 CURVE SMOOTH",
"225 699 OFFCURVE",
"90 610 OFFCURVE",
"60 589 CURVE SMOOTH",
"46 579 OFFCURVE",
"45 578 OFFCURVE",
"47 562 CURVE SMOOTH",
"57 482 OFFCURVE",
"49 421 OFFCURVE",
"20 357 CURVE",
"20 350 LINE",
"43 333 OFFCURVE",
"49 323 OFFCURVE",
"49 279 CURVE SMOOTH",
"49 -17 LINE",
"55 -20 LINE",
"161 9 LINE",
"161 321 LINE",
"300 321 LINE",
"275 292 OFFCURVE",
"251 246 OFFCURVE",
"251 194 CURVE SMOOTH",
"251 79 OFFCURVE",
"339 -11 OFFCURVE",
"432 -21 CURVE",
"471 -21 OFFCURVE",
"584 64 OFFCURVE",
"629 100 CURVE",
"659 132 OFFCURVE",
"675 198 OFFCURVE",
"675 234 CURVE SMOOTH",
"675 365 OFFCURVE",
"572 441 OFFCURVE",
"498 450 CURVE"
);
},
{
closed = 1;
nodes = (
"491 60 OFFCURVE",
"359 90 OFFCURVE",
"359 247 CURVE SMOOTH",
"359 311 OFFCURVE",
"392 351 OFFCURVE",
"415 355 CURVE SMOOTH",
"461 362 OFFCURVE",
"559 318 OFFCURVE",
"559 183 CURVE SMOOTH",
"559 124 OFFCURVE",
"536 76 OFFCURVE",
"514 68 CURVE SMOOTH"
);
}
);
userData = {
com.schriftgestaltung.Glyphs.lastChange = "2019-03-28 15:56:55 +0000";
};
width = 700;
}
);
leftMetricsKey = f;
rightMetricsKey = o;
},
{
color = 4;
glyphname = f_r;
lastChange = "2020-01-30 17:01:20 +0000";
layers = (
{
anchors = (
{
name = bottom_1;
position = "{145, 0}";
},
{
name = bottom_2;
position = "{414, 0}";
},
{
name = caret_1;
position = "{279, 0}";
},
{
name = top_1;
position = "{145, 430}";
},
{
name = top_2;
position = "{394, 430}";
}
);
layerId = "5FE47517-9953-4891-9518-AB2E2247E448";
paths = (
{
closed = 1;
nodes = (
"161 9 LINE",
"161 341 LINE",
"230 341 LINE SMOOTH",
"289 341 OFFCURVE",
"299 320 OFFCURVE",
"299 268 CURVE SMOOTH",
"299 -5 LINE",
"303 -7 LINE",
"418 50 LINE",
"414 152 OFFCURVE",
"414 200 OFFCURVE",
"414 302 CURVE SMOOTH",
"414 314 LINE",
"434 331 OFFCURVE",
"464 345 OFFCURVE",
"506 305 CURVE SMOOTH",
"511 301 OFFCURVE",
"598 376 OFFCURVE",
"598 380 CURVE SMOOTH",
"598 389 OFFCURVE",
"520 445 OFFCURVE",
"514 440 CURVE SMOOTH",
"488 418 OFFCURVE",
"434 378 OFFCURVE",
"409 355 CURVE",
"395 388 OFFCURVE",
"375 413 OFFCURVE",
"355 433 CURVE SMOOTH",
"358 430 OFFCURVE",
"155 429 OFFCURVE",
"161 431 CURVE",
"161 600 LINE",
"175 610 OFFCURVE",
"190 612 OFFCURVE",
"204 612 CURVE SMOOTH",
"231 612 OFFCURVE",
"264 590 OFFCURVE",
"290 561 CURVE",
"298 562 LINE",
"377 640 LINE",
"377 646 LINE",
"335 681 OFFCURVE",
"270 699 OFFCURVE",
"234 699 CURVE SMOOTH",
"225 699 OFFCURVE",
"90 610 OFFCURVE",
"60 589 CURVE SMOOTH",
"46 579 OFFCURVE",
"45 578 OFFCURVE",
"47 562 CURVE SMOOTH",
"55 482 OFFCURVE",
"49 421 OFFCURVE",
"20 357 CURVE",
"20 350 LINE",
"43 333 OFFCURVE",
"49 323 OFFCURVE",
"49 279 CURVE SMOOTH",
"49 -17 LINE",
"55 -20 LINE"
);
}
);
userData = {
com.schriftgestaltung.Glyphs.lastChange = "2019-04-13 11:29:50 +0000";
};
width = 598;
}
);
leftMetricsKey = f;
rightMetricsKey = r;
},
{
color = 4;
glyphname = f_r_a;
lastChange = "2020-01-30 17:01:20 +0000";
layers = (
{
anchors = (
{
name = bottom;
position = "{687, 0}";
},
{
name = bottom_1;
position = "{175, 0}";
},
{
name = bottom_2;
position = "{464, 0}";
},
{
name = bottom_3;
position = "{753, 0}";
},
{
name = caret_1;
position = "{319, 0}";
},
{
name = caret_2;
position = "{609, 0}";
},
{
name = ogonek;
position = "{851, 2}";
},
{
name = top;
position = "{687, 430}";
},
{
name = top_1;
position = "{175, 430}";
},
{
name = top_2;
position = "{464, 430}";
},
{
name = top_3;
position = "{753, 430}";
}
);
layerId = "5FE47517-9953-4891-9518-AB2E2247E448";
paths = (
{
closed = 1;
nodes = (
"872 61 LINE",
"851 74 OFFCURVE",
"837 89 OFFCURVE",
"837 124 CURVE SMOOTH",
"837 154 OFFCURVE",
"843 298 OFFCURVE",
"843 328 CURVE SMOOTH",
"843 391 OFFCURVE",
"784 451 OFFCURVE",
"716 451 CURVE",
"685 444 OFFCURVE",
"635 422 OFFCURVE",
"585 395 CURVE",
"562 414 OFFCURVE",
"518 444 OFFCURVE",
"514 440 CURVE SMOOTH",
"488 418 OFFCURVE",
"434 378 OFFCURVE",
"409 355 CURVE",
"395 388 OFFCURVE",
"375 413 OFFCURVE",
"355 433 CURVE SMOOTH",
"358 430 OFFCURVE",
"155 429 OFFCURVE",
"161 431 CURVE",
"161 600 LINE",
"175 610 OFFCURVE",
"190 612 OFFCURVE",
"204 612 CURVE SMOOTH",
"231 612 OFFCURVE",
"264 590 OFFCURVE",
"290 561 CURVE",
"298 562 LINE",
"377 640 LINE",
"377 646 LINE",
"335 681 OFFCURVE",
"270 699 OFFCURVE",
"234 699 CURVE SMOOTH",
"225 699 OFFCURVE",
"90 610 OFFCURVE",
"60 589 CURVE SMOOTH",
"46 579 OFFCURVE",
"45 578 OFFCURVE",
"47 562 CURVE SMOOTH",
"55 482 OFFCURVE",
"49 421 OFFCURVE",
"20 357 CURVE",
"20 350 LINE",
"43 333 OFFCURVE",
"49 323 OFFCURVE",
"49 279 CURVE SMOOTH",
"49 -17 LINE",
"55 -20 LINE",
"161 9 LINE",
"161 341 LINE",
"230 341 LINE SMOOTH",
"289 341 OFFCURVE",
"299 320 OFFCURVE",
"299 268 CURVE SMOOTH",
"299 -5 LINE",
"303 -7 LINE",
"418 50 LINE",
"414 152 OFFCURVE",
"414 200 OFFCURVE",
"414 302 CURVE SMOOTH",
"414 314 LINE",
"434 331 OFFCURVE",
"464 345 OFFCURVE",
"506 305 CURVE",
"509 303 OFFCURVE",
"534 322 OFFCURVE",
"557 342 CURVE",
"590 362 OFFCURVE",
"623 378 OFFCURVE",
"655 378 CURVE SMOOTH",
"711 378 OFFCURVE",
"734 343 OFFCURVE",
"734 319 CURVE SMOOTH",
"734 304 LINE",
"655 245 OFFCURVE",
"531 144 OFFCURVE",
"480 94 CURVE",
"511 65 OFFCURVE",
"539 17 OFFCURVE",
"566 -20 CURVE",
"611 4 OFFCURVE",
"685 45 OFFCURVE",
"733 69 CURVE",
"733 41 OFFCURVE",
"745 9 OFFCURVE",
"766 -21 CURVE",
"803 -8 OFFCURVE",
"851 24 OFFCURVE",
"873 42 CURVE"
);
},
{
closed = 1;
nodes = (
"606 165 OFFCURVE",
"657 211 OFFCURVE",
"734 256 CURVE",
"734 208 OFFCURVE",
"733 146 OFFCURVE",
"733 105 CURVE",
"715 90 OFFCURVE",
"694 78 OFFCURVE",
"674 78 CURVE SMOOTH",
"635 78 OFFCURVE",
"606 103 OFFCURVE",
"606 136 CURVE SMOOTH"
);
}
);
userData = {
com.schriftgestaltung.Glyphs.ComponentInfo = (
{
alignment = -1;
index = 0;
name = a;
}
);
com.schriftgestaltung.Glyphs.lastChange = "2019-04-13 11:30:16 +0000";
};
width = 898;
}
);
leftMetricsKey = f;
rightMetricsKey = a;
},
{
color = 4;
glyphname = f_u;
lastChange = "2020-01-30 17:01:20 +0000";
layers = (
{
anchors = (
{
name = bottom_1;
position = "{181, 0}";
},
{
name = bottom_2;
position = "{522, 0}";
},
{
name = caret_1;
position = "{351, 0}";
},
{
name = top_1;
position = "{181, 430}";
},
{
name = top_2;
position = "{522, 430}";
}
);
layerId = "5FE47517-9953-4891-9518-AB2E2247E448";
paths = (
{
closed = 1;
nodes = (
"400 -24 OFFCURVE",
"471 33 OFFCURVE",
"514 62 CURVE",
"517 49 LINE SMOOTH",
"525 16 OFFCURVE",
"550 -20 OFFCURVE",
"589 -20 CURVE SMOOTH",
"610 -20 OFFCURVE",
"672 41 OFFCURVE",
"687 58 CURVE",
"685 81 LINE",
"655 80 OFFCURVE",
"625 88 OFFCURVE",
"624 124 CURVE SMOOTH",
"621 220 OFFCURVE",
"622 343 OFFCURVE",
"628 450 CURVE",
"622 452 LINE",
"503 396 LINE",
"512 313 OFFCURVE",
"509 187 OFFCURVE",
"509 104 CURVE",
"493 90 OFFCURVE",
"472 73 OFFCURVE",
"447 73 CURVE SMOOTH",
"413 73 OFFCURVE",
"400 103 OFFCURVE",
"400 134 CURVE SMOOTH",
"400 238 OFFCURVE",
"399 342 OFFCURVE",
"404 446 CURVE",
"399 450 LINE",
"357 428 OFFCURVE",
"315 408 OFFCURVE",
"272 408 CURVE SMOOTH",
"161 408 LINE",
"161 600 LINE",
"175 610 OFFCURVE",
"190 612 OFFCURVE",
"204 612 CURVE SMOOTH",
"231 612 OFFCURVE",
"264 590 OFFCURVE",
"290 561 CURVE",
"298 562 LINE",
"377 640 LINE",
"377 646 LINE",
"335 681 OFFCURVE",
"270 699 OFFCURVE",
"234 699 CURVE SMOOTH",
"225 699 OFFCURVE",
"90 610 OFFCURVE",
"60 589 CURVE SMOOTH",
"46 579 OFFCURVE",
"45 578 OFFCURVE",
"47 562 CURVE SMOOTH",
"55 482 OFFCURVE",
"49 421 OFFCURVE",
"20 357 CURVE",
"20 350 LINE",
"43 333 OFFCURVE",
"49 323 OFFCURVE",
"49 279 CURVE SMOOTH",
"49 -17 LINE",
"55 -20 LINE",
"161 9 LINE",
"161 321 LINE",
"250 321 LINE SMOOTH",
"276 321 OFFCURVE",
"288 296 OFFCURVE",
"288 275 CURVE SMOOTH",
"288 65 LINE SMOOTH",
"288 28 OFFCURVE",
"303 -24 OFFCURVE",
"354 -24 CURVE SMOOTH"
);
}
);
userData = {
com.schriftgestaltung.Glyphs.lastChange = "2019-03-28 15:56:55 +0000";
};
width = 692;
}
);
leftMetricsKey = f;
rightMetricsKey = u;
},
{
color = 4;
glyphname = g;
lastChange = "2020-01-30 17:01:20 +0000";
layers = (
{
anchors = (
{
name = bottom;
position = "{286, 0}";
},
{
name = top;
position = "{286, 430}";
}
);
layerId = "5FE47517-9953-4891-9518-AB2E2247E448";
paths = (
{
closed = 1;
nodes = (
"363 184 OFFCURVE",
"397 244 OFFCURVE",
"427 287 CURVE",
"448 293 OFFCURVE",
"488 294 OFFCURVE",
"508 295 CURVE",
"495 390 LINE",
"325 405 OFFCURVE",
"321 415 OFFCURVE",
"241 454 CURVE",
"199 441 OFFCURVE",
"98 363 OFFCURVE",
"50 317 CURVE",
"30 282 OFFCURVE",
"15 239 OFFCURVE",
"15 200 CURVE SMOOTH",
"15 98 OFFCURVE",
"74 54 OFFCURVE",
"156 34 CURVE",
"119 10 OFFCURVE",
"65 -30 OFFCURVE",
"44 -49 CURVE",
"19 -184 OFFCURVE",
"126 -228 OFFCURVE",
"208 -240 CURVE",
"268 -231 OFFCURVE",
"331 -214 OFFCURVE",
"386 -193 CURVE",
"428 -167 OFFCURVE",
"486 -124 OFFCURVE",
"486 -38 CURVE SMOOTH",
"486 39 OFFCURVE",
"438 106 OFFCURVE",
"324 140 CURVE"
);
},
{
closed = 1;
nodes = (
"111 279 OFFCURVE",
"129 308 OFFCURVE",
"139 325 CURVE",
"215 384 OFFCURVE",
"319 322 OFFCURVE",
"319 241 CURVE SMOOTH",
"319 208 OFFCURVE",
"309 173 OFFCURVE",
"278 140 CURVE",
"187 106 OFFCURVE",
"111 154 OFFCURVE",
"111 231 CURVE SMOOTH"
);
},
{
closed = 1;
nodes = (
"227 -179 OFFCURVE",
"157 -144 OFFCURVE",
"157 -59 CURVE SMOOTH",
"157 -20 OFFCURVE",
"182 17 OFFCURVE",
"204 39 CURVE",
"303 62 OFFCURVE",
"377 14 OFFCURVE",
"381 -61 CURVE SMOOTH",
"384 -125 OFFCURVE",
"348 -179 OFFCURVE",
"286 -179 CURVE SMOOTH"
);
}
);
userData = {
com.schriftgestaltung.Glyphs.lastChange = "2019-04-13 11:30:32 +0000";
};
width = 523;
}
);
unicode = 0067;
},
{
color = 4;
glyphname = g.ss01;
lastChange = "2020-02-01 19:31:58 +0000";
layers = (
{
anchors = (
{
name = bottom;
position = "{304, 0}";
},
{
name = top;
position = "{304, 430}";
}
);
layerId = "5FE47517-9953-4891-9518-AB2E2247E448";
paths = (
{
closed = 1;
nodes = (
"287 450 OFFCURVE",
"163 382 OFFCURVE",
"96 339 CURVE",
"58 295 OFFCURVE",
"41 249 OFFCURVE",
"41 196 CURVE SMOOTH",
"41 93 OFFCURVE",
"78 40 OFFCURVE",
"133 1 CURVE",
"104 -17 OFFCURVE",
"52 -52 OFFCURVE",
"30 -69 CURVE",
"39 -180 OFFCURVE",
"121 -220 OFFCURVE",
"194 -240 CURVE",
"292 -240 OFFCURVE",
"495 -186 OFFCURVE",
"495 -79 CURVE SMOOTH",
"495 8 OFFCURVE",
"428 44 OFFCURVE",
"428 163 CURVE SMOOTH",
"428 235 OFFCURVE",
"450 307 OFFCURVE",
"580 303 CURVE",
"596 391 LINE",
"503 401 OFFCURVE",
"319 440 OFFCURVE",
"300 450 CURVE"
);
},
{
closed = 1;
nodes = (
"285 129 OFFCURVE",
"253 115 OFFCURVE",
"230 115 CURVE SMOOTH",
"149 115 OFFCURVE",
"135 225 OFFCURVE",
"170 301 CURVE",
"225 339 OFFCURVE",
"324 333 OFFCURVE",
"447 311 CURVE",
"389 274 OFFCURVE",
"308 237 OFFCURVE",
"306 144 CURVE"
);
},
{
closed = 1;
nodes = (
"182 -184 OFFCURVE",
"144 -47 OFFCURVE",
"152 4 CURVE",
"199 45 OFFCURVE",
"264 95 OFFCURVE",
"310 110 CURVE",
"325 40 OFFCURVE",
"387 -42 OFFCURVE",
"387 -101 CURVE SMOOTH",
"387 -164 OFFCURVE",
"335 -184 OFFCURVE",
"296 -184 CURVE SMOOTH"
);
}
);
userData = {
com.schriftgestaltung.Glyphs.lastChange = "2019-04-24 15:12:59 +0000";
};
width = 596;
}
);
},
{
color = 4;
glyphname = g.ss02;
lastChange = "2020-02-01 19:30:28 +0000";
layers = (
{
anchors = (
{
name = bottom;
position = "{303, 0}";
},
{
name = top;
position = "{303, 430}";
}
);
layerId = "5FE47517-9953-4891-9518-AB2E2247E448";
paths = (
{
closed = 1;
nodes = (
"389 -240 OFFCURVE",
"507 -177 OFFCURVE",
"507 -74 CURVE SMOOTH",
"507 9 OFFCURVE",
"461 38 OFFCURVE",
"423 57 CURVE",
"313 -6 LINE",
"313 -10 LINE",
"360 -32 OFFCURVE",
"379 -74 OFFCURVE",
"379 -105 CURVE SMOOTH",
"379 -162 OFFCURVE",
"328 -201 OFFCURVE",
"271 -201 CURVE SMOOTH",
"199 -201 OFFCURVE",
"165 -160 OFFCURVE",
"165 -100 CURVE SMOOTH",
"165 -12 OFFCURVE",
"288 24 OFFCURVE",
"369 80 CURVE SMOOTH",
"430 122 OFFCURVE",
"460 189 OFFCURVE",
"468 272 CURVE SMOOTH",
"470 293 OFFCURVE",
"472 302 OFFCURVE",
"479 302 CURVE SMOOTH",
"601 297 LINE",
"607 321 OFFCURVE",
"615 361 OFFCURVE",
"617 397 CURVE",
"572 400 OFFCURVE",
"465 407 OFFCURVE",
"437 411 CURVE SMOOTH",
"402 416 OFFCURVE",
"341 461 OFFCURVE",
"328 461 CURVE SMOOTH",
"314 461 OFFCURVE",
"222 437 OFFCURVE",
"133 401 CURVE SMOOTH",
"96 386 OFFCURVE",
"30 309 OFFCURVE",
"30 242 CURVE SMOOTH",
"30 185 OFFCURVE",
"55 154 OFFCURVE",
"68 136 CURVE SMOOTH",
"77 123 OFFCURVE",
"126 85 OFFCURVE",
"195 89 CURVE",
"110 42 OFFCURVE",
"38 -7 OFFCURVE",
"38 -73 CURVE SMOOTH",
"38 -190 OFFCURVE",
"126 -240 OFFCURVE",
"268 -240 CURVE SMOOTH"
);
},
{
closed = 1;
nodes = (
"209 134 OFFCURVE",
"150 179 OFFCURVE",
"150 259 CURVE SMOOTH",
"150 310 OFFCURVE",
"173 349 OFFCURVE",
"221 377 CURVE",
"251 377 OFFCURVE",
"347 350 OFFCURVE",
"347 261 CURVE SMOOTH",
"347 196 OFFCURVE",
"313 160 OFFCURVE",
"271 134 CURVE"
);
}
);
userData = {
com.schriftgestaltung.Glyphs.lastChange = "2019-03-28 15:56:55 +0000";
};
width = 617;
}
);
},
{
color = 4;
glyphname = g.ss03;
lastChange = "2020-02-01 19:31:53 +0000";
layers = (
{
layerId = "5FE47517-9953-4891-9518-AB2E2247E448";
paths = (
{
closed = 1;
nodes = (
"542 316 OFFCURVE",
"586 311 OFFCURVE",
"628 310 CURVE",
"652 429 LINE",
"632 435 LINE",
"581 411 OFFCURVE",
"319 440 OFFCURVE",
"300 450 CURVE",
"287 450 OFFCURVE",
"163 382 OFFCURVE",
"96 339 CURVE",
"58 295 OFFCURVE",
"41 249 OFFCURVE",
"41 196 CURVE SMOOTH",
"41 93 OFFCURVE",
"78 40 OFFCURVE",
"133 1 CURVE",
"104 -17 OFFCURVE",
"52 -52 OFFCURVE",
"30 -69 CURVE",
"39 -180 OFFCURVE",
"121 -220 OFFCURVE",
"194 -240 CURVE",
"292 -240 OFFCURVE",
"495 -186 OFFCURVE",
"495 -79 CURVE SMOOTH",
"495 8 OFFCURVE",
"421 87 OFFCURVE",
"421 206 CURVE SMOOTH",
"421 265 OFFCURVE",
"445 300 OFFCURVE",
"498 322 CURVE"
);
},
{
closed = 1;
nodes = (
"286 135 OFFCURVE",
"253 115 OFFCURVE",
"230 115 CURVE SMOOTH",
"149 115 OFFCURVE",
"135 225 OFFCURVE",
"170 301 CURVE",
"220 355 OFFCURVE",
"326 345 OFFCURVE",
"441 330 CURVE",
"385 292 OFFCURVE",
"312 240 OFFCURVE",
"306 151 CURVE"
);
},
{
closed = 1;
nodes = (
"182 -184 OFFCURVE",
"144 -47 OFFCURVE",
"152 4 CURVE",
"199 45 OFFCURVE",
"264 95 OFFCURVE",
"310 110 CURVE",
"325 40 OFFCURVE",
"387 -42 OFFCURVE",
"387 -101 CURVE SMOOTH",
"387 -164 OFFCURVE",
"335 -184 OFFCURVE",
"296 -184 CURVE SMOOTH"
);
}
);
userData = {
com.schriftgestaltung.Glyphs.lastChange = "2019-04-13 12:37:08 +0000";
};
width = 612;
}
);
},
{
color = 4;
glyphname = g_hook;
lastChange = "2020-02-01 19:30:51 +0000";
layers = (
{
anchors = (
{
name = bottom;
position = "{298, 0}";
},
{
name = top;
position = "{298, 430}";
}
);
layerId = "5FE47517-9953-4891-9518-AB2E2247E448";
paths = (
{
closed = 1;
nodes = (
"301 550 OFFCURVE",
"360 543 OFFCURVE",
"384 543 CURVE SMOOTH",
"397 543 OFFCURVE",
"432 604 OFFCURVE",
"457 636 CURVE",
"429 645 LINE",
"415 639 OFFCURVE",
"402 637 OFFCURVE",
"380 637 CURVE SMOOTH",
"357 637 OFFCURVE",
"301 641 OFFCURVE",
"277 641 CURVE SMOOTH",
"265 641 OFFCURVE",
"210 568 OFFCURVE",
"184 536 CURVE",
"209 525 LINE",
"225 537 OFFCURVE",
"256 550 OFFCURVE",
"278 550 CURVE SMOOTH"
);
},
{
closed = 1;
nodes = (
"368 184 OFFCURVE",
"402 244 OFFCURVE",
"432 287 CURVE",
"453 293 OFFCURVE",
"493 294 OFFCURVE",
"513 295 CURVE",
"500 390 LINE",
"330 405 OFFCURVE",
"326 415 OFFCURVE",
"246 454 CURVE",
"204 441 OFFCURVE",
"103 363 OFFCURVE",
"55 317 CURVE",
"35 282 OFFCURVE",
"20 239 OFFCURVE",
"20 200 CURVE SMOOTH",
"20 98 OFFCURVE",
"79 54 OFFCURVE",
"161 34 CURVE",
"124 10 OFFCURVE",
"70 -30 OFFCURVE",
"49 -49 CURVE",
"24 -184 OFFCURVE",
"131 -228 OFFCURVE",
"213 -240 CURVE",
"273 -231 OFFCURVE",
"336 -214 OFFCURVE",
"391 -193 CURVE",
"433 -167 OFFCURVE",
"491 -124 OFFCURVE",
"491 -38 CURVE SMOOTH",
"491 39 OFFCURVE",
"443 106 OFFCURVE",
"329 140 CURVE"
);
},
{
closed = 1;
nodes = (
"116 279 OFFCURVE",
"134 308 OFFCURVE",
"144 325 CURVE",
"220 384 OFFCURVE",
"324 322 OFFCURVE",
"324 241 CURVE SMOOTH",
"324 208 OFFCURVE",
"314 173 OFFCURVE",
"283 140 CURVE",
"192 106 OFFCURVE",
"116 154 OFFCURVE",
"116 231 CURVE SMOOTH"
);
},
{
closed = 1;
nodes = (
"232 -179 OFFCURVE",
"162 -144 OFFCURVE",
"162 -59 CURVE SMOOTH",
"162 -20 OFFCURVE",
"187 17 OFFCURVE",
"209 39 CURVE",
"308 62 OFFCURVE",
"382 14 OFFCURVE",
"386 -61 CURVE SMOOTH",
"389 -125 OFFCURVE",
"353 -179 OFFCURVE",
"291 -179 CURVE SMOOTH"
);
}
);
userData = {
com.schriftgestaltung.Glyphs.ComponentInfo = (
{
alignment = -1;
index = 0;
name = g;
}
);
com.schriftgestaltung.Glyphs.lastChange = "2019-04-23 08:56:59 +0000";
};
width = 513;
}
);
},
{
color = 4;
glyphname = g_macr;
lastChange = "2020-02-01 19:31:50 +0000";
layers = (
{
anchors = (
{
name = bottom;
position = "{304, 0}";
},
{
name = top;
position = "{304, 430}";
}
);
layerId = "5FE47517-9953-4891-9518-AB2E2247E448";
paths = (
{
closed = 1;
nodes = (
"369 495 LINE",
"460 552 OFFCURVE",
"573 627 OFFCURVE",
"575 642 CURVE SMOOTH",
"577 657 OFFCURVE",
"552 709 OFFCURVE",
"519 752 CURVE",
"513 753 LINE",
"391 704 LINE",
"391 699 LINE",
"415 678 OFFCURVE",
"446 652 OFFCURVE",
"441 611 CURVE SMOOTH",
"436 573 OFFCURVE",
"382 548 OFFCURVE",
"347 521 CURVE"
);
},
{
closed = 1;
nodes = (
"287 450 OFFCURVE",
"163 382 OFFCURVE",
"96 339 CURVE",
"58 295 OFFCURVE",
"41 249 OFFCURVE",
"41 196 CURVE SMOOTH",
"41 93 OFFCURVE",
"78 40 OFFCURVE",
"133 1 CURVE",
"104 -17 OFFCURVE",
"52 -52 OFFCURVE",
"30 -69 CURVE",
"39 -180 OFFCURVE",
"121 -220 OFFCURVE",
"194 -240 CURVE",
"292 -240 OFFCURVE",
"495 -186 OFFCURVE",
"495 -79 CURVE SMOOTH",
"495 8 OFFCURVE",
"428 44 OFFCURVE",
"428 163 CURVE SMOOTH",
"428 235 OFFCURVE",
"450 307 OFFCURVE",
"580 303 CURVE",
"596 391 LINE",
"503 401 OFFCURVE",
"319 440 OFFCURVE",
"300 450 CURVE"
);
},
{
closed = 1;
nodes = (
"285 129 OFFCURVE",
"253 115 OFFCURVE",
"230 115 CURVE SMOOTH",
"149 115 OFFCURVE",
"135 225 OFFCURVE",
"170 301 CURVE",
"225 339 OFFCURVE",
"324 333 OFFCURVE",
"447 311 CURVE",
"389 274 OFFCURVE",
"308 237 OFFCURVE",
"306 144 CURVE"
);
},
{
closed = 1;
nodes = (
"182 -184 OFFCURVE",
"144 -47 OFFCURVE",
"152 4 CURVE",
"199 45 OFFCURVE",
"264 95 OFFCURVE",
"310 110 CURVE",
"325 40 OFFCURVE",
"387 -42 OFFCURVE",
"387 -101 CURVE SMOOTH",
"387 -164 OFFCURVE",
"335 -184 OFFCURVE",
"296 -184 CURVE SMOOTH"
);
}
);
userData = {
com.schriftgestaltung.Glyphs.ComponentInfo = (
{
alignment = -1;
index = 0;
name = g.ss01;
}
);
com.schriftgestaltung.Glyphs.lastChange = "2019-04-24 14:12:55 +0000";
};
width = 596;
}
);
},
{
color = 4;
glyphname = g_ra;
lastChange = "2020-02-01 19:32:04 +0000";
layers = (
{
anchors = (
{
name = bottom;
position = "{320, 0}";
},
{
name = top;
position = "{320, 430}";
}
);
layerId = "5FE47517-9953-4891-9518-AB2E2247E448";
paths = (
{
closed = 1;
nodes = (
"150 575 OFFCURVE",
"187 518 OFFCURVE",
"199 518 CURVE",
"239 534 OFFCURVE",
"311 586 OFFCURVE",
"322 586 CURVE",
"346 537 OFFCURVE",
"375 519 OFFCURVE",
"407 519 CURVE SMOOTH",
"454 519 OFFCURVE",
"516 570 OFFCURVE",
"578 631 CURVE",
"562 658 LINE",
"534 623 OFFCURVE",
"495 614 OFFCURVE",
"453 614 CURVE SMOOTH",
"424 614 OFFCURVE",
"396 640 OFFCURVE",
"386 682 CURVE",
"377 684 LINE",
"351 648 OFFCURVE",
"300 600 OFFCURVE",
"248 600 CURVE SMOOTH",
"215 600 OFFCURVE",
"188 630 OFFCURVE",
"186 685 CURVE",
"178 685 LINE",
"158 670 OFFCURVE",
"65 601 OFFCURVE",
"33 567 CURVE",
"51 545 LINE",
"51 540 OFFCURVE",
"83 575 OFFCURVE",
"112 575 CURVE SMOOTH"
);
},
{
closed = 1;
nodes = (
"510 390 LINE",
"340 405 OFFCURVE",
"336 415 OFFCURVE",
"256 454 CURVE",
"214 441 OFFCURVE",
"113 363 OFFCURVE",
"65 317 CURVE",
"45 282 OFFCURVE",
"30 239 OFFCURVE",
"30 200 CURVE SMOOTH",
"30 98 OFFCURVE",
"89 54 OFFCURVE",
"171 34 CURVE",
"134 10 OFFCURVE",
"80 -30 OFFCURVE",
"59 -49 CURVE",
"34 -184 OFFCURVE",
"141 -228 OFFCURVE",
"223 -240 CURVE",
"283 -231 OFFCURVE",
"346 -214 OFFCURVE",
"401 -193 CURVE",
"443 -167 OFFCURVE",
"501 -124 OFFCURVE",
"501 -38 CURVE SMOOTH",
"501 39 OFFCURVE",
"453 106 OFFCURVE",
"339 140 CURVE",
"378 184 OFFCURVE",
"412 244 OFFCURVE",
"442 287 CURVE",
"463 293 OFFCURVE",
"503 294 OFFCURVE",
"523 295 CURVE"
);
},
{
closed = 1;
nodes = (
"126 279 OFFCURVE",
"144 308 OFFCURVE",
"154 325 CURVE",
"230 384 OFFCURVE",
"334 322 OFFCURVE",
"334 241 CURVE SMOOTH",
"334 208 OFFCURVE",
"324 173 OFFCURVE",
"293 140 CURVE",
"202 106 OFFCURVE",
"126 154 OFFCURVE",
"126 231 CURVE SMOOTH"
);
},
{
closed = 1;
nodes = (
"399 -125 OFFCURVE",
"363 -179 OFFCURVE",
"301 -179 CURVE SMOOTH",
"242 -179 OFFCURVE",
"172 -144 OFFCURVE",
"172 -59 CURVE SMOOTH",
"172 -20 OFFCURVE",
"197 17 OFFCURVE",
"219 39 CURVE",
"318 62 OFFCURVE",
"392 14 OFFCURVE",
"396 -61 CURVE SMOOTH"
);
}
);
userData = {
com.schriftgestaltung.Glyphs.ComponentInfo = (
{
alignment = -1;
index = 0;
name = g;
}
);
com.schriftgestaltung.Glyphs.lastChange = "2019-04-24 14:13:13 +0000";
};
width = 563;
}
);
},
{
color = 4;
glyphname = g_l_strok;
lastChange = "2020-02-01 19:33:19 +0000";
layers = (
{
anchors = (
{
name = bottom;
position = "{304, 0}";
},
{
name = bottom_1;
position = "{145, 0}";
},
{
name = bottom_2;
position = "{413, 0}";
},
{
name = bottom_3;
position = "{680, 0}";
},
{
name = caret_1;
position = "{279, 0}";
},
{
name = caret_2;
position = "{546, 0}";
},
{
name = center;
position = "{635, 215}";
},
{
name = top;
position = "{304, 430}";
},
{
name = top_1;
position = "{145, 430}";
},
{
name = top_2;
position = "{413, 430}";
},
{
name = top_3;
position = "{680, 430}";
},
{
name = topright;
position = "{724, 430}";
}
);
layerId = "5FE47517-9953-4891-9518-AB2E2247E448";
paths = (
{
closed = 1;
nodes = (
"913 599 OFFCURVE",
"904 645 OFFCURVE",
"848 672 CURVE",
"842 672 LINE",
"734 622 LINE",
"734 617 LINE",
"769 600 OFFCURVE",
"791 580 OFFCURVE",
"791 541 CURVE SMOOTH",
"791 502 OFFCURVE",
"739 465 OFFCURVE",
"692 436 CURVE",
"693 527 OFFCURVE",
"695 620 OFFCURVE",
"696 718 CURVE",
"688 720 LINE",
"573 666 LINE",
"584 582 OFFCURVE",
"587 511 OFFCURVE",
"587 445 CURVE SMOOTH",
"587 428 OFFCURVE",
"583 411 OFFCURVE",
"575 394 CURVE",
"477 406 OFFCURVE",
"318 441 OFFCURVE",
"300 450 CURVE",
"287 450 OFFCURVE",
"163 382 OFFCURVE",
"96 339 CURVE",
"58 295 OFFCURVE",
"41 249 OFFCURVE",
"41 196 CURVE SMOOTH",
"41 93 OFFCURVE",
"78 40 OFFCURVE",
"133 1 CURVE",
"104 -17 OFFCURVE",
"52 -52 OFFCURVE",
"30 -69 CURVE",
"39 -180 OFFCURVE",
"121 -220 OFFCURVE",
"194 -240 CURVE",
"292 -240 OFFCURVE",
"495 -186 OFFCURVE",
"495 -79 CURVE SMOOTH",
"495 8 OFFCURVE",
"428 44 OFFCURVE",
"428 163 CURVE SMOOTH",
"428 231 OFFCURVE",
"448 300 OFFCURVE",
"562 303 CURVE",
"576 284 OFFCURVE",
"588 257 OFFCURVE",
"588 215 CURVE SMOOTH",
"588 155 OFFCURVE",
"583 96 OFFCURVE",
"583 36 CURVE SMOOTH",
"583 13 OFFCURVE",
"629 -19 OFFCURVE",
"653 -19 CURVE SMOOTH",
"666 -19 OFFCURVE",
"706 17 OFFCURVE",
"734 36 CURVE",
"734 55 LINE",
"700 71 OFFCURVE",
"699 83 OFFCURVE",
"698 103 CURVE SMOOTH",
"693 202 OFFCURVE",
"691 298 OFFCURVE",
"692 396 CURVE",
"781 454 OFFCURVE",
"913 556 OFFCURVE",
"913 585 CURVE SMOOTH"
);
},
{
closed = 1;
nodes = (
"285 129 OFFCURVE",
"253 115 OFFCURVE",
"230 115 CURVE SMOOTH",
"149 115 OFFCURVE",
"135 225 OFFCURVE",
"170 301 CURVE",
"225 339 OFFCURVE",
"324 333 OFFCURVE",
"447 311 CURVE",
"389 274 OFFCURVE",
"308 237 OFFCURVE",
"306 144 CURVE"
);
},
{
closed = 1;
nodes = (
"182 -184 OFFCURVE",
"144 -47 OFFCURVE",
"152 4 CURVE",
"199 45 OFFCURVE",
"264 95 OFFCURVE",
"310 110 CURVE",
"325 40 OFFCURVE",
"387 -42 OFFCURVE",
"387 -101 CURVE SMOOTH",
"387 -164 OFFCURVE",
"335 -184 OFFCURVE",
"296 -184 CURVE SMOOTH"
);
}
);
userData = {
com.schriftgestaltung.Glyphs.ComponentInfo = (
{
alignment = -1;
index = 1;
name = l;
}
);
com.schriftgestaltung.Glyphs.lastChange = "2019-04-13 11:28:18 +0000";
};
width = 758;
}
);
},
{
color = 4;
glyphname = h;
lastChange = "2020-02-01 19:43:14 +0000";
layers = (
{
anchors = (
{
name = bottom;
position = "{277, 0}";
},
{
name = center;
position = "{277, 215}";
},
{
name = top;
position = "{277, 430}";
}
);
layerId = "5FE47517-9953-4891-9518-AB2E2247E448";
paths = (
{
closed = 1;
nodes = (
"264 411 OFFCURVE",
"190 340 OFFCURVE",
"179 333 CURVE",
"182 453 OFFCURVE",
"185 592 OFFCURVE",
"186 712 CURVE",
"179 716 LINE",
"142 701 OFFCURVE",
"70 689 OFFCURVE",
"59 684 CURVE",
"59 620 OFFCURVE",
"70 458 OFFCURVE",
"63 394 CURVE SMOOTH",
"59 355 OFFCURVE",
"45 338 OFFCURVE",
"20 311 CURVE",
"20 305 LINE",
"40 288 OFFCURVE",
"67 253 OFFCURVE",
"67 214 CURVE SMOOTH",
"67 187 OFFCURVE",
"67 -10 OFFCURVE",
"68 -11 CURVE SMOOTH",
"77 -17 LINE",
"181 8 LINE",
"181 297 LINE",
"209 330 OFFCURVE",
"242 343 OFFCURVE",
"282 343 CURVE SMOOTH",
"367 343 OFFCURVE",
"440 277 OFFCURVE",
"440 188 CURVE SMOOTH",
"440 112 OFFCURVE",
"408 78 OFFCURVE",
"376 52 CURVE",
"339 52 OFFCURVE",
"328 78 OFFCURVE",
"309 105 CURVE",
"282 92 OFFCURVE",
"246 69 OFFCURVE",
"230 45 CURVE",
"230 20 OFFCURVE",
"288 -21 OFFCURVE",
"320 -21 CURVE",
"376 23 OFFCURVE",
"410 42 OFFCURVE",
"482 99 CURVE",
"530 150 OFFCURVE",
"538 179 OFFCURVE",
"538 226 CURVE SMOOTH",
"538 343 OFFCURVE",
"453 460 OFFCURVE",
"306 449 CURVE"
);
}
);
userData = {
com.schriftgestaltung.Glyphs.lastChange = "2019-04-13 12:36:56 +0000";
};
width = 563;
}
);
rightMetricsKey = o;
unicode = 0068;
},
{
color = 4;
glyphname = h_strok;
lastChange = "2020-02-01 19:43:14 +0000";
layers = (
{
anchors = (
{
name = bottom;
position = "{274, 0}";
},
{
name = center;
position = "{274, 215}";
},
{
name = top;
position = "{274, 430}";
}
);
layerId = "5FE47517-9953-4891-9518-AB2E2247E448";
paths = (
{
closed = 1;
nodes = (
"264 411 OFFCURVE",
"190 340 OFFCURVE",
"179 333 CURVE",
"180 363 OFFCURVE",
"181 395 OFFCURVE",
"181 427 CURVE",
"270 498 OFFCURVE",
"412 613 OFFCURVE",
"412 625 CURVE SMOOTH",
"412 639 OFFCURVE",
"383 685 OFFCURVE",
"347 722 CURVE",
"341 722 LINE",
"233 662 LINE",
"233 657 LINE",
"258 640 OFFCURVE",
"290 620 OFFCURVE",
"290 581 CURVE SMOOTH",
"290 557 OFFCURVE",
"231 509 OFFCURVE",
"182 470 CURVE",
"184 551 OFFCURVE",
"185 636 OFFCURVE",
"186 712 CURVE",
"179 716 LINE",
"142 701 OFFCURVE",
"70 689 OFFCURVE",
"59 684 CURVE",
"59 620 OFFCURVE",
"70 458 OFFCURVE",
"63 394 CURVE SMOOTH",
"59 355 OFFCURVE",
"45 338 OFFCURVE",
"20 311 CURVE",
"20 305 LINE",
"40 288 OFFCURVE",
"67 253 OFFCURVE",
"67 214 CURVE SMOOTH",
"67 187 OFFCURVE",
"67 -10 OFFCURVE",
"68 -11 CURVE SMOOTH",
"77 -17 LINE",
"181 8 LINE",
"181 297 LINE",
"209 330 OFFCURVE",
"242 343 OFFCURVE",
"282 343 CURVE SMOOTH",
"367 343 OFFCURVE",
"440 277 OFFCURVE",
"440 188 CURVE SMOOTH",
"440 112 OFFCURVE",
"408 78 OFFCURVE",
"376 52 CURVE",
"339 52 OFFCURVE",
"328 78 OFFCURVE",
"309 105 CURVE",
"282 92 OFFCURVE",
"246 69 OFFCURVE",
"230 45 CURVE",
"230 20 OFFCURVE",
"288 -21 OFFCURVE",
"320 -21 CURVE",
"376 23 OFFCURVE",
"410 42 OFFCURVE",
"482 99 CURVE",
"530 150 OFFCURVE",
"538 179 OFFCURVE",
"538 226 CURVE SMOOTH",
"538 343 OFFCURVE",
"453 460 OFFCURVE",
"306 449 CURVE"
);
}
);
userData = {
com.schriftgestaltung.Glyphs.ComponentInfo = (
{
alignment = -1;
index = 0;
name = h;
}
);
com.schriftgestaltung.Glyphs.lastChange = "2019-04-23 08:57:09 +0000";
};
width = 563;
}
);
leftMetricsKey = h;
rightMetricsKey = h;
},
{
color = 4;
glyphname = h_e;
lastChange = "2020-01-30 17:01:20 +0000";
layers = (
{
anchors = (
{
name = bottom;
position = "{277, 0}";
},
{
name = bottom_1;
position = "{199, 0}";
},
{
name = bottom_2;
position = "{598, 0}";
},
{
name = caret_1;
position = "{398.5, 0}";
},
{
name = center;
position = "{277, 215}";
},
{
name = center_1;
position = "{0, 0}";
},
{
name = center_2;
position = "{0, 0}";
},
{
name = ogonek;
position = "{778, 10}";
},
{
name = top;
position = "{277, 430}";
},
{
name = top_1;
position = "{199, 430}";
},
{
name = top_2;
position = "{598, 430}";
}
);
layerId = "5FE47517-9953-4891-9518-AB2E2247E448";
paths = (
{
closed = 1;
nodes = (
"811 346 OFFCURVE",
"732 450 OFFCURVE",
"701 450 CURVE SMOOTH",
"676 450 OFFCURVE",
"540 387 OFFCURVE",
"498 360 CURVE",
"459 417 OFFCURVE",
"393 456 OFFCURVE",
"306 449 CURVE",
"264 411 OFFCURVE",
"190 340 OFFCURVE",
"179 333 CURVE",
"182 453 OFFCURVE",
"185 592 OFFCURVE",
"186 712 CURVE",
"179 716 LINE",
"142 701 OFFCURVE",
"70 689 OFFCURVE",
"59 684 CURVE",
"59 620 OFFCURVE",
"70 458 OFFCURVE",
"63 394 CURVE SMOOTH",
"59 355 OFFCURVE",
"45 338 OFFCURVE",
"20 311 CURVE",
"20 305 LINE",
"40 288 OFFCURVE",
"67 253 OFFCURVE",
"67 214 CURVE SMOOTH",
"67 187 OFFCURVE",
"67 -10 OFFCURVE",
"68 -11 CURVE SMOOTH",
"77 -17 LINE",
"181 8 LINE",
"181 297 LINE",
"209 330 OFFCURVE",
"242 343 OFFCURVE",
"282 343 CURVE SMOOTH",
"367 343 OFFCURVE",
"440 277 OFFCURVE",
"440 188 CURVE SMOOTH",
"440 112 OFFCURVE",
"408 78 OFFCURVE",
"376 52 CURVE",
"339 52 OFFCURVE",
"328 78 OFFCURVE",
"309 105 CURVE",
"282 92 OFFCURVE",
"246 69 OFFCURVE",
"230 45 CURVE",
"230 20 OFFCURVE",
"288 -21 OFFCURVE",
"320 -21 CURVE",
"373 20 OFFCURVE",
"406 40 OFFCURVE",
"470 89 CURVE",
"499 25 OFFCURVE",
"558 -20 OFFCURVE",
"627 -20 CURVE SMOOTH",
"663 -20 OFFCURVE",
"740 26 OFFCURVE",
"791 52 CURVE",
"788 82 LINE",
"768 78 OFFCURVE",
"715 73 OFFCURVE",
"696 74 CURVE SMOOTH",
"641 77 OFFCURVE",
"610 99 OFFCURVE",
"592 130 CURVE",
"674 196 OFFCURVE",
"811 314 OFFCURVE",
"811 326 CURVE SMOOTH"
);
},
{
closed = 1;
nodes = (
"571 192 OFFCURVE",
"569 222 OFFCURVE",
"569 253 CURVE SMOOTH",
"569 296 OFFCURVE",
"574 367 OFFCURVE",
"611 367 CURVE SMOOTH",
"657 367 OFFCURVE",
"681 316 OFFCURVE",
"681 292 CURVE SMOOTH",
"681 246 OFFCURVE",
"628 197 OFFCURVE",
"578 165 CURVE"
);
}
);
userData = {
com.schriftgestaltung.Glyphs.ComponentInfo = (
{
alignment = -1;
index = 0;
name = e;
},
{
alignment = -1;
index = 1;
name = h;
}
);
com.schriftgestaltung.Glyphs.lastChange = "2019-01-14 09:18:15 +0000";
};
width = 821;
}
);
leftMetricsKey = h;
rightMetricsKey = e;
},
{
color = 4;
glyphname = h_e_macr;
lastChange = "2020-01-30 17:01:20 +0000";
layers = (
{
anchors = (
{
name = bottom;
position = "{628, 0}";
},
{
name = bottom_1;
position = "{133, 0}";
},
{
name = bottom_2;
position = "{399, 0}";
},
{
name = bottom_3;
position = "{664, 0}";
},
{
name = caret_1;
position = "{265.667, 0}";
},
{
name = caret_2;
position = "{531.333, 0}";
},
{
name = center;
position = "{277, 215}";
},
{
name = center_1;
position = "{0, 0}";
},
{
name = center_2;
position = "{0, 0}";
},
{
name = center_3;
position = "{0, 0}";
},
{
name = ogonek;
position = "{778, 10}";
},
{
name = top;
position = "{628, 430}";
},
{
name = top_1;
position = "{133, 430}";
},
{
name = top_2;
position = "{399, 430}";
},
{
name = top_3;
position = "{664, 430}";
}
);
layerId = "5FE47517-9953-4891-9518-AB2E2247E448";
paths = (
{
closed = 1;
nodes = (
"811 346 OFFCURVE",
"732 450 OFFCURVE",
"701 450 CURVE SMOOTH",
"676 450 OFFCURVE",
"540 387 OFFCURVE",
"498 360 CURVE",
"459 417 OFFCURVE",
"393 456 OFFCURVE",
"306 449 CURVE",
"264 411 OFFCURVE",
"190 340 OFFCURVE",
"179 333 CURVE",
"182 453 OFFCURVE",
"185 592 OFFCURVE",
"186 712 CURVE",
"179 716 LINE",
"142 701 OFFCURVE",
"70 689 OFFCURVE",
"59 684 CURVE",
"59 620 OFFCURVE",
"70 458 OFFCURVE",
"63 394 CURVE SMOOTH",
"59 355 OFFCURVE",
"45 338 OFFCURVE",
"20 311 CURVE",
"20 305 LINE",
"40 288 OFFCURVE",
"67 253 OFFCURVE",
"67 214 CURVE SMOOTH",
"67 187 OFFCURVE",
"67 -10 OFFCURVE",
"68 -11 CURVE SMOOTH",
"77 -17 LINE",
"181 8 LINE",
"181 297 LINE",
"209 330 OFFCURVE",
"242 343 OFFCURVE",
"282 343 CURVE SMOOTH",
"367 343 OFFCURVE",
"440 277 OFFCURVE",
"440 188 CURVE SMOOTH",
"440 112 OFFCURVE",
"408 78 OFFCURVE",
"376 52 CURVE",
"339 52 OFFCURVE",
"328 78 OFFCURVE",
"309 105 CURVE",
"282 92 OFFCURVE",
"246 69 OFFCURVE",
"230 45 CURVE",
"230 20 OFFCURVE",
"288 -21 OFFCURVE",
"320 -21 CURVE",
"373 20 OFFCURVE",
"406 40 OFFCURVE",
"470 89 CURVE",
"499 25 OFFCURVE",
"558 -20 OFFCURVE",
"627 -20 CURVE SMOOTH",
"663 -20 OFFCURVE",
"740 26 OFFCURVE",
"791 52 CURVE",
"788 82 LINE",
"768 78 OFFCURVE",
"715 73 OFFCURVE",
"696 74 CURVE SMOOTH",
"641 77 OFFCURVE",
"610 99 OFFCURVE",
"592 130 CURVE",
"674 196 OFFCURVE",
"811 314 OFFCURVE",
"811 326 CURVE SMOOTH"
);
},
{
closed = 1;
nodes = (
"615 550 OFFCURVE",
"674 543 OFFCURVE",
"698 543 CURVE SMOOTH",
"711 543 OFFCURVE",
"746 604 OFFCURVE",
"771 636 CURVE",
"743 645 LINE",
"729 639 OFFCURVE",
"716 637 OFFCURVE",
"694 637 CURVE SMOOTH",
"671 637 OFFCURVE",
"615 641 OFFCURVE",
"591 641 CURVE SMOOTH",
"579 641 OFFCURVE",
"524 568 OFFCURVE",
"498 536 CURVE",
"523 525 LINE",
"539 537 OFFCURVE",
"570 550 OFFCURVE",
"592 550 CURVE SMOOTH"
);
},
{
closed = 1;
nodes = (
"571 192 OFFCURVE",
"569 222 OFFCURVE",
"569 253 CURVE SMOOTH",
"569 296 OFFCURVE",
"574 367 OFFCURVE",
"611 367 CURVE SMOOTH",
"657 367 OFFCURVE",
"681 316 OFFCURVE",
"681 292 CURVE SMOOTH",
"681 246 OFFCURVE",
"628 197 OFFCURVE",
"578 165 CURVE"
);
}
);
userData = {
com.schriftgestaltung.Glyphs.ComponentInfo = (
{
alignment = -1;
index = 0;
name = e;
},
{
alignment = -1;
index = 1;
name = h;
}
);
com.schriftgestaltung.Glyphs.lastChange = "2019-04-23 08:57:12 +0000";
};
width = 821;
}
);
leftMetricsKey = h;
rightMetricsKey = e;
},
{
color = 4;
glyphname = h_o;
lastChange = "2020-02-01 19:32:22 +0000";
layers = (
{
anchors = (
{
name = bottom;
position = "{277, 0}";
},
{
name = bottom_1;
position = "{218, 0}";
},
{
name = bottom_2;
position = "{653, 0}";
},
{
name = caret_1;
position = "{435.5, 0}";
},
{
name = center;
position = "{277, 215}";
},
{
name = center_1;
position = "{0, 0}";
},
{
name = center_2;
position = "{0, 0}";
},
{
name = ogonek;
position = "{826, 10}";
},
{
name = top;
position = "{277, 430}";
},
{
name = top_1;
position = "{218, 430}";
},
{
name = top_2;
position = "{653, 430}";
},
{
name = topright;
position = "{851, 430}";
}
);
layerId = "5FE47517-9953-4891-9518-AB2E2247E448";
paths = (
{
closed = 1;
nodes = (
"648 442 OFFCURVE",
"553 375 OFFCURVE",
"508 343 CURVE",
"471 409 OFFCURVE",
"402 456 OFFCURVE",
"306 449 CURVE",
"264 411 OFFCURVE",
"190 340 OFFCURVE",
"179 333 CURVE",
"182 453 OFFCURVE",
"185 592 OFFCURVE",
"186 712 CURVE",
"179 716 LINE",
"142 701 OFFCURVE",
"70 689 OFFCURVE",
"59 684 CURVE",
"59 620 OFFCURVE",
"70 458 OFFCURVE",
"63 394 CURVE SMOOTH",
"59 355 OFFCURVE",
"45 338 OFFCURVE",
"20 311 CURVE",
"20 305 LINE",
"40 288 OFFCURVE",
"67 253 OFFCURVE",
"67 214 CURVE SMOOTH",
"67 187 OFFCURVE",
"67 -10 OFFCURVE",
"68 -11 CURVE SMOOTH",
"77 -17 LINE",
"181 8 LINE",
"181 297 LINE",
"209 330 OFFCURVE",
"242 343 OFFCURVE",
"282 343 CURVE SMOOTH",
"354 343 OFFCURVE",
"417 296 OFFCURVE",
"435 227 CURVE",
"433 216 OFFCURVE",
"432 205 OFFCURVE",
"432 194 CURVE SMOOTH",
"432 178 OFFCURVE",
"434 163 OFFCURVE",
"437 149 CURVE",
"428 99 OFFCURVE",
"402 73 OFFCURVE",
"376 52 CURVE",
"339 52 OFFCURVE",
"328 78 OFFCURVE",
"309 105 CURVE",
"282 92 OFFCURVE",
"246 69 OFFCURVE",
"230 45 CURVE",
"230 20 OFFCURVE",
"288 -21 OFFCURVE",
"320 -21 CURVE",
"370 19 OFFCURVE",
"403 38 OFFCURVE",
"462 83 CURVE",
"495 25 OFFCURVE",
"553 -15 OFFCURVE",
"613 -21 CURVE",
"652 -21 OFFCURVE",
"765 64 OFFCURVE",
"810 100 CURVE",
"840 132 OFFCURVE",
"856 198 OFFCURVE",
"856 234 CURVE SMOOTH",
"856 365 OFFCURVE",
"753 441 OFFCURVE",
"679 450 CURVE"
);
},
{
closed = 1;
nodes = (
"672 60 OFFCURVE",
"540 90 OFFCURVE",
"540 247 CURVE SMOOTH",
"540 311 OFFCURVE",
"573 351 OFFCURVE",
"596 355 CURVE SMOOTH",
"642 362 OFFCURVE",
"740 318 OFFCURVE",
"740 183 CURVE SMOOTH",
"740 124 OFFCURVE",
"717 76 OFFCURVE",
"695 68 CURVE SMOOTH"
);
}
);
userData = {
com.schriftgestaltung.Glyphs.ComponentInfo = (
{
alignment = -1;
index = 0;
name = h;
}
);
com.schriftgestaltung.Glyphs.lastChange = "2019-01-14 08:57:00 +0000";
};
width = 881;
}
);
leftMetricsKey = h;
rightMetricsKey = o;
},
{
color = 4;
glyphname = i;
lastChange = "2020-01-30 17:01:20 +0000";
layers = (
{
anchors = (
{
name = bottom;
position = "{108, 0}";
}
);
layerId = "5FE47517-9953-4891-9518-AB2E2247E448";
paths = (
{
closed = 1;
nodes = (
"114 550 LINE",
"191 714 LINE",
"191 717 LINE",
"153 733 LINE",
"150 732 LINE",
"104 588 LINE",
"111 550 LINE"
);
},
{
closed = 1;
nodes = (
"187 11 LINE",
"184 115 OFFCURVE",
"186 238 OFFCURVE",
"186 332 CURVE SMOOTH",
"186 418 OFFCURVE",
"140 464 OFFCURVE",
"72 445 CURVE",
"10 362 LINE",
"10 342 LINE",
"40 334 OFFCURVE",
"68 331 OFFCURVE",
"70 282 CURVE SMOOTH",
"72 200 OFFCURVE",
"72 103 OFFCURVE",
"68 -10 CURVE",
"75 -14 LINE"
);
}
);
userData = {
com.schriftgestaltung.Glyphs.lastChange = "2019-03-28 15:56:55 +0000";
};
width = 236;
}
);
leftMetricsKey = n;
rightMetricsKey = n;
unicode = 0069;
},
{
color = 4;
glyphname = idotless;
lastChange = "2020-01-30 17:01:20 +0000";
layers = (
{
layerId = "5FE47517-9953-4891-9518-AB2E2247E448";
paths = (
{
closed = 1;
nodes = (
"187 11 LINE",
"184 115 OFFCURVE",
"186 238 OFFCURVE",
"186 332 CURVE SMOOTH",
"186 418 OFFCURVE",
"140 464 OFFCURVE",
"72 445 CURVE",
"10 362 LINE",
"10 342 LINE",
"40 334 OFFCURVE",
"68 331 OFFCURVE",
"70 282 CURVE SMOOTH",
"72 200 OFFCURVE",
"72 103 OFFCURVE",
"68 -10 CURVE",
"75 -14 LINE"
);
}
);
userData = {
com.schriftgestaltung.Glyphs.lastChange = "2019-04-13 12:37:27 +0000";
};
width = 232;
}
);
leftMetricsKey = i;
rightMetricsKey = i;
unicode = 0131;
},
{
color = 4;
glyphname = idotless.ss01;
lastChange = "2020-02-01 19:32:38 +0000";
layers = (
{
layerId = "5FE47517-9953-4891-9518-AB2E2247E448";
paths = (
{
closed = 1;
nodes = (
"153 -20 OFFCURVE",
"193 16 OFFCURVE",
"221 35 CURVE",
"221 54 LINE",
"190 68 OFFCURVE",
"187 80 OFFCURVE",
"186 97 CURVE SMOOTH",
"185 178 OFFCURVE",
"186 263 OFFCURVE",
"186 332 CURVE SMOOTH",
"186 418 OFFCURVE",
"140 464 OFFCURVE",
"72 445 CURVE",
"10 362 LINE",
"10 342 LINE",
"40 334 OFFCURVE",
"68 331 OFFCURVE",
"70 282 CURVE SMOOTH",
"72 200 OFFCURVE",
"74 148 OFFCURVE",
"70 35 CURVE SMOOTH",
"70 12 OFFCURVE",
"116 -20 OFFCURVE",
"140 -20 CURVE SMOOTH"
);
}
);
width = 236;
}
);
leftMetricsKey = n;
},
{
color = 4;
glyphname = i.ss01;
lastChange = "2020-01-30 17:01:20 +0000";
layers = (
{
anchors = (
{
name = bottom;
position = "{123, 0}";
}
);
layerId = "5FE47517-9953-4891-9518-AB2E2247E448";
paths = (
{
closed = 1;
nodes = (
"114 550 LINE",
"191 714 LINE",
"191 717 LINE",
"153 733 LINE",
"150 732 LINE",
"104 588 LINE",
"111 550 LINE"
);
},
{
closed = 1;
nodes = (
"153 -20 OFFCURVE",
"193 16 OFFCURVE",
"221 35 CURVE",
"221 54 LINE",
"190 68 OFFCURVE",
"187 80 OFFCURVE",
"186 97 CURVE SMOOTH",
"185 178 OFFCURVE",
"186 263 OFFCURVE",
"186 332 CURVE SMOOTH",
"186 418 OFFCURVE",
"140 464 OFFCURVE",
"72 445 CURVE",
"10 362 LINE",
"10 342 LINE",
"40 334 OFFCURVE",
"68 331 OFFCURVE",
"70 282 CURVE SMOOTH",
"72 200 OFFCURVE",
"74 148 OFFCURVE",
"70 35 CURVE SMOOTH",
"70 12 OFFCURVE",
"116 -20 OFFCURVE",
"140 -20 CURVE SMOOTH"
);
}
);
userData = {
com.schriftgestaltung.Glyphs.lastChange = "2019-03-28 15:56:55 +0000";
};
width = 236;
}
);
leftMetricsKey = n;
},
{
color = 4;
glyphname = i.ss02;
lastChange = "2020-01-30 17:01:20 +0000";
layers = (
{
anchors = (
{
name = bottom;
position = "{109, 0}";
}
);
layerId = "5FE47517-9953-4891-9518-AB2E2247E448";
paths = (
{
closed = 1;
nodes = (
"90 550 LINE",
"167 714 LINE",
"167 717 LINE",
"129 733 LINE",
"126 732 LINE",
"80 588 LINE",
"87 550 LINE"
);
},
{
closed = 1;
nodes = (
"129 -20 OFFCURVE",
"169 16 OFFCURVE",
"197 35 CURVE",
"197 54 LINE",
"166 68 OFFCURVE",
"163 80 OFFCURVE",
"162 97 CURVE SMOOTH",
"157 178 OFFCURVE",
"154 346 OFFCURVE",
"160 445 CURVE",
"150 449 LINE",
"104 413 OFFCURVE",
"75 390 OFFCURVE",
"45 368 CURVE",
"50 283 OFFCURVE",
"50 136 OFFCURVE",
"46 35 CURVE SMOOTH",
"45 12 OFFCURVE",
"92 -20 OFFCURVE",
"116 -20 CURVE SMOOTH"
);
}
);
userData = {
com.schriftgestaltung.Glyphs.lastChange = "2019-03-28 15:56:55 +0000";
};
width = 212;
}
);
rightMetricsKey = i.ss01;
},
{
color = 4;
glyphname = i_hook;
lastChange = "2020-01-30 17:01:20 +0000";
layers = (
{
anchors = (
{
name = bottom;
position = "{120, 0}";
}
);
layerId = "5FE47517-9953-4891-9518-AB2E2247E448";
paths = (
{
closed = 1;
nodes = (
"146 544 OFFCURVE",
"207 564 OFFCURVE",
"207 634 CURVE SMOOTH",
"207 674 OFFCURVE",
"180 700 OFFCURVE",
"146 724 CURVE",
"141 724 LINE",
"40 669 LINE",
"40 664 LINE",
"73 648 OFFCURVE",
"101 629 OFFCURVE",
"101 593 CURVE SMOOTH",
"101 559 OFFCURVE",
"58 531 OFFCURVE",
"20 504 CURVE",
"43 484 LINE"
);
},
{
closed = 1;
nodes = (
"187 11 LINE",
"184 115 OFFCURVE",
"186 238 OFFCURVE",
"186 332 CURVE SMOOTH",
"186 418 OFFCURVE",
"140 464 OFFCURVE",
"72 445 CURVE",
"10 362 LINE",
"10 342 LINE",
"40 334 OFFCURVE",
"68 331 OFFCURVE",
"70 282 CURVE SMOOTH",
"72 200 OFFCURVE",
"72 103 OFFCURVE",
"68 -10 CURVE",
"75 -14 LINE"
);
}
);
userData = {
com.schriftgestaltung.Glyphs.lastChange = "2019-04-13 11:19:56 +0000";
};
width = 252;
}
);
leftMetricsKey = i;
rightMetricsKey = i;
},
{
color = 4;
glyphname = i_macr;
lastChange = "2020-01-30 17:01:20 +0000";
layers = (
{
anchors = (
{
name = bottom;
position = "{112, 0}";
}
);
layerId = "5FE47517-9953-4891-9518-AB2E2247E448";
paths = (
{
closed = 1;
nodes = (
"21 567 OFFCURVE",
"52 580 OFFCURVE",
"74 580 CURVE SMOOTH",
"97 580 OFFCURVE",
"156 573 OFFCURVE",
"180 573 CURVE SMOOTH",
"193 573 OFFCURVE",
"228 634 OFFCURVE",
"253 666 CURVE",
"225 675 LINE",
"211 669 OFFCURVE",
"198 667 OFFCURVE",
"176 667 CURVE SMOOTH",
"153 667 OFFCURVE",
"97 671 OFFCURVE",
"73 671 CURVE SMOOTH",
"61 671 OFFCURVE",
"6 598 OFFCURVE",
"-20 566 CURVE",
"5 555 LINE"
);
},
{
closed = 1;
nodes = (
"183 11 LINE",
"180 115 OFFCURVE",
"182 238 OFFCURVE",
"182 332 CURVE SMOOTH",
"182 418 OFFCURVE",
"136 464 OFFCURVE",
"68 445 CURVE",
"6 362 LINE",
"6 342 LINE",
"36 334 OFFCURVE",
"64 331 OFFCURVE",
"66 282 CURVE SMOOTH",
"68 200 OFFCURVE",
"68 103 OFFCURVE",
"64 -10 CURVE",
"71 -14 LINE"
);
}
);
userData = {
com.schriftgestaltung.Glyphs.lastChange = "2019-04-23 08:57:16 +0000";
};
width = 223;
}
);
unicode = 012B;
},
{
color = 4;
glyphname = i_j;
lastChange = "2020-01-30 17:01:20 +0000";
layers = (
{
anchors = (
{
name = bottom;
position = "{108, 0}";
},
{
name = bottom_1;
position = "{103, 0}";
},
{
name = bottom_2;
position = "{308, 0}";
},
{
name = caret_1;
position = "{205, 0}";
}
);
layerId = "5FE47517-9953-4891-9518-AB2E2247E448";
paths = (
{
closed = 1;
nodes = (
"191 714 LINE",
"191 717 LINE",
"153 733 LINE",
"150 732 LINE",
"104 588 LINE",
"111 550 LINE",
"114 550 LINE"
);
},
{
closed = 1;
nodes = (
"377 714 LINE",
"377 717 LINE",
"339 733 LINE",
"336 732 LINE",
"290 588 LINE",
"297 550 LINE",
"300 550 LINE"
);
},
{
closed = 1;
nodes = (
"401 415 OFFCURVE",
"352 454 OFFCURVE",
"283 448 CURVE",
"182 371 LINE",
"170 431 OFFCURVE",
"129 461 OFFCURVE",
"72 445 CURVE",
"10 362 LINE",
"10 342 LINE",
"40 334 OFFCURVE",
"68 331 OFFCURVE",
"70 282 CURVE SMOOTH",
"72 200 OFFCURVE",
"72 103 OFFCURVE",
"68 -10 CURVE",
"75 -14 LINE",
"187 11 LINE",
"184 115 OFFCURVE",
"186 238 OFFCURVE",
"186 332 CURVE SMOOTH",
"186 336 LINE",
"233 361 OFFCURVE",
"287 331 OFFCURVE",
"287 263 CURVE SMOOTH",
"287 191 OFFCURVE",
"294 72 OFFCURVE",
"269 -143 CURVE",
"287 -149 LINE",
"329 -77 OFFCURVE",
"367 -21 OFFCURVE",
"410 32 CURVE",
"402 136 OFFCURVE",
"401 178 OFFCURVE",
"401 329 CURVE SMOOTH"
);
}
);
userData = {
com.schriftgestaltung.Glyphs.lastChange = "2019-04-13 11:19:10 +0000";
};
width = 455;
}
);
leftMetricsKey = i;
rightMetricsKey = i;
},
{
color = 4;
glyphname = i_j_dotless;
lastChange = "2020-01-30 17:01:20 +0000";
layers = (
{
anchors = (
{
name = bottom;
position = "{108, 0}";
},
{
name = bottom_1;
position = "{103, 0}";
},
{
name = bottom_2;
position = "{308, 0}";
},
{
name = caret_1;
position = "{205, 0}";
}
);
layerId = "5FE47517-9953-4891-9518-AB2E2247E448";
paths = (
{
closed = 1;
nodes = (
"401 415 OFFCURVE",
"352 454 OFFCURVE",
"283 448 CURVE",
"182 371 LINE",
"170 431 OFFCURVE",
"129 461 OFFCURVE",
"72 445 CURVE",
"10 362 LINE",
"10 342 LINE",
"40 334 OFFCURVE",
"68 331 OFFCURVE",
"70 282 CURVE SMOOTH",
"72 200 OFFCURVE",
"72 103 OFFCURVE",
"68 -10 CURVE",
"75 -14 LINE",
"187 11 LINE",
"184 115 OFFCURVE",
"186 238 OFFCURVE",
"186 332 CURVE SMOOTH",
"186 336 LINE",
"233 361 OFFCURVE",
"287 331 OFFCURVE",
"287 263 CURVE SMOOTH",
"287 191 OFFCURVE",
"294 72 OFFCURVE",
"269 -143 CURVE",
"287 -149 LINE",
"329 -77 OFFCURVE",
"367 -21 OFFCURVE",
"410 32 CURVE",
"402 136 OFFCURVE",
"401 178 OFFCURVE",
"401 329 CURVE SMOOTH"
);
}
);
userData = {
com.schriftgestaltung.Glyphs.lastChange = "2019-04-23 12:32:21 +0000";
};
width = 455;
}
);
leftMetricsKey = i;
rightMetricsKey = j;
},
{
color = 4;
glyphname = i_j_macr;
lastChange = "2020-01-30 17:01:20 +0000";
layers = (
{
anchors = (
{
name = bottom;
position = "{108, 0}";
},
{
name = bottom_1;
position = "{103, 0}";
},
{
name = bottom_2;
position = "{308, 0}";
},
{
name = caret_1;
position = "{205, 0}";
}
);
layerId = "5FE47517-9953-4891-9518-AB2E2247E448";
paths = (
{
closed = 1;
nodes = (
"204 601 OFFCURVE",
"263 594 OFFCURVE",
"287 594 CURVE SMOOTH",
"300 594 OFFCURVE",
"335 655 OFFCURVE",
"360 687 CURVE",
"332 696 LINE",
"318 690 OFFCURVE",
"305 688 OFFCURVE",
"283 688 CURVE SMOOTH",
"260 688 OFFCURVE",
"204 692 OFFCURVE",
"180 692 CURVE SMOOTH",
"168 692 OFFCURVE",
"113 619 OFFCURVE",
"87 587 CURVE",
"112 576 LINE",
"128 588 OFFCURVE",
"159 601 OFFCURVE",
"181 601 CURVE SMOOTH"
);
},
{
closed = 1;
nodes = (
"401 415 OFFCURVE",
"352 454 OFFCURVE",
"283 448 CURVE",
"182 371 LINE",
"170 431 OFFCURVE",
"129 461 OFFCURVE",
"72 445 CURVE",
"10 362 LINE",
"10 342 LINE",
"40 334 OFFCURVE",
"68 331 OFFCURVE",
"70 282 CURVE SMOOTH",
"72 200 OFFCURVE",
"72 103 OFFCURVE",
"68 -10 CURVE",
"75 -14 LINE",
"187 11 LINE",
"184 115 OFFCURVE",
"186 238 OFFCURVE",
"186 332 CURVE SMOOTH",
"186 336 LINE",
"233 361 OFFCURVE",
"287 331 OFFCURVE",
"287 263 CURVE SMOOTH",
"287 191 OFFCURVE",
"294 72 OFFCURVE",
"269 -143 CURVE",
"287 -149 LINE",
"329 -77 OFFCURVE",
"367 -21 OFFCURVE",
"410 32 CURVE",
"402 136 OFFCURVE",
"401 178 OFFCURVE",
"401 329 CURVE SMOOTH"
);
}
);
userData = {
com.schriftgestaltung.Glyphs.lastChange = "2019-04-23 08:57:19 +0000";
};
width = 455;
}
);
leftMetricsKey = i;
rightMetricsKey = i;
},
{
color = 4;
glyphname = i_m;
lastChange = "2020-01-30 17:01:20 +0000";
layers = (
{
anchors = (
{
name = bottom;
position = "{108, 0}";
},
{
name = bottom_1;
position = "{81, 0}";
},
{
name = bottom_2;
position = "{620, 0}";
},
{
name = caret_1;
position = "{351, 0}";
}
);
layerId = "5FE47517-9953-4891-9518-AB2E2247E448";
paths = (
{
closed = 1;
nodes = (
"191 714 LINE",
"191 717 LINE",
"153 733 LINE",
"150 732 LINE",
"104 588 LINE",
"111 550 LINE",
"114 550 LINE"
);
},
{
closed = 1;
nodes = (
"866 115 OFFCURVE",
"866 229 OFFCURVE",
"866 344 CURVE SMOOTH",
"866 430 OFFCURVE",
"795 450 OFFCURVE",
"731 450 CURVE SMOOTH",
"720 450 OFFCURVE",
"691 404 OFFCURVE",
"634 349 CURVE",
"631 431 OFFCURVE",
"562 450 OFFCURVE",
"499 450 CURVE SMOOTH",
"488 450 OFFCURVE",
"461 407 OFFCURVE",
"408 355 CURVE",
"402 432 OFFCURVE",
"334 450 OFFCURVE",
"273 450 CURVE SMOOTH",
"263 450 OFFCURVE",
"236 408 OFFCURVE",
"185 358 CURVE",
"176 427 OFFCURVE",
"133 462 OFFCURVE",
"72 445 CURVE",
"10 362 LINE",
"10 342 LINE",
"40 334 OFFCURVE",
"68 331 OFFCURVE",
"70 282 CURVE SMOOTH",
"72 200 OFFCURVE",
"72 103 OFFCURVE",
"68 -10 CURVE",
"75 -14 LINE",
"187 11 LINE",
"184 110 OFFCURVE",
"186 226 OFFCURVE",
"186 318 CURVE",
"198 328 OFFCURVE",
"214 337 OFFCURVE",
"231 337 CURVE SMOOTH",
"249 337 OFFCURVE",
"281 328 OFFCURVE",
"285 300 CURVE SMOOTH",
"289 271 OFFCURVE",
"292 94 OFFCURVE",
"288 -4 CURVE",
"292 -6 LINE",
"411 0 LINE",
"408 105 OFFCURVE",
"408 210 OFFCURVE",
"408 315 CURVE",
"421 326 OFFCURVE",
"439 337 OFFCURVE",
"457 337 CURVE SMOOTH",
"475 337 OFFCURVE",
"507 328 OFFCURVE",
"511 300 CURVE SMOOTH",
"515 271 OFFCURVE",
"518 94 OFFCURVE",
"514 -4 CURVE",
"518 -6 LINE",
"637 0 LINE",
"634 104 OFFCURVE",
"634 206 OFFCURVE",
"634 310 CURVE",
"647 322 OFFCURVE",
"668 337 OFFCURVE",
"689 337 CURVE SMOOTH",
"707 337 OFFCURVE",
"741 328 OFFCURVE",
"743 300 CURVE SMOOTH",
"745 271 OFFCURVE",
"750 96 OFFCURVE",
"746 -2 CURVE",
"869 0 LINE"
);
}
);
userData = {
com.schriftgestaltung.Glyphs.ComponentInfo = (
{
alignment = -1;
index = 0;
name = i;
}
);
com.schriftgestaltung.Glyphs.lastChange = "2019-03-28 15:56:55 +0000";
};
width = 914;
}
);
leftMetricsKey = i;
rightMetricsKey = m;
},
{
color = 4;
glyphname = i_n;
lastChange = "2020-02-01 19:33:41 +0000";
layers = (
{
anchors = (
{
name = bottom;
position = "{108, 0}";
},
{
name = bottom_1;
position = "{164, 0}";
},
{
name = bottom_2;
position = "{491, 0}";
},
{
name = caret_1;
position = "{327.5, 0}";
}
);
layerId = "5FE47517-9953-4891-9518-AB2E2247E448";
paths = (
{
closed = 1;
nodes = (
"191 714 LINE",
"191 717 LINE",
"153 733 LINE",
"150 732 LINE",
"104 588 LINE",
"111 550 LINE",
"114 550 LINE"
);
},
{
closed = 1;
nodes = (
"632 115 OFFCURVE",
"632 229 OFFCURVE",
"632 344 CURVE SMOOTH",
"632 430 OFFCURVE",
"561 450 OFFCURVE",
"497 450 CURVE SMOOTH",
"486 450 OFFCURVE",
"457 404 OFFCURVE",
"400 349 CURVE",
"397 431 OFFCURVE",
"328 450 OFFCURVE",
"265 450 CURVE SMOOTH",
"255 450 OFFCURVE",
"230 412 OFFCURVE",
"184 365 CURVE",
"173 429 OFFCURVE",
"131 461 OFFCURVE",
"72 445 CURVE",
"10 362 LINE",
"10 342 LINE",
"40 334 OFFCURVE",
"68 331 OFFCURVE",
"70 282 CURVE SMOOTH",
"72 200 OFFCURVE",
"72 103 OFFCURVE",
"68 -10 CURVE",
"75 -14 LINE",
"187 11 LINE",
"184 112 OFFCURVE",
"186 231 OFFCURVE",
"186 324 CURVE",
"197 331 OFFCURVE",
"210 337 OFFCURVE",
"223 337 CURVE SMOOTH",
"241 337 OFFCURVE",
"273 328 OFFCURVE",
"277 300 CURVE SMOOTH",
"281 271 OFFCURVE",
"284 94 OFFCURVE",
"280 -4 CURVE",
"284 -6 LINE",
"403 0 LINE",
"400 104 OFFCURVE",
"400 206 OFFCURVE",
"400 310 CURVE",
"413 322 OFFCURVE",
"434 337 OFFCURVE",
"455 337 CURVE SMOOTH",
"473 337 OFFCURVE",
"507 328 OFFCURVE",
"509 300 CURVE SMOOTH",
"511 271 OFFCURVE",
"516 96 OFFCURVE",
"512 -2 CURVE",
"635 0 LINE"
);
}
);
userData = {
com.schriftgestaltung.Glyphs.ComponentInfo = (
{
alignment = -1;
index = 0;
name = i;
}
);
com.schriftgestaltung.Glyphs.lastChange = "2019-03-28 15:56:55 +0000";
};
width = 680;
}
);
leftMetricsKey = i;
rightMetricsKey = n;
},
{
color = 4;
glyphname = i_u;
lastChange = "2020-02-01 19:33:36 +0000";
layers = (
{
anchors = (
{
name = bottom;
position = "{468, 0}";
},
{
name = bottom_1;
position = "{181, 0}";
},
{
name = bottom_2;
position = "{524, 0}";
},
{
name = caret_1;
position = "{353, 0}";
},
{
name = ogonek;
position = "{654, 10}";
},
{
name = top;
position = "{468, 430}";
},
{
name = topright;
position = "{680, 430}";
}
);
layerId = "5FE47517-9953-4891-9518-AB2E2247E448";
paths = (
{
closed = 1;
nodes = (
"191 714 LINE",
"191 717 LINE",
"153 733 LINE",
"150 732 LINE",
"104 588 LINE",
"111 550 LINE",
"114 550 LINE"
);
},
{
closed = 1;
nodes = (
"663 80 OFFCURVE",
"633 88 OFFCURVE",
"632 124 CURVE SMOOTH",
"629 220 OFFCURVE",
"630 343 OFFCURVE",
"636 450 CURVE",
"630 452 LINE",
"511 396 LINE",
"520 313 OFFCURVE",
"517 187 OFFCURVE",
"517 104 CURVE",
"501 90 OFFCURVE",
"480 73 OFFCURVE",
"455 73 CURVE SMOOTH",
"421 73 OFFCURVE",
"408 103 OFFCURVE",
"408 134 CURVE SMOOTH",
"408 389 LINE SMOOTH",
"408 421 OFFCURVE",
"371 449 OFFCURVE",
"317 449 CURVE SMOOTH",
"311 449 OFFCURVE",
"267 392 OFFCURVE",
"246 361 CURVE",
"246 341 LINE",
"271 333 OFFCURVE",
"296 316 OFFCURVE",
"296 275 CURVE SMOOTH",
"296 102 LINE",
"277 86 OFFCURVE",
"248 67 OFFCURVE",
"228 67 CURVE SMOOTH",
"200 67 OFFCURVE",
"187 87 OFFCURVE",
"186 116 CURVE SMOOTH",
"185 177 OFFCURVE",
"186 263 OFFCURVE",
"186 332 CURVE SMOOTH",
"186 418 OFFCURVE",
"140 464 OFFCURVE",
"72 445 CURVE",
"10 362 LINE",
"10 342 LINE",
"40 334 OFFCURVE",
"68 331 OFFCURVE",
"70 282 CURVE SMOOTH",
"72 200 OFFCURVE",
"74 148 OFFCURVE",
"72 65 CURVE SMOOTH",
"70 12 OFFCURVE",
"100 -20 OFFCURVE",
"144 -20 CURVE SMOOTH",
"173 -20 OFFCURVE",
"256 33 OFFCURVE",
"296 59 CURVE",
"298 23 OFFCURVE",
"314 -24 OFFCURVE",
"362 -24 CURVE SMOOTH",
"408 -24 OFFCURVE",
"479 33 OFFCURVE",
"522 62 CURVE",
"525 49 LINE SMOOTH",
"533 16 OFFCURVE",
"558 -20 OFFCURVE",
"597 -20 CURVE SMOOTH",
"618 -20 OFFCURVE",
"680 41 OFFCURVE",
"695 58 CURVE",
"693 81 LINE"
);
}
);
userData = {
com.schriftgestaltung.Glyphs.lastChange = "2019-03-28 15:56:55 +0000";
};
width = 700;
}
);
leftMetricsKey = i;
rightMetricsKey = u;
},
{
color = 4;
glyphname = i_u_macr;
lastChange = "2020-01-30 17:01:20 +0000";
layers = (
{
anchors = (
{
name = bottom;
position = "{448, 0}";
},
{
name = ogonek;
position = "{634, 10}";
},
{
name = top;
position = "{448, 430}";
},
{
name = topright;
position = "{660, 430}";
}
);
layerId = "5FE47517-9953-4891-9518-AB2E2247E448";
paths = (
{
closed = 1;
nodes = (
"191 714 LINE",
"191 717 LINE",
"153 733 LINE",
"150 732 LINE",
"104 588 LINE",
"111 550 LINE",
"114 550 LINE"
);
},
{
closed = 1;
nodes = (
"442 614 OFFCURVE",
"508 612 OFFCURVE",
"534 614 CURVE SMOOTH",
"548 615 OFFCURVE",
"583 678 OFFCURVE",
"608 712 CURVE",
"576 719 LINE",
"561 712 OFFCURVE",
"547 709 OFFCURVE",
"523 707 CURVE SMOOTH",
"498 705 OFFCURVE",
"436 705 OFFCURVE",
"409 703 CURVE SMOOTH",
"396 702 OFFCURVE",
"341 625 OFFCURVE",
"315 591 CURVE",
"343 582 LINE",
"360 596 OFFCURVE",
"393 611 OFFCURVE",
"417 613 CURVE SMOOTH"
);
},
{
closed = 1;
nodes = (
"643 80 OFFCURVE",
"613 88 OFFCURVE",
"612 124 CURVE SMOOTH",
"609 220 OFFCURVE",
"610 343 OFFCURVE",
"616 450 CURVE",
"610 452 LINE",
"491 396 LINE",
"500 313 OFFCURVE",
"497 187 OFFCURVE",
"497 104 CURVE",
"481 90 OFFCURVE",
"460 73 OFFCURVE",
"435 73 CURVE SMOOTH",
"401 73 OFFCURVE",
"387 103 OFFCURVE",
"388 134 CURVE SMOOTH",
"390 239 OFFCURVE",
"382 327 OFFCURVE",
"395 448 CURVE",
"389 452 LINE",
"276 396 LINE",
"276 87 LINE",
"260 76 OFFCURVE",
"242 67 OFFCURVE",
"228 67 CURVE SMOOTH",
"200 67 OFFCURVE",
"187 87 OFFCURVE",
"186 116 CURVE SMOOTH",
"185 177 OFFCURVE",
"186 263 OFFCURVE",
"186 332 CURVE SMOOTH",
"186 418 OFFCURVE",
"140 464 OFFCURVE",
"72 445 CURVE",
"10 362 LINE",
"10 342 LINE",
"40 334 OFFCURVE",
"68 331 OFFCURVE",
"70 282 CURVE SMOOTH",
"72 200 OFFCURVE",
"74 148 OFFCURVE",
"72 65 CURVE SMOOTH",
"70 12 OFFCURVE",
"100 -20 OFFCURVE",
"144 -20 CURVE SMOOTH",
"169 -20 OFFCURVE",
"234 19 OFFCURVE",
"277 47 CURVE",
"282 14 OFFCURVE",
"299 -20 OFFCURVE",
"342 -20 CURVE SMOOTH",
"388 -20 OFFCURVE",
"459 43 OFFCURVE",
"502 62 CURVE",
"505 49 LINE SMOOTH",
"513 16 OFFCURVE",
"538 -20 OFFCURVE",
"577 -20 CURVE SMOOTH",
"598 -20 OFFCURVE",
"660 41 OFFCURVE",
"675 58 CURVE",
"673 81 LINE"
);
}
);
userData = {
com.schriftgestaltung.Glyphs.lastChange = "2019-03-28 15:56:55 +0000";
};
width = 680;
}
);
leftMetricsKey = i;
rightMetricsKey = u;
},
{
color = 6;
glyphname = j;
lastChange = "2020-01-30 17:01:20 +0000";
layers = (
{
layerId = "5FE47517-9953-4891-9518-AB2E2247E448";
paths = (
{
closed = 1;
nodes = (
"109 550 LINE",
"186 714 LINE",
"186 717 LINE",
"148 733 LINE",
"145 732 LINE",
"99 588 LINE",
"106 550 LINE"
);
},
{
closed = 1;
nodes = (
"109 -77 OFFCURVE",
"147 -21 OFFCURVE",
"190 32 CURVE",
"182 136 OFFCURVE",
"177 178 OFFCURVE",
"185 329 CURVE SMOOTH",
"190 415 OFFCURVE",
"144 463 OFFCURVE",
"75 447 CURVE",
"10 365 LINE",
"10 345 LINE",
"39 336 OFFCURVE",
"67 332 OFFCURVE",
"67 283 CURVE SMOOTH",
"67 201 OFFCURVE",
"74 72 OFFCURVE",
"49 -143 CURVE",
"67 -149 LINE"
);
}
);
userData = {
com.schriftgestaltung.Glyphs.lastChange = "2019-03-28 15:56:55 +0000";
};
width = 235;
}
);
leftMetricsKey = i;
unicode = 006A;
},
{
color = 4;
glyphname = k;
lastChange = "2020-01-30 17:01:20 +0000";
layers = (
{
layerId = "5FE47517-9953-4891-9518-AB2E2247E448";
paths = (
{
closed = 1;
nodes = (
"295 255 OFFCURVE",
"326 277 OFFCURVE",
"357 305 CURVE",
"417 390 OFFCURVE",
"308 450 OFFCURVE",
"278 450 CURVE SMOOTH",
"258 450 OFFCURVE",
"204 405 OFFCURVE",
"157 368 CURVE",
"159 452 OFFCURVE",
"162 563 OFFCURVE",
"167 718 CURVE",
"159 720 LINE",
"47 686 LINE",
"61 592 OFFCURVE",
"61 511 OFFCURVE",
"61 445 CURVE SMOOTH",
"61 413 OFFCURVE",
"47 379 OFFCURVE",
"10 341 CURVE",
"10 332 LINE",
"30 311 OFFCURVE",
"62 282 OFFCURVE",
"62 215 CURVE SMOOTH",
"62 155 OFFCURVE",
"59 46 OFFCURVE",
"39 26 CURVE",
"40 -1 LINE",
"159 0 LINE",
"158 64 OFFCURVE",
"156 102 OFFCURVE",
"156 159 CURVE",
"166 163 LINE",
"280 153 OFFCURVE",
"363 87 OFFCURVE",
"317 21 CURVE",
"321 18 LINE",
"382 -15 LINE",
"421 0 LINE",
"425 20 OFFCURVE",
"430 48 OFFCURVE",
"430 79 CURVE SMOOTH",
"430 147 OFFCURVE",
"363 213 OFFCURVE",
"265 231 CURVE"
);
},
{
closed = 1;
nodes = (
"155 191 LINE",
"155 228 OFFCURVE",
"155 274 OFFCURVE",
"156 335 CURVE",
"208 366 OFFCURVE",
"271 352 OFFCURVE",
"271 296 CURVE SMOOTH",
"271 262 OFFCURVE",
"228 238 OFFCURVE",
"186 211 CURVE SMOOTH"
);
}
);
userData = {
com.schriftgestaltung.Glyphs.lastChange = "2019-03-28 15:56:55 +0000";
};
width = 435;
}
);
unicode = 006B;
},
{
color = 4;
glyphname = l;
lastChange = "2020-01-30 17:01:20 +0000";
layers = (
{
anchors = (
{
name = bottom;
position = "{109, 0}";
},
{
name = center;
position = "{109, 215}";
},
{
name = top;
position = "{109, 430}";
},
{
name = topright;
position = "{198, 430}";
}
);
layerId = "5FE47517-9953-4891-9518-AB2E2247E448";
paths = (
{
closed = 1;
nodes = (
"140 -19 OFFCURVE",
"180 17 OFFCURVE",
"208 36 CURVE",
"208 55 LINE",
"174 71 OFFCURVE",
"173 83 OFFCURVE",
"172 103 CURVE SMOOTH",
"161 307 OFFCURVE",
"167 501 OFFCURVE",
"170 718 CURVE",
"162 720 LINE",
"47 666 LINE",
"58 582 OFFCURVE",
"61 511 OFFCURVE",
"61 445 CURVE SMOOTH",
"61 413 OFFCURVE",
"47 379 OFFCURVE",
"10 341 CURVE",
"10 332 LINE",
"30 311 OFFCURVE",
"62 282 OFFCURVE",
"62 215 CURVE SMOOTH",
"62 155 OFFCURVE",
"57 96 OFFCURVE",
"57 36 CURVE SMOOTH",
"57 13 OFFCURVE",
"103 -19 OFFCURVE",
"127 -19 CURVE SMOOTH"
);
}
);
userData = {
com.schriftgestaltung.Glyphs.lastChange = "2019-01-07 10:00:03 +0000";
};
width = 218;
}
);
unicode = 006C;
},
{
color = 4;
glyphname = l_strok;
lastChange = "2020-01-30 17:01:20 +0000";
layers = (
{
anchors = (
{
name = bottom;
position = "{184, 0}";
},
{
name = center;
position = "{184, 215}";
},
{
name = top;
position = "{184, 430}";
},
{
name = topright;
position = "{372, 430}";
}
);
layerId = "5FE47517-9953-4891-9518-AB2E2247E448";
paths = (
{
closed = 1;
nodes = (
"387 635 OFFCURVE",
"378 681 OFFCURVE",
"342 718 CURVE",
"336 718 LINE",
"208 688 LINE",
"208 677 LINE",
"243 660 OFFCURVE",
"274 644 OFFCURVE",
"274 605 CURVE SMOOTH",
"274 577 OFFCURVE",
"217 521 OFFCURVE",
"166 477 CURVE",
"167 555 OFFCURVE",
"169 635 OFFCURVE",
"170 718 CURVE",
"162 720 LINE",
"47 666 LINE",
"58 582 OFFCURVE",
"61 511 OFFCURVE",
"61 445 CURVE SMOOTH",
"61 413 OFFCURVE",
"47 379 OFFCURVE",
"10 341 CURVE",
"10 332 LINE",
"30 311 OFFCURVE",
"62 282 OFFCURVE",
"62 215 CURVE SMOOTH",
"62 155 OFFCURVE",
"57 96 OFFCURVE",
"57 36 CURVE SMOOTH",
"57 13 OFFCURVE",
"103 -19 OFFCURVE",
"127 -19 CURVE SMOOTH",
"140 -19 OFFCURVE",
"180 17 OFFCURVE",
"208 36 CURVE",
"208 55 LINE",
"174 71 OFFCURVE",
"173 83 OFFCURVE",
"172 103 CURVE SMOOTH",
"166 213 OFFCURVE",
"165 321 OFFCURVE",
"166 430 CURVE",
"255 502 OFFCURVE",
"387 609 OFFCURVE",
"387 621 CURVE SMOOTH"
);
}
);
userData = {
com.schriftgestaltung.Glyphs.ComponentInfo = (
{
alignment = -1;
index = 0;
name = l;
}
);
com.schriftgestaltung.Glyphs.lastChange = "2019-04-13 11:20:51 +0000";
};
width = 232;
}
);
leftMetricsKey = l;
unicode = A769;
},
{
color = 4;
glyphname = l_l;
lastChange = "2020-02-04 05:24:38 +0000";
layers = (
{
anchors = (
{
name = bottom_1;
position = "{125, 0}";
},
{
name = bottom_2;
position = "{324, 0}";
},
{
name = caret_1;
position = "{225, 0}";
},
{
name = center_1;
position = "{25, 0}";
},
{
name = center_2;
position = "{25, 0}";
},
{
name = top_1;
position = "{125, 430}";
},
{
name = top_2;
position = "{324, 430}";
},
{
name = topright_1;
position = "{25, 0}";
},
{
name = topright_2;
position = "{25, 0}";
}
);
layerId = "5FE47517-9953-4891-9518-AB2E2247E448";
paths = (
{
closed = 1;
nodes = (
"359 307 OFFCURVE",
"362 501 OFFCURVE",
"369 718 CURVE",
"361 720 LINE",
"245 666 LINE",
"258 589 OFFCURVE",
"262 208 OFFCURVE",
"255 91 CURVE",
"238 79 OFFCURVE",
"219 68 OFFCURVE",
"204 68 CURVE SMOOTH",
"176 68 OFFCURVE",
"156 88 OFFCURVE",
"155 112 CURVE SMOOTH",
"146 316 OFFCURVE",
"148 501 OFFCURVE",
"155 718 CURVE",
"147 720 LINE",
"35 666 LINE",
"49 582 OFFCURVE",
"48 125 OFFCURVE",
"45 55 CURVE SMOOTH",
"44 32 OFFCURVE",
"111 -19 OFFCURVE",
"135 -19 CURVE SMOOTH",
"160 -19 OFFCURVE",
"216 24 OFFCURVE",
"255 54 CURVE",
"264 26 OFFCURVE",
"303 -19 OFFCURVE",
"323 -19 CURVE SMOOTH",
"336 -19 OFFCURVE",
"386 18 OFFCURVE",
"414 43 CURVE",
"414 65 LINE",
"380 68 OFFCURVE",
"366 83 OFFCURVE",
"365 103 CURVE SMOOTH"
);
}
);
userData = {
com.schriftgestaltung.Glyphs.lastChange = "2019-01-14 09:56:04 +0000";
};
width = 424;
}
);
rightMetricsKey = l;
},
{
color = 4;
glyphname = m;
lastChange = "2020-01-30 17:01:20 +0000";
layers = (
{
anchors = (
{
name = bottom;
position = "{338, 0}";
},
{
name = top;
position = "{338, 430}";
}
);
layerId = "5FE47517-9953-4891-9518-AB2E2247E448";
paths = (
{
closed = 1;
nodes = (
"653 115 OFFCURVE",
"653 229 OFFCURVE",
"653 344 CURVE SMOOTH",
"653 430 OFFCURVE",
"582 450 OFFCURVE",
"518 450 CURVE SMOOTH",
"507 450 OFFCURVE",
"478 404 OFFCURVE",
"421 349 CURVE",
"418 431 OFFCURVE",
"349 450 OFFCURVE",
"286 450 CURVE SMOOTH",
"275 450 OFFCURVE",
"247 405 OFFCURVE",
"191 351 CURVE",
"189 415 OFFCURVE",
"136 450 OFFCURVE",
"83 450 CURVE SMOOTH",
"77 450 OFFCURVE",
"44 397 OFFCURVE",
"10 357 CURVE",
"10 332 LINE",
"43 332 OFFCURVE",
"76 329 OFFCURVE",
"76 271 CURVE SMOOTH",
"76 -5 LINE",
"80 -7 LINE",
"195 0 LINE",
"191 105 OFFCURVE",
"190 205 OFFCURVE",
"191 310 CURVE SMOOTH",
"191 311 LINE",
"204 323 OFFCURVE",
"224 337 OFFCURVE",
"244 337 CURVE SMOOTH",
"262 337 OFFCURVE",
"294 328 OFFCURVE",
"298 300 CURVE SMOOTH",
"302 271 OFFCURVE",
"305 94 OFFCURVE",
"301 -4 CURVE",
"305 -6 LINE",
"424 0 LINE",
"421 104 OFFCURVE",
"421 206 OFFCURVE",
"421 310 CURVE",
"434 322 OFFCURVE",
"455 337 OFFCURVE",
"476 337 CURVE SMOOTH",
"494 337 OFFCURVE",
"528 328 OFFCURVE",
"530 300 CURVE SMOOTH",
"532 271 OFFCURVE",
"537 96 OFFCURVE",
"533 -2 CURVE",
"656 0 LINE"
);
}
);
userData = {
com.schriftgestaltung.Glyphs.lastChange = "2019-03-28 15:56:55 +0000";
};
width = 701;
}
);
leftMetricsKey = n;
rightMetricsKey = n;
unicode = 006D;
},
{
color = 4;
glyphname = m_macr;
lastChange = "2020-01-30 17:01:20 +0000";
layers = (
{
anchors = (
{
name = bottom;
position = "{338, 0}";
},
{
name = top;
position = "{338, 430}";
}
);
layerId = "5FE47517-9953-4891-9518-AB2E2247E448";
paths = (
{
closed = 1;
nodes = (
"346 550 OFFCURVE",
"405 543 OFFCURVE",
"429 543 CURVE SMOOTH",
"442 543 OFFCURVE",
"477 604 OFFCURVE",
"502 636 CURVE",
"474 645 LINE",
"460 639 OFFCURVE",
"447 637 OFFCURVE",
"425 637 CURVE SMOOTH",
"402 637 OFFCURVE",
"346 641 OFFCURVE",
"322 641 CURVE SMOOTH",
"310 641 OFFCURVE",
"255 568 OFFCURVE",
"229 536 CURVE",
"254 525 LINE",
"270 537 OFFCURVE",
"301 550 OFFCURVE",
"323 550 CURVE SMOOTH"
);
},
{
closed = 1;
nodes = (
"653 115 OFFCURVE",
"653 229 OFFCURVE",
"653 344 CURVE SMOOTH",
"653 430 OFFCURVE",
"582 450 OFFCURVE",
"518 450 CURVE SMOOTH",
"507 450 OFFCURVE",
"478 404 OFFCURVE",
"421 349 CURVE",
"418 431 OFFCURVE",
"349 450 OFFCURVE",
"286 450 CURVE SMOOTH",
"275 450 OFFCURVE",
"247 405 OFFCURVE",
"191 351 CURVE",
"189 415 OFFCURVE",
"136 450 OFFCURVE",
"83 450 CURVE SMOOTH",
"77 450 OFFCURVE",
"44 397 OFFCURVE",
"10 357 CURVE",
"10 332 LINE",
"43 332 OFFCURVE",
"76 329 OFFCURVE",
"76 271 CURVE SMOOTH",
"76 -5 LINE",
"80 -7 LINE",
"195 0 LINE",
"191 105 OFFCURVE",
"190 205 OFFCURVE",
"191 310 CURVE SMOOTH",
"191 311 LINE",
"204 323 OFFCURVE",
"224 337 OFFCURVE",
"244 337 CURVE SMOOTH",
"262 337 OFFCURVE",
"294 328 OFFCURVE",
"298 300 CURVE SMOOTH",
"302 271 OFFCURVE",
"305 94 OFFCURVE",
"301 -4 CURVE",
"305 -6 LINE",
"424 0 LINE",
"421 104 OFFCURVE",
"421 206 OFFCURVE",
"421 310 CURVE",
"434 322 OFFCURVE",
"455 337 OFFCURVE",
"476 337 CURVE SMOOTH",
"494 337 OFFCURVE",
"528 328 OFFCURVE",
"530 300 CURVE SMOOTH",
"532 271 OFFCURVE",
"537 96 OFFCURVE",
"533 -2 CURVE",
"656 0 LINE"
);
}
);
userData = {
com.schriftgestaltung.Glyphs.ComponentInfo = (
{
alignment = -1;
index = 0;
name = m;
}
);
com.schriftgestaltung.Glyphs.lastChange = "2019-04-23 08:58:37 +0000";
};
width = 676;
}
);
unicode = E5B8;
},
{
color = 4;
glyphname = m_i;
lastChange = "2020-02-01 19:43:02 +0000";
layers = (
{
anchors = (
{
name = bottom_1;
position = "{222, 0}";
},
{
name = bottom_2;
position = "{665, 0}";
},
{
name = caret_1;
position = "{443.5, 0}";
},
{
name = top_1;
position = "{222, 430}";
},
{
name = top_2;
position = "{665, 430}";
}
);
layerId = "5FE47517-9953-4891-9518-AB2E2247E448";
paths = (
{
closed = 1;
nodes = (
"845 700 LINE",
"845 703 LINE",
"807 719 LINE",
"804 718 LINE",
"758 574 LINE",
"765 536 LINE",
"768 536 LINE"
);
},
{
closed = 1;
nodes = (
"864 115 OFFCURVE",
"864 229 OFFCURVE",
"864 344 CURVE SMOOTH",
"864 430 OFFCURVE",
"793 450 OFFCURVE",
"729 450 CURVE SMOOTH",
"718 450 OFFCURVE",
"689 404 OFFCURVE",
"632 349 CURVE",
"629 431 OFFCURVE",
"560 450 OFFCURVE",
"497 450 CURVE SMOOTH",
"486 450 OFFCURVE",
"459 407 OFFCURVE",
"406 355 CURVE",
"400 432 OFFCURVE",
"332 450 OFFCURVE",
"271 450 CURVE SMOOTH",
"261 450 OFFCURVE",
"235 409 OFFCURVE",
"184 359 CURVE",
"175 428 OFFCURVE",
"132 462 OFFCURVE",
"72 445 CURVE",
"10 362 LINE",
"10 342 LINE",
"40 334 OFFCURVE",
"68 331 OFFCURVE",
"70 282 CURVE SMOOTH",
"73 200 OFFCURVE",
"72 103 OFFCURVE",
"68 -10 CURVE",
"75 -14 LINE",
"187 11 LINE",
"184 111 OFFCURVE",
"186 227 OFFCURVE",
"186 320 CURVE",
"198 329 OFFCURVE",
"213 337 OFFCURVE",
"229 337 CURVE SMOOTH",
"247 337 OFFCURVE",
"279 328 OFFCURVE",
"283 300 CURVE SMOOTH",
"287 271 OFFCURVE",
"290 94 OFFCURVE",
"286 -4 CURVE",
"290 -6 LINE",
"409 0 LINE",
"406 105 OFFCURVE",
"406 210 OFFCURVE",
"406 315 CURVE",
"419 326 OFFCURVE",
"437 337 OFFCURVE",
"455 337 CURVE SMOOTH",
"473 337 OFFCURVE",
"505 328 OFFCURVE",
"509 300 CURVE SMOOTH",
"513 271 OFFCURVE",
"516 94 OFFCURVE",
"512 -4 CURVE",
"516 -6 LINE",
"635 0 LINE",
"632 104 OFFCURVE",
"632 206 OFFCURVE",
"632 310 CURVE",
"645 322 OFFCURVE",
"666 337 OFFCURVE",
"687 337 CURVE SMOOTH",
"705 337 OFFCURVE",
"739 328 OFFCURVE",
"741 300 CURVE SMOOTH",
"743 271 OFFCURVE",
"748 96 OFFCURVE",
"744 -2 CURVE",
"867 0 LINE"
);
}
);
userData = {
com.schriftgestaltung.Glyphs.lastChange = "2019-03-28 15:56:55 +0000";
};
width = 912;
}
);
leftMetricsKey = m;
rightMetricsKey = i;
},
{
color = 4;
glyphname = n;
lastChange = "2020-02-01 19:42:45 +0000";
layers = (
{
anchors = (
{
name = bottom;
position = "{230, 0}";
},
{
name = top;
position = "{230, 430}";
}
);
layerId = "5FE47517-9953-4891-9518-AB2E2247E448";
paths = (
{
closed = 1;
nodes = (
"426 427 OFFCURVE",
"360 450 OFFCURVE",
"296 450 CURVE SMOOTH",
"285 450 OFFCURVE",
"253 403 OFFCURVE",
"191 345 CURVE",
"187 407 OFFCURVE",
"135 450 OFFCURVE",
"83 450 CURVE SMOOTH",
"77 450 OFFCURVE",
"44 397 OFFCURVE",
"10 357 CURVE",
"10 332 LINE",
"43 332 OFFCURVE",
"76 329 OFFCURVE",
"76 271 CURVE SMOOTH",
"76 -5 LINE",
"80 -7 LINE",
"195 0 LINE",
"191 93 OFFCURVE",
"190 173 OFFCURVE",
"191 302 CURVE",
"203 314 OFFCURVE",
"231 337 OFFCURVE",
"257 337 CURVE SMOOTH",
"280 337 OFFCURVE",
"311 329 OFFCURVE",
"311 293 CURVE SMOOTH",
"311 -4 LINE",
"315 -6 LINE",
"429 -3 LINE",
"426 112 OFFCURVE",
"426 226 OFFCURVE",
"426 341 CURVE SMOOTH"
);
}
);
userData = {
com.schriftgestaltung.Glyphs.lastChange = "2019-04-13 11:37:18 +0000";
};
width = 474;
}
);
unicode = 006E;
},
{
color = 4;
glyphname = n_hook;
lastChange = "2020-02-04 05:24:54 +0000";
layers = (
{
anchors = (
{
name = bottom;
position = "{230, 0}";
},
{
name = top;
position = "{230, 430}";
}
);
layerId = "5FE47517-9953-4891-9518-AB2E2247E448";
paths = (
{
closed = 1;
nodes = (
"262 555 OFFCURVE",
"226 508 OFFCURVE",
"198 480 CURVE",
"220 460 LINE",
"296 540 OFFCURVE",
"368 619 OFFCURVE",
"368 633 CURVE SMOOTH",
"368 675 OFFCURVE",
"344 717 OFFCURVE",
"286 725 CURVE",
"280 725 LINE",
"197 668 LINE",
"197 663 LINE",
"241 646 OFFCURVE",
"262 626 OFFCURVE",
"262 589 CURVE SMOOTH"
);
},
{
closed = 1;
nodes = (
"431 430 OFFCURVE",
"394 450 OFFCURVE",
"350 450 CURVE SMOOTH",
"339 450 OFFCURVE",
"253 403 OFFCURVE",
"191 345 CURVE",
"187 407 OFFCURVE",
"135 450 OFFCURVE",
"83 450 CURVE SMOOTH",
"77 450 OFFCURVE",
"44 397 OFFCURVE",
"10 357 CURVE",
"10 332 LINE",
"43 332 OFFCURVE",
"76 329 OFFCURVE",
"76 271 CURVE SMOOTH",
"76 -5 LINE",
"80 -7 LINE",
"195 40 LINE",
"191 144 OFFCURVE",
"190 195 OFFCURVE",
"191 302 CURVE",
"202 314 OFFCURVE",
"231 337 OFFCURVE",
"257 337 CURVE SMOOTH",
"290 337 OFFCURVE",
"311 319 OFFCURVE",
"311 283 CURVE SMOOTH",
"311 -4 LINE",
"315 -6 LINE",
"434 50 LINE",
"431 165 OFFCURVE",
"431 229 OFFCURVE",
"431 344 CURVE SMOOTH"
);
}
);
userData = {
com.schriftgestaltung.Glyphs.lastChange = "2019-04-13 11:37:59 +0000";
};
width = 479;
}
);
rightMetricsKey = n;
},
{
color = 4;
glyphname = n_macr;
lastChange = "2020-02-01 19:42:53 +0000";
layers = (
{
anchors = (
{
name = bottom;
position = "{230, 0}";
},
{
name = top;
position = "{230, 430}";
}
);
layerId = "5FE47517-9953-4891-9518-AB2E2247E448";
paths = (
{
closed = 1;
nodes = (
"230 600 OFFCURVE",
"300 598 OFFCURVE",
"329 600 CURVE SMOOTH",
"344 601 OFFCURVE",
"381 664 OFFCURVE",
"408 698 CURVE",
"374 705 LINE",
"358 698 OFFCURVE",
"343 695 OFFCURVE",
"317 693 CURVE SMOOTH",
"290 691 OFFCURVE",
"223 691 OFFCURVE",
"195 689 CURVE SMOOTH",
"181 688 OFFCURVE",
"121 611 OFFCURVE",
"93 577 CURVE",
"123 568 LINE",
"141 581 OFFCURVE",
"177 597 OFFCURVE",
"203 598 CURVE SMOOTH"
);
},
{
closed = 1;
nodes = (
"431 430 OFFCURVE",
"360 450 OFFCURVE",
"296 450 CURVE SMOOTH",
"285 450 OFFCURVE",
"253 403 OFFCURVE",
"191 345 CURVE",
"187 407 OFFCURVE",
"135 450 OFFCURVE",
"83 450 CURVE SMOOTH",
"77 450 OFFCURVE",
"44 397 OFFCURVE",
"10 357 CURVE",
"10 332 LINE",
"43 332 OFFCURVE",
"76 329 OFFCURVE",
"76 271 CURVE SMOOTH",
"76 -5 LINE",
"80 -7 LINE",
"195 0 LINE",
"191 93 OFFCURVE",
"190 173 OFFCURVE",
"191 302 CURVE",
"203 314 OFFCURVE",
"231 337 OFFCURVE",
"257 337 CURVE SMOOTH",
"280 337 OFFCURVE",
"311 329 OFFCURVE",
"311 293 CURVE SMOOTH",
"311 -4 LINE",
"315 -6 LINE",
"434 0 LINE",
"431 115 OFFCURVE",
"431 229 OFFCURVE",
"431 344 CURVE SMOOTH"
);
}
);
userData = {
com.schriftgestaltung.Glyphs.ComponentInfo = (
{
alignment = -1;
index = 0;
name = n;
}
);
com.schriftgestaltung.Glyphs.lastChange = "2019-04-23 08:58:33 +0000";
};
width = 479;
}
);
rightMetricsKey = n;
unicode = E5DC;
},
{
color = 4;
glyphname = n_i;
lastChange = "2020-02-01 19:42:56 +0000";
layers = (
{
anchors = (
{
name = bottom_1;
position = "{168, 0}";
},
{
name = bottom_2;
position = "{503, 0}";
},
{
name = caret_1;
position = "{335, 0}";
},
{
name = top_1;
position = "{168, 430}";
},
{
name = top_2;
position = "{503, 430}";
}
);
layerId = "5FE47517-9953-4891-9518-AB2E2247E448";
paths = (
{
closed = 1;
nodes = (
"615 700 LINE",
"615 703 LINE",
"577 719 LINE",
"574 718 LINE",
"528 574 LINE",
"535 536 LINE",
"538 536 LINE"
);
},
{
closed = 1;
nodes = (
"642 115 OFFCURVE",
"642 229 OFFCURVE",
"642 344 CURVE SMOOTH",
"642 430 OFFCURVE",
"571 450 OFFCURVE",
"507 450 CURVE SMOOTH",
"496 450 OFFCURVE",
"467 404 OFFCURVE",
"410 349 CURVE",
"407 431 OFFCURVE",
"338 450 OFFCURVE",
"275 450 CURVE SMOOTH",
"265 450 OFFCURVE",
"237 407 OFFCURVE",
"185 356 CURVE",
"177 426 OFFCURVE",
"133 462 OFFCURVE",
"72 445 CURVE",
"10 362 LINE",
"10 342 LINE",
"40 334 OFFCURVE",
"68 331 OFFCURVE",
"70 282 CURVE SMOOTH",
"72 200 OFFCURVE",
"72 103 OFFCURVE",
"68 -10 CURVE",
"75 -14 LINE",
"187 11 LINE",
"184 109 OFFCURVE",
"186 225 OFFCURVE",
"186 317 CURVE",
"199 327 OFFCURVE",
"216 337 OFFCURVE",
"233 337 CURVE SMOOTH",
"251 337 OFFCURVE",
"283 328 OFFCURVE",
"287 300 CURVE SMOOTH",
"291 271 OFFCURVE",
"294 94 OFFCURVE",
"290 -4 CURVE",
"294 -6 LINE",
"413 0 LINE",
"410 104 OFFCURVE",
"410 206 OFFCURVE",
"410 310 CURVE",
"423 322 OFFCURVE",
"444 337 OFFCURVE",
"465 337 CURVE SMOOTH",
"483 337 OFFCURVE",
"517 328 OFFCURVE",
"519 300 CURVE SMOOTH",
"521 271 OFFCURVE",
"526 96 OFFCURVE",
"522 -2 CURVE",
"645 0 LINE"
);
}
);
userData = {
com.schriftgestaltung.Glyphs.lastChange = "2019-03-28 15:56:55 +0000";
};
width = 690;
}
);
leftMetricsKey = n;
rightMetricsKey = n;
},
{
color = 4;
glyphname = o;
lastChange = "2020-02-01 18:24:20 +0000";
layers = (
{
anchors = (
{
name = bottom;
position = "{238, 0}";
},
{
name = center;
position = "{238, 215}";
},
{
name = ogonek;
position = "{419, 10}";
},
{
name = top;
position = "{238, 430}";
},
{
name = topright;
position = "{444, 430}";
}
);
layerId = "5FE47517-9953-4891-9518-AB2E2247E448";
paths = (
{
closed = 1;
nodes = (
"245 -21 OFFCURVE",
"358 64 OFFCURVE",
"403 100 CURVE",
"433 132 OFFCURVE",
"449 198 OFFCURVE",
"449 234 CURVE SMOOTH",
"449 365 OFFCURVE",
"346 441 OFFCURVE",
"272 450 CURVE",
"235 440 OFFCURVE",
"110 349 OFFCURVE",
"82 330 CURVE",
"54 302 OFFCURVE",
"25 252 OFFCURVE",
"25 194 CURVE SMOOTH",
"25 79 OFFCURVE",
"113 -11 OFFCURVE",
"206 -21 CURVE"
);
},
{
closed = 1;
nodes = (
"265 60 OFFCURVE",
"133 90 OFFCURVE",
"133 247 CURVE SMOOTH",
"133 311 OFFCURVE",
"166 351 OFFCURVE",
"189 355 CURVE SMOOTH",
"235 362 OFFCURVE",
"333 318 OFFCURVE",
"333 183 CURVE SMOOTH",
"333 124 OFFCURVE",
"310 76 OFFCURVE",
"288 68 CURVE SMOOTH"
);
}
);
userData = {
com.schriftgestaltung.Glyphs.lastChange = "2019-04-13 11:32:20 +0000";
};
width = 474;
}
);
unicode = 006F;
},
{
color = 4;
glyphname = o_macr;
lastChange = "2020-02-01 19:43:14 +0000";
layers = (
{
anchors = (
{
name = bottom;
position = "{238, 0}";
},
{
name = center;
position = "{238, 215}";
},
{
name = ogonek;
position = "{419, 10}";
},
{
name = top;
position = "{238, 430}";
},
{
name = topright;
position = "{444, 430}";
}
);
layerId = "5FE47517-9953-4891-9518-AB2E2247E448";
paths = (
{
closed = 1;
nodes = (
"146 564 OFFCURVE",
"180 579 OFFCURVE",
"204 581 CURVE SMOOTH",
"230 582 OFFCURVE",
"296 580 OFFCURVE",
"323 582 CURVE SMOOTH",
"337 583 OFFCURVE",
"372 647 OFFCURVE",
"397 680 CURVE",
"366 687 LINE",
"350 680 OFFCURVE",
"336 677 OFFCURVE",
"312 675 CURVE SMOOTH",
"286 674 OFFCURVE",
"223 673 OFFCURVE",
"197 671 CURVE SMOOTH",
"183 670 OFFCURVE",
"127 593 OFFCURVE",
"101 559 CURVE",
"129 550 LINE"
);
},
{
closed = 1;
nodes = (
"245 -21 OFFCURVE",
"358 64 OFFCURVE",
"403 100 CURVE",
"433 132 OFFCURVE",
"449 198 OFFCURVE",
"449 234 CURVE SMOOTH",
"449 365 OFFCURVE",
"346 441 OFFCURVE",
"272 450 CURVE",
"235 440 OFFCURVE",
"110 349 OFFCURVE",
"82 330 CURVE",
"54 302 OFFCURVE",
"25 252 OFFCURVE",
"25 194 CURVE SMOOTH",
"25 79 OFFCURVE",
"113 -11 OFFCURVE",
"206 -21 CURVE"
);
},
{
closed = 1;
nodes = (
"265 60 OFFCURVE",
"133 90 OFFCURVE",
"133 247 CURVE SMOOTH",
"133 311 OFFCURVE",
"166 351 OFFCURVE",
"189 355 CURVE SMOOTH",
"235 362 OFFCURVE",
"333 318 OFFCURVE",
"333 183 CURVE SMOOTH",
"333 124 OFFCURVE",
"310 76 OFFCURVE",
"288 68 CURVE SMOOTH"
);
}
);
userData = {
com.schriftgestaltung.Glyphs.ComponentInfo = (
{
alignment = -1;
index = 0;
name = o;
}
);
com.schriftgestaltung.Glyphs.lastChange = "2019-04-23 08:58:29 +0000";
};
width = 474;
}
);
leftMetricsKey = o;
rightMetricsKey = o;
unicode = 014D;
},
{
color = 4;
glyphname = o_ra;
lastChange = "2020-02-01 19:43:14 +0000";
layers = (
{
anchors = (
{
name = bottom;
position = "{250, 0}";
},
{
name = center;
position = "{250, 215}";
},
{
name = ogonek;
position = "{431, 10}";
},
{
name = top;
position = "{250, 430}";
},
{
name = topright;
position = "{456, 430}";
}
);
layerId = "5FE47517-9953-4891-9518-AB2E2247E448";
paths = (
{
closed = 1;
nodes = (
"201 544 OFFCURVE",
"260 593 OFFCURVE",
"270 593 CURVE",
"293 577 OFFCURVE",
"313 531 OFFCURVE",
"343 531 CURVE",
"378 541 OFFCURVE",
"425 568 OFFCURVE",
"484 626 CURVE",
"469 652 LINE",
"442 619 OFFCURVE",
"415 621 OFFCURVE",
"395 620 CURVE SMOOTH",
"367 620 OFFCURVE",
"341 645 OFFCURVE",
"331 685 CURVE",
"323 687 LINE",
"298 652 OFFCURVE",
"278 617 OFFCURVE",
"229 617 CURVE SMOOTH",
"198 617 OFFCURVE",
"172 645 OFFCURVE",
"170 698 CURVE",
"162 698 LINE",
"143 683 OFFCURVE",
"56 618 OFFCURVE",
"25 585 CURVE",
"43 564 LINE",
"43 560 OFFCURVE",
"63 589 OFFCURVE",
"91 583 CURVE SMOOTH",
"126 576 OFFCURVE",
"152 529 OFFCURVE",
"163 529 CURVE"
);
},
{
closed = 1;
nodes = (
"257 -21 OFFCURVE",
"370 64 OFFCURVE",
"415 100 CURVE",
"445 132 OFFCURVE",
"461 198 OFFCURVE",
"461 234 CURVE SMOOTH",
"461 365 OFFCURVE",
"358 441 OFFCURVE",
"284 450 CURVE",
"247 440 OFFCURVE",
"122 349 OFFCURVE",
"94 330 CURVE",
"66 302 OFFCURVE",
"37 252 OFFCURVE",
"37 194 CURVE SMOOTH",
"37 79 OFFCURVE",
"125 -11 OFFCURVE",
"218 -21 CURVE"
);
},
{
closed = 1;
nodes = (
"277 60 OFFCURVE",
"145 90 OFFCURVE",
"145 247 CURVE SMOOTH",
"145 311 OFFCURVE",
"178 351 OFFCURVE",
"201 355 CURVE SMOOTH",
"247 362 OFFCURVE",
"345 318 OFFCURVE",
"345 183 CURVE SMOOTH",
"345 124 OFFCURVE",
"322 76 OFFCURVE",
"300 68 CURVE SMOOTH"
);
}
);
userData = {
com.schriftgestaltung.Glyphs.ComponentInfo = (
{
alignment = -1;
index = 0;
name = o;
}
);
com.schriftgestaltung.Glyphs.lastChange = "2019-04-13 12:36:56 +0000";
};
width = 509;
}
);
leftMetricsKey = o;
rightMetricsKey = o;
},
